M48
; DRILL file {KiCad 7.0.6} date Wed Sep  6 23:30:35 2023
; FORMAT={-:-/ absolute / inch / decimal}
; #@! TF.CreationDate,2023-09-06T23:30:35+02:00
; #@! TF.GenerationSoftware,Kicad,Pcbnew,7.0.6
; #@! TF.FileFunction,Plated,1,2,PTH
FMAT,2
INCH
; #@! TA.AperFunction,Plated,PTH,ComponentDrill
T1C0.0295
; #@! TA.AperFunction,Plated,PTH,ComponentDrill
T2C0.0315
; #@! TA.AperFunction,Plated,PTH,ComponentDrill
T3C0.0394
%
G90
G05
T1
X2.1988Y-1.0012
X2.2488Y-0.9512
X2.2988Y-1.0012
T2
X0.9488Y-0.7028
X0.9488Y-0.8012
X0.9488Y-1.0012
X0.9488Y-1.198
X1.0988Y-0.9512
X1.0988Y-1.2512
X1.1988Y-0.9512
X1.1988Y-1.2512
X1.1988Y-1.4012
X1.1988Y-1.5012
X1.2988Y-0.7012
X1.2988Y-0.8012
X1.2988Y-0.9512
X1.2988Y-1.2512
X1.3988Y-0.9512
X1.3988Y-1.2512
X1.3988Y-1.4012
X1.3988Y-1.5012
X1.4988Y-0.7012
X1.4988Y-0.8012
X1.4988Y-0.9512
X1.4988Y-1.2512
X1.5988Y-0.9512
X1.5988Y-1.2512
X1.6988Y-0.9512
X1.6988Y-1.2512
X1.7988Y-0.9512
X1.7988Y-1.2512
X1.9988Y-0.7012
X1.9988Y-0.8012
X1.9988Y-0.9512
X1.9988Y-1.0512
X1.9988Y-1.2012
X2.0988Y-1.2012
X2.1494Y-0.7512
X2.1988Y-1.2012
X2.2004Y-1.4512
X2.2494Y-0.7512
X2.2988Y-1.2012
X2.2988Y-1.4512
X2.3494Y-0.7512
T3
X0.6052Y-0.6049
X0.6052Y-1.5948
X0.6488Y-0.7512
X0.6488Y-0.8512
X0.6488Y-0.9512
X0.6488Y-1.0512
X0.6488Y-1.1512
X0.6488Y-1.2512
X0.6488Y-1.3512
X0.6488Y-1.4512
X2.4988Y-0.95
X2.4988Y-1.05
X2.4988Y-1.15
X2.4988Y-1.25
X2.5396Y-0.6049
X2.5396Y-1.5948
T0
M30
