%TF.GenerationSoftware,KiCad,Pcbnew,7.0.6*%
%TF.CreationDate,2023-08-20T13:22:53+02:00*%
%TF.ProjectId,atari_2600_av_mod,61746172-695f-4323-9630-305f61765f6d,1*%
%TF.SameCoordinates,Original*%
%TF.FileFunction,Copper,L1,Top*%
%TF.FilePolarity,Positive*%
%FSLAX46Y46*%
G04 Gerber Fmt 4.6, Leading zero omitted, Abs format (unit mm)*
G04 Created by KiCad (PCBNEW 7.0.6) date 2023-08-20 13:22:53*
%MOMM*%
%LPD*%
G01*
G04 APERTURE LIST*
%TA.AperFunction,ComponentPad*%
%ADD10C,1.600000*%
%TD*%
%TA.AperFunction,ComponentPad*%
%ADD11O,1.600000X1.600000*%
%TD*%
%TA.AperFunction,ComponentPad*%
%ADD12R,1.600000X1.600000*%
%TD*%
%TA.AperFunction,ComponentPad*%
%ADD13R,1.700000X1.700000*%
%TD*%
%TA.AperFunction,ComponentPad*%
%ADD14O,1.700000X1.700000*%
%TD*%
%TA.AperFunction,ComponentPad*%
%ADD15R,1.050000X1.500000*%
%TD*%
%TA.AperFunction,ComponentPad*%
%ADD16O,1.050000X1.500000*%
%TD*%
%TA.AperFunction,ComponentPad*%
%ADD17C,1.440000*%
%TD*%
%TA.AperFunction,Conductor*%
%ADD18C,0.800000*%
%TD*%
%TA.AperFunction,Conductor*%
%ADD19C,0.400000*%
%TD*%
G04 APERTURE END LIST*
D10*
%TO.P,R4,1*%
%TO.N,Net-(R4-Pad1)*%
X35530000Y-35590000D03*
D11*
%TO.P,R4,2*%
%TO.N,Net-(R1-Pad2)*%
X35530000Y-38130000D03*
%TD*%
D12*
%TO.P,U1,1,VCC*%
%TO.N,/+5V*%
X45690000Y-24160000D03*
D11*
%TO.P,U1,2*%
%TO.N,Net-(R1-Pad2)*%
X43150000Y-24160000D03*
%TO.P,U1,3*%
%TO.N,Net-(J1-Pin_3)*%
X40610000Y-24160000D03*
%TO.P,U1,4*%
%TO.N,Net-(R1-Pad1)*%
X38070000Y-24160000D03*
%TO.P,U1,5*%
%TO.N,Net-(J1-Pin_4)*%
X35530000Y-24160000D03*
%TO.P,U1,6*%
%TO.N,Net-(R2-Pad1)*%
X32990000Y-24160000D03*
%TO.P,U1,7*%
%TO.N,Net-(J1-Pin_5)*%
X30450000Y-24160000D03*
%TO.P,U1,8,VSS*%
%TO.N,/GND*%
X27910000Y-24160000D03*
%TO.P,U1,9*%
%TO.N,Net-(J1-Pin_6)*%
X27910000Y-31780000D03*
%TO.P,U1,10*%
%TO.N,Net-(R3-Pad1)*%
X30450000Y-31780000D03*
%TO.P,U1,11*%
%TO.N,Net-(J1-Pin_7)*%
X32990000Y-31780000D03*
%TO.P,U1,12*%
%TO.N,Net-(R4-Pad1)*%
X35530000Y-31780000D03*
%TO.P,U1,13*%
%TO.N,N/C*%
X38070000Y-31780000D03*
%TO.P,U1,14*%
%TO.N,unconnected-(U1-Pad14)*%
X40610000Y-31780000D03*
%TO.P,U1,15*%
%TO.N,unconnected-(U1-Pad15)*%
X43150000Y-31780000D03*
%TO.P,U1,16*%
%TO.N,N/C*%
X45690000Y-31780000D03*
%TD*%
D10*
%TO.P,R5,1*%
%TO.N,Net-(R1-Pad2)*%
X50770000Y-20350000D03*
D11*
%TO.P,R5,2*%
%TO.N,/+5V*%
X50770000Y-17810000D03*
%TD*%
D10*
%TO.P,R1,1*%
%TO.N,Net-(R1-Pad1)*%
X38070000Y-20350000D03*
D11*
%TO.P,R1,2*%
%TO.N,Net-(R1-Pad2)*%
X38070000Y-17810000D03*
%TD*%
D10*
%TO.P,C2,1*%
%TO.N,/+5V*%
X24100000Y-30430000D03*
%TO.P,C2,2*%
%TO.N,/GND*%
X24100000Y-25430000D03*
%TD*%
%TO.P,R7,1*%
%TO.N,/GND*%
X50770000Y-30510000D03*
D11*
%TO.P,R7,2*%
%TO.N,Net-(Q1-E)*%
X53310000Y-30510000D03*
%TD*%
D10*
%TO.P,R8,1*%
%TO.N,Net-(J2-Pin_4)*%
X58390000Y-30510000D03*
D11*
%TO.P,R8,2*%
%TO.N,Net-(Q1-E)*%
X55850000Y-30510000D03*
%TD*%
D13*
%TO.P,J2,1,Pin_1*%
%TO.N,/GND*%
X63470000Y-31750000D03*
D14*
%TO.P,J2,2,Pin_2*%
%TO.N,Net-(J2-Pin_2)*%
X63470000Y-29210000D03*
%TO.P,J2,3,Pin_3*%
%TO.N,/GND*%
X63470000Y-26670000D03*
%TO.P,J2,4,Pin_4*%
%TO.N,Net-(J2-Pin_4)*%
X63470000Y-24130000D03*
%TD*%
D12*
%TO.P,C1,1*%
%TO.N,/+5V*%
X24100000Y-17850000D03*
D10*
%TO.P,C1,2*%
%TO.N,/GND*%
X24100000Y-20350000D03*
%TD*%
D13*
%TO.P,J1,1,Pin_1*%
%TO.N,/+5V*%
X16480000Y-19080000D03*
D14*
%TO.P,J1,2,Pin_2*%
%TO.N,/GND*%
X16480000Y-21620000D03*
%TO.P,J1,3,Pin_3*%
%TO.N,Net-(J1-Pin_3)*%
X16480000Y-24160000D03*
%TO.P,J1,4,Pin_4*%
%TO.N,Net-(J1-Pin_4)*%
X16480000Y-26700000D03*
%TO.P,J1,5,Pin_5*%
%TO.N,Net-(J1-Pin_5)*%
X16480000Y-29240000D03*
%TO.P,J1,6,Pin_6*%
%TO.N,Net-(J1-Pin_6)*%
X16480000Y-31780000D03*
%TO.P,J1,7,Pin_7*%
%TO.N,Net-(J1-Pin_7)*%
X16480000Y-34320000D03*
%TO.P,J1,8,Pin_8*%
%TO.N,Net-(J1-Pin_8)*%
X16480000Y-36860000D03*
%TD*%
D13*
%TO.P,J3,1,Pin_1*%
%TO.N,/GND*%
X15371146Y-15363548D03*
%TD*%
D10*
%TO.P,R3,1*%
%TO.N,Net-(R3-Pad1)*%
X30450000Y-35590000D03*
D11*
%TO.P,R3,2*%
%TO.N,Net-(R1-Pad2)*%
X30450000Y-38130000D03*
%TD*%
D13*
%TO.P,J6,1,Pin_1*%
%TO.N,/GND*%
X64506439Y-40507248D03*
%TD*%
D10*
%TO.P,R6,1*%
%TO.N,/GND*%
X50770000Y-26700000D03*
D11*
%TO.P,R6,2*%
%TO.N,Net-(R1-Pad2)*%
X50770000Y-24160000D03*
%TD*%
D15*
%TO.P,Q1,1,E*%
%TO.N,Net-(Q1-E)*%
X55850000Y-25430000D03*
D16*
%TO.P,Q1,2,C*%
%TO.N,/+5V*%
X57120000Y-25430000D03*
%TO.P,Q1,3,B*%
%TO.N,Net-(Q1-B)*%
X58390000Y-25430000D03*
%TD*%
D13*
%TO.P,J5,1,Pin_1*%
%TO.N,/GND*%
X15371146Y-40507248D03*
%TD*%
D12*
%TO.P,C3,1*%
%TO.N,Net-(J1-Pin_8)*%
X55890000Y-36860000D03*
D10*
%TO.P,C3,2*%
%TO.N,Net-(J2-Pin_2)*%
X58390000Y-36860000D03*
%TD*%
D13*
%TO.P,J4,1,Pin_1*%
%TO.N,/GND*%
X64506439Y-15363548D03*
%TD*%
D10*
%TO.P,R2,1*%
%TO.N,Net-(R2-Pad1)*%
X32990000Y-20350000D03*
D11*
%TO.P,R2,2*%
%TO.N,Net-(R1-Pad2)*%
X32990000Y-17810000D03*
%TD*%
D17*
%TO.P,RV1,1,1*%
%TO.N,Net-(R1-Pad2)*%
X54595000Y-19080000D03*
%TO.P,RV1,2,2*%
%TO.N,Net-(Q1-B)*%
X57135000Y-19080000D03*
%TO.P,RV1,3,3*%
%TO.N,/GND*%
X59675000Y-19080000D03*
%TD*%
D18*
%TO.N,/+5V*%
X57120000Y-23880000D02*
X55719000Y-22479000D01*
X57120000Y-25430000D02*
X57120000Y-23880000D01*
X55719000Y-22479000D02*
X47371000Y-22479000D01*
X47371000Y-22479000D02*
X45690000Y-24160000D01*
X26640000Y-15270000D02*
X48230000Y-15270000D01*
X44420000Y-27970000D02*
X45690000Y-26700000D01*
X24100000Y-30430000D02*
X26560000Y-27970000D01*
X24100000Y-17810000D02*
X26640000Y-15270000D01*
X26560000Y-27970000D02*
X44420000Y-27970000D01*
X45690000Y-26700000D02*
X45690000Y-24160000D01*
X48230000Y-15270000D02*
X50770000Y-17810000D01*
D19*
%TO.N,Net-(R1-Pad2)*%
X43150000Y-24160000D02*
X46960000Y-20350000D01*
X46960000Y-20350000D02*
X50770000Y-20350000D01*
%TO.N,Net-(J1-Pin_4)*%
X20290000Y-22890000D02*
X34260000Y-22890000D01*
X34260000Y-22890000D02*
X35530000Y-24160000D01*
X16480000Y-26700000D02*
X20290000Y-22890000D01*
%TO.N,Net-(J1-Pin_5)*%
X21560000Y-26700000D02*
X27910000Y-26700000D01*
X16480000Y-29240000D02*
X19020000Y-29240000D01*
X19020000Y-29240000D02*
X21560000Y-26700000D01*
X27910000Y-26700000D02*
X30450000Y-24160000D01*
%TD*%
%TA.AperFunction,Conductor*%
%TO.N,/GND*%
G36*
X25959485Y-14460185D02*
G01*
X26005240Y-14512989D01*
X26015184Y-14582147D01*
X25986159Y-14645703D01*
X25975419Y-14656649D01*
X25967114Y-14664126D01*
X25958869Y-14675474D01*
X25946236Y-14690263D01*
X24123318Y-16513181D01*
X24061995Y-16546666D01*
X24035637Y-16549500D01*
X23252129Y-16549500D01*
X23252123Y-16549501D01*
X23192516Y-16555908D01*
X23057671Y-16606202D01*
X23057664Y-16606206D01*
X22942455Y-16692452D01*
X22942452Y-16692455D01*
X22856206Y-16807664D01*
X22856202Y-16807671D01*
X22805908Y-16942517D01*
X22799501Y-17002116D01*
X22799500Y-17002135D01*
X22799500Y-18697870D01*
X22799501Y-18697876D01*
X22805908Y-18757483D01*
X22856202Y-18892328D01*
X22856206Y-18892335D01*
X22942452Y-19007544D01*
X22942455Y-19007547D01*
X23057664Y-19093793D01*
X23057671Y-19093797D01*
X23102618Y-19110561D01*
X23192517Y-19144091D01*
X23252127Y-19150500D01*
X23252153Y-19150499D01*
X23255453Y-19150678D01*
X23255372Y-19152183D01*
X23316672Y-19170112D01*
X23362483Y-19222867D01*
X23370016Y-19266463D01*
X24055600Y-19952046D01*
X23974852Y-19964835D01*
X23861955Y-20022359D01*
X23772359Y-20111955D01*
X23714835Y-20224852D01*
X23702046Y-20305599D01*
X23020973Y-19624526D01*
X23020972Y-19624527D01*
X22969868Y-19697513D01*
X22873734Y-19903673D01*
X22873730Y-19903682D01*
X22814860Y-20123389D01*
X22814858Y-20123400D01*
X22795034Y-20349997D01*
X22795034Y-20350002D01*
X22814858Y-20576599D01*
X22814860Y-20576610D01*
X22873730Y-20796317D01*
X22873734Y-20796326D01*
X22969865Y-21002481D01*
X22969866Y-21002483D01*
X23020973Y-21075471D01*
X23020974Y-21075472D01*
X23702046Y-20394399D01*
X23714835Y-20475148D01*
X23772359Y-20588045D01*
X23861955Y-20677641D01*
X23974852Y-20735165D01*
X24055599Y-20747953D01*
X23374526Y-21429025D01*
X23374526Y-21429026D01*
X23447512Y-21480131D01*
X23447516Y-21480133D01*
X23653673Y-21576265D01*
X23653682Y-21576269D01*
X23873389Y-21635139D01*
X23873400Y-21635141D01*
X24099998Y-21654966D01*
X24100002Y-21654966D01*
X24326599Y-21635141D01*
X24326610Y-21635139D01*
X24546317Y-21576269D01*
X24546331Y-21576264D01*
X24752478Y-21480136D01*
X24825472Y-21429025D01*
X24144401Y-20747953D01*
X24225148Y-20735165D01*
X24338045Y-20677641D01*
X24427641Y-20588045D01*
X24485165Y-20475148D01*
X24497953Y-20394400D01*
X25179025Y-21075472D01*
X25230136Y-21002478D01*
X25326264Y-20796331D01*
X25326269Y-20796317D01*
X25385139Y-20576610D01*
X25385141Y-20576599D01*
X25404966Y-20350002D01*
X25404966Y-20350001D01*
X31684532Y-20350001D01*
X31704364Y-20576686D01*
X31704366Y-20576697D01*
X31763258Y-20796488D01*
X31763261Y-20796497D01*
X31859431Y-21002732D01*
X31859432Y-21002734D01*
X31989954Y-21189141D01*
X32150858Y-21350045D01*
X32150861Y-21350047D01*
X32337266Y-21480568D01*
X32543504Y-21576739D01*
X32543509Y-21576740D01*
X32543511Y-21576741D01*
X32573163Y-21584686D01*
X32763308Y-21635635D01*
X32925230Y-21649801D01*
X32989998Y-21655468D01*
X32990000Y-21655468D01*
X32990002Y-21655468D01*
X33046673Y-21650509D01*
X33216692Y-21635635D01*
X33436496Y-21576739D01*
X33642734Y-21480568D01*
X33829139Y-21350047D01*
X33990047Y-21189139D01*
X34120568Y-21002734D01*
X34216739Y-20796496D01*
X34275635Y-20576692D01*
X34295468Y-20350001D01*
X36764532Y-20350001D01*
X36784364Y-20576686D01*
X36784366Y-20576697D01*
X36843258Y-20796488D01*
X36843261Y-20796497D01*
X36939431Y-21002732D01*
X36939432Y-21002734D01*
X37069954Y-21189141D01*
X37230858Y-21350045D01*
X37230861Y-21350047D01*
X37417266Y-21480568D01*
X37623504Y-21576739D01*
X37623509Y-21576740D01*
X37623511Y-21576741D01*
X37653163Y-21584686D01*
X37843308Y-21635635D01*
X38005230Y-21649801D01*
X38069998Y-21655468D01*
X38070000Y-21655468D01*
X38070002Y-21655468D01*
X38126672Y-21650509D01*
X38296692Y-21635635D01*
X38516496Y-21576739D01*
X38722734Y-21480568D01*
X38909139Y-21350047D01*
X39070047Y-21189139D01*
X39200568Y-21002734D01*
X39296739Y-20796496D01*
X39355635Y-20576692D01*
X39375468Y-20350000D01*
X39355635Y-20123308D01*
X39296739Y-19903504D01*
X39200568Y-19697266D01*
X39070047Y-19510861D01*
X39070045Y-19510858D01*
X38909141Y-19349954D01*
X38722734Y-19219432D01*
X38722728Y-19219429D01*
X38664725Y-19192382D01*
X38612285Y-19146210D01*
X38593133Y-19079017D01*
X38613348Y-19012135D01*
X38664725Y-18967618D01*
X38722734Y-18940568D01*
X38909139Y-18810047D01*
X39070047Y-18649139D01*
X39200568Y-18462734D01*
X39296739Y-18256496D01*
X39355635Y-18036692D01*
X39375468Y-17810000D01*
X39355635Y-17583308D01*
X39296739Y-17363504D01*
X39200568Y-17157266D01*
X39091945Y-17002135D01*
X39070045Y-16970858D01*
X38909141Y-16809954D01*
X38722734Y-16679432D01*
X38722732Y-16679431D01*
X38516497Y-16583261D01*
X38516488Y-16583258D01*
X38296697Y-16524366D01*
X38296693Y-16524365D01*
X38296692Y-16524365D01*
X38296691Y-16524364D01*
X38296686Y-16524364D01*
X38070002Y-16504532D01*
X38069998Y-16504532D01*
X37843313Y-16524364D01*
X37843302Y-16524366D01*
X37623511Y-16583258D01*
X37623502Y-16583261D01*
X37417267Y-16679431D01*
X37417265Y-16679432D01*
X37230858Y-16809954D01*
X37069954Y-16970858D01*
X36939432Y-17157265D01*
X36939431Y-17157267D01*
X36843261Y-17363502D01*
X36843258Y-17363511D01*
X36784366Y-17583302D01*
X36784364Y-17583313D01*
X36764532Y-17809998D01*
X36764532Y-17810001D01*
X36784364Y-18036686D01*
X36784366Y-18036697D01*
X36843258Y-18256488D01*
X36843261Y-18256497D01*
X36939431Y-18462732D01*
X36939432Y-18462734D01*
X37069954Y-18649141D01*
X37230858Y-18810045D01*
X37230861Y-18810047D01*
X37417266Y-18940568D01*
X37475275Y-18967618D01*
X37527714Y-19013791D01*
X37546866Y-19080984D01*
X37526650Y-19147865D01*
X37475275Y-19192382D01*
X37417267Y-19219431D01*
X37417265Y-19219432D01*
X37230858Y-19349954D01*
X37069954Y-19510858D01*
X36990364Y-19624527D01*
X36942713Y-19692581D01*
X36939435Y-19697262D01*
X36939431Y-19697267D01*
X36843261Y-19903502D01*
X36843258Y-19903511D01*
X36784366Y-20123302D01*
X36784364Y-20123313D01*
X36764532Y-20349998D01*
X36764532Y-20350001D01*
X34295468Y-20350001D01*
X34295468Y-20350000D01*
X34275635Y-20123308D01*
X34216739Y-19903504D01*
X34120568Y-19697266D01*
X33990047Y-19510861D01*
X33990045Y-19510858D01*
X33829141Y-19349954D01*
X33642734Y-19219432D01*
X33642728Y-19219429D01*
X33584725Y-19192382D01*
X33532285Y-19146210D01*
X33513133Y-19079017D01*
X33533348Y-19012135D01*
X33584725Y-18967618D01*
X33642734Y-18940568D01*
X33829139Y-18810047D01*
X33990047Y-18649139D01*
X34120568Y-18462734D01*
X34216739Y-18256496D01*
X34275635Y-18036692D01*
X34295468Y-17810000D01*
X34275635Y-17583308D01*
X34216739Y-17363504D01*
X34120568Y-17157266D01*
X34011945Y-17002135D01*
X33990045Y-16970858D01*
X33829141Y-16809954D01*
X33642734Y-16679432D01*
X33642732Y-16679431D01*
X33436497Y-16583261D01*
X33436488Y-16583258D01*
X33216697Y-16524366D01*
X33216693Y-16524365D01*
X33216692Y-16524365D01*
X33216691Y-16524364D01*
X33216686Y-16524364D01*
X32990002Y-16504532D01*
X32989998Y-16504532D01*
X32763313Y-16524364D01*
X32763302Y-16524366D01*
X32543511Y-16583258D01*
X32543502Y-16583261D01*
X32337267Y-16679431D01*
X32337265Y-16679432D01*
X32150858Y-16809954D01*
X31989954Y-16970858D01*
X31859432Y-17157265D01*
X31859431Y-17157267D01*
X31763261Y-17363502D01*
X31763258Y-17363511D01*
X31704366Y-17583302D01*
X31704364Y-17583313D01*
X31684532Y-17809998D01*
X31684532Y-17810001D01*
X31704364Y-18036686D01*
X31704366Y-18036697D01*
X31763258Y-18256488D01*
X31763261Y-18256497D01*
X31859431Y-18462732D01*
X31859432Y-18462734D01*
X31989954Y-18649141D01*
X32150858Y-18810045D01*
X32150861Y-18810047D01*
X32337266Y-18940568D01*
X32395275Y-18967618D01*
X32447714Y-19013791D01*
X32466866Y-19080984D01*
X32446650Y-19147865D01*
X32395275Y-19192382D01*
X32337267Y-19219431D01*
X32337265Y-19219432D01*
X32150858Y-19349954D01*
X31989954Y-19510858D01*
X31910364Y-19624527D01*
X31862713Y-19692581D01*
X31859435Y-19697262D01*
X31859431Y-19697267D01*
X31763261Y-19903502D01*
X31763258Y-19903511D01*
X31704366Y-20123302D01*
X31704364Y-20123313D01*
X31684532Y-20349998D01*
X31684532Y-20350001D01*
X25404966Y-20350001D01*
X25404966Y-20349997D01*
X25385141Y-20123400D01*
X25385139Y-20123389D01*
X25326269Y-19903682D01*
X25326265Y-19903673D01*
X25230133Y-19697516D01*
X25230131Y-19697512D01*
X25179026Y-19624526D01*
X25179025Y-19624526D01*
X24497953Y-20305598D01*
X24485165Y-20224852D01*
X24427641Y-20111955D01*
X24338045Y-20022359D01*
X24225148Y-19964835D01*
X24144400Y-19952046D01*
X24830646Y-19265799D01*
X24840492Y-19216807D01*
X24889107Y-19166624D01*
X24944633Y-19151981D01*
X24944576Y-19150900D01*
X24944571Y-19150854D01*
X24944573Y-19150853D01*
X24944564Y-19150676D01*
X24947857Y-19150499D01*
X24947872Y-19150499D01*
X25007483Y-19144091D01*
X25142331Y-19093796D01*
X25257546Y-19007546D01*
X25343796Y-18892331D01*
X25394091Y-18757483D01*
X25400500Y-18697873D01*
X25400499Y-17834359D01*
X25420183Y-17767321D01*
X25436813Y-17746684D01*
X26976679Y-16206819D01*
X27038003Y-16173334D01*
X27064361Y-16170500D01*
X47805639Y-16170500D01*
X47872678Y-16190185D01*
X47893320Y-16206819D01*
X49429553Y-17743052D01*
X49463038Y-17804375D01*
X49465400Y-17819925D01*
X49484364Y-18036687D01*
X49484366Y-18036697D01*
X49543258Y-18256488D01*
X49543261Y-18256497D01*
X49639431Y-18462732D01*
X49639432Y-18462734D01*
X49769954Y-18649141D01*
X49930858Y-18810045D01*
X49930861Y-18810047D01*
X50117266Y-18940568D01*
X50175275Y-18967618D01*
X50227714Y-19013791D01*
X50246866Y-19080984D01*
X50226650Y-19147865D01*
X50175275Y-19192382D01*
X50117267Y-19219431D01*
X50117265Y-19219432D01*
X49930858Y-19349954D01*
X49769954Y-19510858D01*
X49709902Y-19596623D01*
X49655325Y-19640248D01*
X49608327Y-19649500D01*
X46983048Y-19649500D01*
X46979303Y-19649387D01*
X46917396Y-19645642D01*
X46917389Y-19645642D01*
X46856386Y-19656821D01*
X46852685Y-19657384D01*
X46791128Y-19664859D01*
X46791121Y-19664861D01*
X46781647Y-19668454D01*
X46760049Y-19674475D01*
X46750069Y-19676304D01*
X46693519Y-19701755D01*
X46690060Y-19703188D01*
X46632071Y-19725181D01*
X46632066Y-19725184D01*
X46623722Y-19730943D01*
X46604187Y-19741961D01*
X46594947Y-19746120D01*
X46594945Y-19746121D01*
X46546136Y-19784359D01*
X46543122Y-19786576D01*
X46492070Y-19821817D01*
X46492068Y-19821818D01*
X46450942Y-19868240D01*
X46448375Y-19870966D01*
X43480369Y-22838972D01*
X43419046Y-22872457D01*
X43381881Y-22874819D01*
X43376680Y-22874364D01*
X43357171Y-22872657D01*
X43150002Y-22854532D01*
X43149998Y-22854532D01*
X42923313Y-22874364D01*
X42923302Y-22874366D01*
X42703511Y-22933258D01*
X42703502Y-22933261D01*
X42497267Y-23029431D01*
X42497265Y-23029432D01*
X42310858Y-23159954D01*
X42149954Y-23320858D01*
X42019432Y-23507265D01*
X42019431Y-23507267D01*
X41992382Y-23565275D01*
X41946209Y-23617714D01*
X41879016Y-23636866D01*
X41812135Y-23616650D01*
X41767618Y-23565275D01*
X41763066Y-23555513D01*
X41740568Y-23507266D01*
X41610047Y-23320861D01*
X41610045Y-23320858D01*
X41449141Y-23159954D01*
X41262734Y-23029432D01*
X41262732Y-23029431D01*
X41056497Y-22933261D01*
X41056488Y-22933258D01*
X40836697Y-22874366D01*
X40836693Y-22874365D01*
X40836692Y-22874365D01*
X40836691Y-22874364D01*
X40836686Y-22874364D01*
X40610002Y-22854532D01*
X40609998Y-22854532D01*
X40383313Y-22874364D01*
X40383302Y-22874366D01*
X40163511Y-22933258D01*
X40163502Y-22933261D01*
X39957267Y-23029431D01*
X39957265Y-23029432D01*
X39770858Y-23159954D01*
X39609954Y-23320858D01*
X39479432Y-23507265D01*
X39479431Y-23507267D01*
X39452382Y-23565275D01*
X39406209Y-23617714D01*
X39339016Y-23636866D01*
X39272135Y-23616650D01*
X39227618Y-23565275D01*
X39223066Y-23555513D01*
X39200568Y-23507266D01*
X39070047Y-23320861D01*
X39070045Y-23320858D01*
X38909141Y-23159954D01*
X38722734Y-23029432D01*
X38722732Y-23029431D01*
X38516497Y-22933261D01*
X38516488Y-22933258D01*
X38296697Y-22874366D01*
X38296693Y-22874365D01*
X38296692Y-22874365D01*
X38296691Y-22874364D01*
X38296686Y-22874364D01*
X38070002Y-22854532D01*
X38069998Y-22854532D01*
X37843313Y-22874364D01*
X37843302Y-22874366D01*
X37623511Y-22933258D01*
X37623502Y-22933261D01*
X37417267Y-23029431D01*
X37417265Y-23029432D01*
X37230858Y-23159954D01*
X37069954Y-23320858D01*
X36939432Y-23507265D01*
X36939431Y-23507267D01*
X36912382Y-23565275D01*
X36866209Y-23617714D01*
X36799016Y-23636866D01*
X36732135Y-23616650D01*
X36687618Y-23565275D01*
X36683066Y-23555513D01*
X36660568Y-23507266D01*
X36530047Y-23320861D01*
X36530045Y-23320858D01*
X36369141Y-23159954D01*
X36182734Y-23029432D01*
X36182732Y-23029431D01*
X35976497Y-22933261D01*
X35976488Y-22933258D01*
X35756697Y-22874366D01*
X35756693Y-22874365D01*
X35756692Y-22874365D01*
X35756691Y-22874364D01*
X35756686Y-22874364D01*
X35530002Y-22854532D01*
X35529998Y-22854532D01*
X35298117Y-22874819D01*
X35229617Y-22861052D01*
X35199629Y-22838972D01*
X35018762Y-22658105D01*
X34771598Y-22410941D01*
X34769064Y-22408250D01*
X34727929Y-22361817D01*
X34727928Y-22361816D01*
X34727924Y-22361812D01*
X34676896Y-22326591D01*
X34673887Y-22324377D01*
X34625060Y-22286124D01*
X34625055Y-22286120D01*
X34615813Y-22281961D01*
X34596266Y-22270936D01*
X34594657Y-22269826D01*
X34587930Y-22265182D01*
X34529938Y-22243188D01*
X34526490Y-22241759D01*
X34469930Y-22216304D01*
X34459946Y-22214474D01*
X34438343Y-22208451D01*
X34428874Y-22204860D01*
X34428870Y-22204859D01*
X34367313Y-22197384D01*
X34363612Y-22196821D01*
X34302608Y-22185642D01*
X34302603Y-22185642D01*
X34240697Y-22189387D01*
X34236952Y-22189500D01*
X20313048Y-22189500D01*
X20309303Y-22189387D01*
X20247396Y-22185642D01*
X20247389Y-22185642D01*
X20186386Y-22196821D01*
X20182685Y-22197384D01*
X20121128Y-22204859D01*
X20121121Y-22204861D01*
X20111647Y-22208454D01*
X20090049Y-22214475D01*
X20080069Y-22216304D01*
X20023519Y-22241755D01*
X20020060Y-22243188D01*
X19962071Y-22265181D01*
X19962066Y-22265184D01*
X19953722Y-22270943D01*
X19934187Y-22281961D01*
X19924947Y-22286120D01*
X19924945Y-22286121D01*
X19876136Y-22324359D01*
X19873122Y-22326576D01*
X19822070Y-22361817D01*
X19822068Y-22361818D01*
X19780942Y-22408240D01*
X19778375Y-22410966D01*
X18039273Y-24150068D01*
X17977950Y-24183553D01*
X17908258Y-24178569D01*
X17852325Y-24136697D01*
X17828064Y-24073194D01*
X17815063Y-23924592D01*
X17758502Y-23713502D01*
X17753905Y-23696344D01*
X17753904Y-23696343D01*
X17753903Y-23696337D01*
X17654035Y-23482171D01*
X17633028Y-23452169D01*
X17518494Y-23288597D01*
X17351402Y-23121506D01*
X17351401Y-23121505D01*
X17165405Y-22991269D01*
X17121781Y-22936692D01*
X17114588Y-22867193D01*
X17146110Y-22804839D01*
X17165405Y-22788119D01*
X17351082Y-22658105D01*
X17518105Y-22491082D01*
X17653600Y-22297578D01*
X17753429Y-22083492D01*
X17753432Y-22083486D01*
X17810636Y-21870000D01*
X16913686Y-21870000D01*
X16939493Y-21829844D01*
X16980000Y-21691889D01*
X16980000Y-21548111D01*
X16939493Y-21410156D01*
X16913686Y-21370000D01*
X17810636Y-21370000D01*
X17810635Y-21369999D01*
X17753432Y-21156513D01*
X17753429Y-21156507D01*
X17653600Y-20942422D01*
X17653599Y-20942420D01*
X17518113Y-20748926D01*
X17518108Y-20748920D01*
X17396053Y-20626865D01*
X17362568Y-20565542D01*
X17367552Y-20495850D01*
X17409424Y-20439917D01*
X17440400Y-20423002D01*
X17572331Y-20373796D01*
X17687546Y-20287546D01*
X17773796Y-20172331D01*
X17824091Y-20037483D01*
X17830500Y-19977873D01*
X17830499Y-18182128D01*
X17824091Y-18122517D01*
X17792082Y-18036697D01*
X17773797Y-17987671D01*
X17773793Y-17987664D01*
X17687547Y-17872455D01*
X17687544Y-17872452D01*
X17572335Y-17786206D01*
X17572328Y-17786202D01*
X17437482Y-17735908D01*
X17437483Y-17735908D01*
X17377883Y-17729501D01*
X17377881Y-17729500D01*
X17377873Y-17729500D01*
X17377864Y-17729500D01*
X15582129Y-17729500D01*
X15582123Y-17729501D01*
X15522516Y-17735908D01*
X15387671Y-17786202D01*
X15387664Y-17786206D01*
X15272455Y-17872452D01*
X15272452Y-17872455D01*
X15186206Y-17987664D01*
X15186202Y-17987671D01*
X15135908Y-18122517D01*
X15129501Y-18182116D01*
X15129501Y-18182123D01*
X15129500Y-18182135D01*
X15129500Y-19977870D01*
X15129501Y-19977876D01*
X15135908Y-20037483D01*
X15186202Y-20172328D01*
X15186206Y-20172335D01*
X15272452Y-20287544D01*
X15272455Y-20287547D01*
X15387664Y-20373793D01*
X15387671Y-20373797D01*
X15387674Y-20373798D01*
X15519598Y-20423002D01*
X15575531Y-20464873D01*
X15599949Y-20530337D01*
X15585098Y-20598610D01*
X15563947Y-20626865D01*
X15441886Y-20748926D01*
X15306400Y-20942420D01*
X15306399Y-20942422D01*
X15206570Y-21156507D01*
X15206567Y-21156513D01*
X15149364Y-21369999D01*
X15149364Y-21370000D01*
X16046314Y-21370000D01*
X16020507Y-21410156D01*
X15980000Y-21548111D01*
X15980000Y-21691889D01*
X16020507Y-21829844D01*
X16046314Y-21870000D01*
X15149364Y-21870000D01*
X15206567Y-22083486D01*
X15206570Y-22083492D01*
X15306399Y-22297578D01*
X15441894Y-22491082D01*
X15608917Y-22658105D01*
X15794595Y-22788119D01*
X15838219Y-22842696D01*
X15845412Y-22912195D01*
X15813890Y-22974549D01*
X15794595Y-22991269D01*
X15608594Y-23121508D01*
X15441505Y-23288597D01*
X15305965Y-23482169D01*
X15305964Y-23482171D01*
X15206098Y-23696335D01*
X15206094Y-23696344D01*
X15144938Y-23924586D01*
X15144936Y-23924596D01*
X15124341Y-24159999D01*
X15124341Y-24160000D01*
X15144936Y-24395403D01*
X15144938Y-24395413D01*
X15206094Y-24623655D01*
X15206096Y-24623659D01*
X15206097Y-24623663D01*
X15267213Y-24754726D01*
X15305965Y-24837830D01*
X15305967Y-24837834D01*
X15366104Y-24923718D01*
X15422295Y-25003967D01*
X15441501Y-25031395D01*
X15441506Y-25031402D01*
X15608597Y-25198493D01*
X15608603Y-25198498D01*
X15794158Y-25328425D01*
X15837783Y-25383002D01*
X15844977Y-25452500D01*
X15813454Y-25514855D01*
X15794158Y-25531575D01*
X15608597Y-25661505D01*
X15441505Y-25828597D01*
X15305965Y-26022169D01*
X15305964Y-26022171D01*
X15206098Y-26236335D01*
X15206094Y-26236344D01*
X15144938Y-26464586D01*
X15144936Y-26464596D01*
X15124341Y-26699999D01*
X15124341Y-26700000D01*
X15144936Y-26935403D01*
X15144938Y-26935413D01*
X15206094Y-27163655D01*
X15206096Y-27163659D01*
X15206097Y-27163663D01*
X15303660Y-27372887D01*
X15305965Y-27377830D01*
X15305967Y-27377834D01*
X15441501Y-27571395D01*
X15441506Y-27571402D01*
X15608597Y-27738493D01*
X15608603Y-27738498D01*
X15794158Y-27868425D01*
X15837783Y-27923002D01*
X15844977Y-27992500D01*
X15813454Y-28054855D01*
X15794158Y-28071575D01*
X15608597Y-28201505D01*
X15441505Y-28368597D01*
X15305965Y-28562169D01*
X15305964Y-28562171D01*
X15206098Y-28776335D01*
X15206094Y-28776344D01*
X15144938Y-29004586D01*
X15144936Y-29004596D01*
X15124341Y-29239999D01*
X15124341Y-29240000D01*
X15144936Y-29475403D01*
X15144938Y-29475413D01*
X15206094Y-29703655D01*
X15206096Y-29703659D01*
X15206097Y-29703663D01*
X15277724Y-29857267D01*
X15305965Y-29917830D01*
X15305967Y-29917834D01*
X15407966Y-30063502D01*
X15420499Y-30081402D01*
X15441501Y-30111395D01*
X15441506Y-30111402D01*
X15608597Y-30278493D01*
X15608603Y-30278498D01*
X15794158Y-30408425D01*
X15837783Y-30463002D01*
X15844977Y-30532500D01*
X15813454Y-30594855D01*
X15794158Y-30611575D01*
X15608597Y-30741505D01*
X15441505Y-30908597D01*
X15305965Y-31102169D01*
X15305964Y-31102171D01*
X15206098Y-31316335D01*
X15206094Y-31316344D01*
X15144938Y-31544586D01*
X15144936Y-31544596D01*
X15124341Y-31779999D01*
X15124341Y-31780000D01*
X15144936Y-32015403D01*
X15144938Y-32015413D01*
X15206094Y-32243655D01*
X15206096Y-32243659D01*
X15206097Y-32243663D01*
X15267213Y-32374726D01*
X15305965Y-32457830D01*
X15305967Y-32457834D01*
X15414281Y-32612521D01*
X15439014Y-32647844D01*
X15441501Y-32651395D01*
X15441506Y-32651402D01*
X15608597Y-32818493D01*
X15608603Y-32818498D01*
X15794158Y-32948425D01*
X15837783Y-33003002D01*
X15844977Y-33072500D01*
X15813454Y-33134855D01*
X15794158Y-33151575D01*
X15608597Y-33281505D01*
X15441505Y-33448597D01*
X15305965Y-33642169D01*
X15305964Y-33642171D01*
X15206098Y-33856335D01*
X15206094Y-33856344D01*
X15144938Y-34084586D01*
X15144936Y-34084596D01*
X15124341Y-34319999D01*
X15124341Y-34320000D01*
X15144936Y-34555403D01*
X15144938Y-34555413D01*
X15206094Y-34783655D01*
X15206096Y-34783659D01*
X15206097Y-34783663D01*
X15277724Y-34937267D01*
X15305965Y-34997830D01*
X15305967Y-34997834D01*
X15441501Y-35191395D01*
X15441506Y-35191402D01*
X15608597Y-35358493D01*
X15608603Y-35358498D01*
X15794158Y-35488425D01*
X15837783Y-35543002D01*
X15844977Y-35612500D01*
X15813454Y-35674855D01*
X15794158Y-35691575D01*
X15608597Y-35821505D01*
X15441505Y-35988597D01*
X15305965Y-36182169D01*
X15305964Y-36182171D01*
X15206098Y-36396335D01*
X15206094Y-36396344D01*
X15144938Y-36624586D01*
X15144936Y-36624596D01*
X15124341Y-36859999D01*
X15124341Y-36860000D01*
X15144936Y-37095403D01*
X15144938Y-37095413D01*
X15206094Y-37323655D01*
X15206096Y-37323659D01*
X15206097Y-37323663D01*
X15277724Y-37477267D01*
X15305965Y-37537830D01*
X15305967Y-37537834D01*
X15397796Y-37668978D01*
X15441505Y-37731401D01*
X15608599Y-37898495D01*
X15615473Y-37903308D01*
X15802165Y-38034032D01*
X15802167Y-38034033D01*
X15802170Y-38034035D01*
X16016337Y-38133903D01*
X16244592Y-38195063D01*
X16432918Y-38211539D01*
X16479999Y-38215659D01*
X16480000Y-38215659D01*
X16480001Y-38215659D01*
X16519234Y-38212226D01*
X16715408Y-38195063D01*
X16943663Y-38133903D01*
X16952031Y-38130001D01*
X29144532Y-38130001D01*
X29164364Y-38356686D01*
X29164366Y-38356697D01*
X29223258Y-38576488D01*
X29223261Y-38576497D01*
X29319431Y-38782732D01*
X29319432Y-38782734D01*
X29449954Y-38969141D01*
X29610858Y-39130045D01*
X29610861Y-39130047D01*
X29797266Y-39260568D01*
X30003504Y-39356739D01*
X30223308Y-39415635D01*
X30385230Y-39429801D01*
X30449998Y-39435468D01*
X30450000Y-39435468D01*
X30450002Y-39435468D01*
X30506672Y-39430509D01*
X30676692Y-39415635D01*
X30896496Y-39356739D01*
X31102734Y-39260568D01*
X31289139Y-39130047D01*
X31450047Y-38969139D01*
X31580568Y-38782734D01*
X31676739Y-38576496D01*
X31735635Y-38356692D01*
X31755468Y-38130001D01*
X34224532Y-38130001D01*
X34244364Y-38356686D01*
X34244366Y-38356697D01*
X34303258Y-38576488D01*
X34303261Y-38576497D01*
X34399431Y-38782732D01*
X34399432Y-38782734D01*
X34529954Y-38969141D01*
X34690858Y-39130045D01*
X34690861Y-39130047D01*
X34877266Y-39260568D01*
X35083504Y-39356739D01*
X35303308Y-39415635D01*
X35465230Y-39429801D01*
X35529998Y-39435468D01*
X35530000Y-39435468D01*
X35530002Y-39435468D01*
X35586672Y-39430509D01*
X35756692Y-39415635D01*
X35976496Y-39356739D01*
X36182734Y-39260568D01*
X36369139Y-39130047D01*
X36530047Y-38969139D01*
X36660568Y-38782734D01*
X36756739Y-38576496D01*
X36815635Y-38356692D01*
X36835468Y-38130000D01*
X36833175Y-38103796D01*
X36827072Y-38034032D01*
X36815635Y-37903308D01*
X36763268Y-37707870D01*
X54589500Y-37707870D01*
X54589501Y-37707876D01*
X54595908Y-37767483D01*
X54646202Y-37902328D01*
X54646206Y-37902335D01*
X54732452Y-38017544D01*
X54732455Y-38017547D01*
X54847664Y-38103793D01*
X54847671Y-38103797D01*
X54982517Y-38154091D01*
X54982516Y-38154091D01*
X54989444Y-38154835D01*
X55042127Y-38160500D01*
X56737872Y-38160499D01*
X56797483Y-38154091D01*
X56932331Y-38103796D01*
X57047546Y-38017546D01*
X57133796Y-37902331D01*
X57184091Y-37767483D01*
X57184092Y-37767472D01*
X57185365Y-37762088D01*
X57219933Y-37701369D01*
X57281841Y-37668978D01*
X57351433Y-37675199D01*
X57393725Y-37702912D01*
X57550858Y-37860045D01*
X57550861Y-37860047D01*
X57737266Y-37990568D01*
X57943504Y-38086739D01*
X58163308Y-38145635D01*
X58325230Y-38159801D01*
X58389998Y-38165468D01*
X58390000Y-38165468D01*
X58390002Y-38165468D01*
X58446807Y-38160498D01*
X58616692Y-38145635D01*
X58836496Y-38086739D01*
X59042734Y-37990568D01*
X59229139Y-37860047D01*
X59390047Y-37699139D01*
X59520568Y-37512734D01*
X59616739Y-37306496D01*
X59675635Y-37086692D01*
X59695468Y-36860000D01*
X59675635Y-36633308D01*
X59616739Y-36413504D01*
X59520568Y-36207266D01*
X59390047Y-36020861D01*
X59390045Y-36020858D01*
X59229141Y-35859954D01*
X59042734Y-35729432D01*
X59042732Y-35729431D01*
X58836497Y-35633261D01*
X58836488Y-35633258D01*
X58616697Y-35574366D01*
X58616693Y-35574365D01*
X58616692Y-35574365D01*
X58616691Y-35574364D01*
X58616686Y-35574364D01*
X58390002Y-35554532D01*
X58389998Y-35554532D01*
X58163313Y-35574364D01*
X58163302Y-35574366D01*
X57943511Y-35633258D01*
X57943502Y-35633261D01*
X57737267Y-35729431D01*
X57737265Y-35729432D01*
X57550862Y-35859951D01*
X57393726Y-36017087D01*
X57332403Y-36050571D01*
X57262711Y-36045587D01*
X57206778Y-36003715D01*
X57185369Y-35957923D01*
X57184091Y-35952518D01*
X57133797Y-35817671D01*
X57133793Y-35817664D01*
X57047547Y-35702455D01*
X57047544Y-35702452D01*
X56932335Y-35616206D01*
X56932328Y-35616202D01*
X56797482Y-35565908D01*
X56797483Y-35565908D01*
X56737883Y-35559501D01*
X56737881Y-35559500D01*
X56737873Y-35559500D01*
X56737864Y-35559500D01*
X55042129Y-35559500D01*
X55042123Y-35559501D01*
X54982516Y-35565908D01*
X54847671Y-35616202D01*
X54847664Y-35616206D01*
X54732455Y-35702452D01*
X54732452Y-35702455D01*
X54646206Y-35817664D01*
X54646202Y-35817671D01*
X54595908Y-35952517D01*
X54589501Y-36012116D01*
X54589500Y-36012135D01*
X54589500Y-37707870D01*
X36763268Y-37707870D01*
X36756739Y-37683504D01*
X36660568Y-37477266D01*
X36530047Y-37290861D01*
X36530045Y-37290858D01*
X36369141Y-37129954D01*
X36182735Y-36999433D01*
X36182736Y-36999433D01*
X36182734Y-36999432D01*
X36124722Y-36972380D01*
X36072284Y-36926208D01*
X36053133Y-36859014D01*
X36073349Y-36792133D01*
X36124721Y-36747619D01*
X36182734Y-36720568D01*
X36369139Y-36590047D01*
X36530047Y-36429139D01*
X36660568Y-36242734D01*
X36756739Y-36036496D01*
X36815635Y-35816692D01*
X36835468Y-35590000D01*
X36815635Y-35363308D01*
X36756739Y-35143504D01*
X36660568Y-34937266D01*
X36530047Y-34750861D01*
X36530045Y-34750858D01*
X36369141Y-34589954D01*
X36182734Y-34459432D01*
X36182732Y-34459431D01*
X35976497Y-34363261D01*
X35976488Y-34363258D01*
X35756697Y-34304366D01*
X35756693Y-34304365D01*
X35756692Y-34304365D01*
X35756691Y-34304364D01*
X35756686Y-34304364D01*
X35530002Y-34284532D01*
X35529998Y-34284532D01*
X35303313Y-34304364D01*
X35303302Y-34304366D01*
X35083511Y-34363258D01*
X35083502Y-34363261D01*
X34877267Y-34459431D01*
X34877265Y-34459432D01*
X34690858Y-34589954D01*
X34529954Y-34750858D01*
X34399432Y-34937265D01*
X34399431Y-34937267D01*
X34303261Y-35143502D01*
X34303258Y-35143511D01*
X34244366Y-35363302D01*
X34244364Y-35363313D01*
X34224532Y-35589998D01*
X34224532Y-35590001D01*
X34244364Y-35816686D01*
X34244366Y-35816697D01*
X34303258Y-36036488D01*
X34303261Y-36036497D01*
X34399431Y-36242732D01*
X34399432Y-36242734D01*
X34529954Y-36429141D01*
X34690858Y-36590045D01*
X34690861Y-36590047D01*
X34877266Y-36720568D01*
X34935275Y-36747618D01*
X34987714Y-36793791D01*
X35006866Y-36860984D01*
X34986650Y-36927865D01*
X34935275Y-36972382D01*
X34877267Y-36999431D01*
X34877265Y-36999432D01*
X34690858Y-37129954D01*
X34529954Y-37290858D01*
X34399432Y-37477265D01*
X34399431Y-37477267D01*
X34303261Y-37683502D01*
X34303258Y-37683511D01*
X34244366Y-37903302D01*
X34244364Y-37903313D01*
X34224532Y-38129998D01*
X34224532Y-38130001D01*
X31755468Y-38130001D01*
X31755468Y-38130000D01*
X31753175Y-38103796D01*
X31747072Y-38034032D01*
X31735635Y-37903308D01*
X31676739Y-37683504D01*
X31580568Y-37477266D01*
X31450047Y-37290861D01*
X31450045Y-37290858D01*
X31289141Y-37129954D01*
X31102734Y-36999432D01*
X31102728Y-36999429D01*
X31044725Y-36972382D01*
X30992285Y-36926210D01*
X30973133Y-36859017D01*
X30993348Y-36792135D01*
X31044725Y-36747618D01*
X31102734Y-36720568D01*
X31289139Y-36590047D01*
X31450047Y-36429139D01*
X31580568Y-36242734D01*
X31676739Y-36036496D01*
X31735635Y-35816692D01*
X31755468Y-35590000D01*
X31735635Y-35363308D01*
X31676739Y-35143504D01*
X31580568Y-34937266D01*
X31450047Y-34750861D01*
X31450045Y-34750858D01*
X31289141Y-34589954D01*
X31102734Y-34459432D01*
X31102732Y-34459431D01*
X30896497Y-34363261D01*
X30896488Y-34363258D01*
X30676697Y-34304366D01*
X30676693Y-34304365D01*
X30676692Y-34304365D01*
X30676691Y-34304364D01*
X30676686Y-34304364D01*
X30450002Y-34284532D01*
X30449998Y-34284532D01*
X30223313Y-34304364D01*
X30223302Y-34304366D01*
X30003511Y-34363258D01*
X30003502Y-34363261D01*
X29797267Y-34459431D01*
X29797265Y-34459432D01*
X29610858Y-34589954D01*
X29449954Y-34750858D01*
X29319432Y-34937265D01*
X29319431Y-34937267D01*
X29223261Y-35143502D01*
X29223258Y-35143511D01*
X29164366Y-35363302D01*
X29164364Y-35363313D01*
X29144532Y-35589998D01*
X29144532Y-35590001D01*
X29164364Y-35816686D01*
X29164366Y-35816697D01*
X29223258Y-36036488D01*
X29223261Y-36036497D01*
X29319431Y-36242732D01*
X29319432Y-36242734D01*
X29449954Y-36429141D01*
X29610858Y-36590045D01*
X29610861Y-36590047D01*
X29797266Y-36720568D01*
X29855275Y-36747618D01*
X29907714Y-36793791D01*
X29926866Y-36860984D01*
X29906650Y-36927865D01*
X29855275Y-36972382D01*
X29797267Y-36999431D01*
X29797265Y-36999432D01*
X29610858Y-37129954D01*
X29449954Y-37290858D01*
X29319432Y-37477265D01*
X29319431Y-37477267D01*
X29223261Y-37683502D01*
X29223258Y-37683511D01*
X29164366Y-37903302D01*
X29164364Y-37903313D01*
X29144532Y-38129998D01*
X29144532Y-38130001D01*
X16952031Y-38130001D01*
X17157830Y-38034035D01*
X17351401Y-37898495D01*
X17518495Y-37731401D01*
X17654035Y-37537830D01*
X17753903Y-37323663D01*
X17815063Y-37095408D01*
X17835659Y-36860000D01*
X17815063Y-36624592D01*
X17753903Y-36396337D01*
X17654035Y-36182171D01*
X17558399Y-36045587D01*
X17518494Y-35988597D01*
X17351402Y-35821506D01*
X17351396Y-35821501D01*
X17165842Y-35691575D01*
X17122217Y-35636998D01*
X17115023Y-35567500D01*
X17146546Y-35505145D01*
X17165842Y-35488425D01*
X17344527Y-35363308D01*
X17351401Y-35358495D01*
X17518495Y-35191401D01*
X17654035Y-34997830D01*
X17753903Y-34783663D01*
X17815063Y-34555408D01*
X17835659Y-34320000D01*
X17815063Y-34084592D01*
X17753903Y-33856337D01*
X17654035Y-33642171D01*
X17518495Y-33448599D01*
X17518494Y-33448597D01*
X17351402Y-33281506D01*
X17351396Y-33281501D01*
X17165842Y-33151575D01*
X17122217Y-33096998D01*
X17115023Y-33027500D01*
X17146546Y-32965145D01*
X17165842Y-32948425D01*
X17219909Y-32910567D01*
X17351401Y-32818495D01*
X17518495Y-32651401D01*
X17654035Y-32457830D01*
X17753903Y-32243663D01*
X17815063Y-32015408D01*
X17835659Y-31780001D01*
X26604532Y-31780001D01*
X26624364Y-32006686D01*
X26624366Y-32006697D01*
X26683258Y-32226488D01*
X26683261Y-32226497D01*
X26779431Y-32432732D01*
X26779432Y-32432734D01*
X26909954Y-32619141D01*
X27070858Y-32780045D01*
X27070861Y-32780047D01*
X27257266Y-32910568D01*
X27463504Y-33006739D01*
X27683308Y-33065635D01*
X27845230Y-33079801D01*
X27909998Y-33085468D01*
X27910000Y-33085468D01*
X27910002Y-33085468D01*
X27966673Y-33080509D01*
X28136692Y-33065635D01*
X28356496Y-33006739D01*
X28562734Y-32910568D01*
X28749139Y-32780047D01*
X28910047Y-32619139D01*
X29040568Y-32432734D01*
X29067619Y-32374721D01*
X29113788Y-32322286D01*
X29180981Y-32303133D01*
X29247862Y-32323348D01*
X29292380Y-32374722D01*
X29319432Y-32432734D01*
X29319433Y-32432735D01*
X29449954Y-32619141D01*
X29610858Y-32780045D01*
X29610861Y-32780047D01*
X29797266Y-32910568D01*
X30003504Y-33006739D01*
X30223308Y-33065635D01*
X30385230Y-33079801D01*
X30449998Y-33085468D01*
X30450000Y-33085468D01*
X30450002Y-33085468D01*
X30506672Y-33080509D01*
X30676692Y-33065635D01*
X30896496Y-33006739D01*
X31102734Y-32910568D01*
X31289139Y-32780047D01*
X31450047Y-32619139D01*
X31580568Y-32432734D01*
X31607619Y-32374721D01*
X31653788Y-32322286D01*
X31720981Y-32303133D01*
X31787862Y-32323348D01*
X31832380Y-32374722D01*
X31859432Y-32432734D01*
X31859433Y-32432735D01*
X31989954Y-32619141D01*
X32150858Y-32780045D01*
X32150861Y-32780047D01*
X32337266Y-32910568D01*
X32543504Y-33006739D01*
X32763308Y-33065635D01*
X32925230Y-33079801D01*
X32989998Y-33085468D01*
X32990000Y-33085468D01*
X32990002Y-33085468D01*
X33046672Y-33080509D01*
X33216692Y-33065635D01*
X33436496Y-33006739D01*
X33642734Y-32910568D01*
X33829139Y-32780047D01*
X33990047Y-32619139D01*
X34120568Y-32432734D01*
X34147618Y-32374724D01*
X34193790Y-32322285D01*
X34260983Y-32303133D01*
X34327865Y-32323348D01*
X34372382Y-32374725D01*
X34399429Y-32432728D01*
X34399432Y-32432734D01*
X34529954Y-32619141D01*
X34690858Y-32780045D01*
X34690861Y-32780047D01*
X34877266Y-32910568D01*
X35083504Y-33006739D01*
X35303308Y-33065635D01*
X35465230Y-33079801D01*
X35529998Y-33085468D01*
X35530000Y-33085468D01*
X35530002Y-33085468D01*
X35586672Y-33080509D01*
X35756692Y-33065635D01*
X35976496Y-33006739D01*
X36182734Y-32910568D01*
X36369139Y-32780047D01*
X36530047Y-32619139D01*
X36660568Y-32432734D01*
X36687618Y-32374724D01*
X36733790Y-32322285D01*
X36800983Y-32303133D01*
X36867865Y-32323348D01*
X36912382Y-32374725D01*
X36939429Y-32432728D01*
X36939432Y-32432734D01*
X37069954Y-32619141D01*
X37230858Y-32780045D01*
X37230861Y-32780047D01*
X37417266Y-32910568D01*
X37623504Y-33006739D01*
X37843308Y-33065635D01*
X38005230Y-33079801D01*
X38069998Y-33085468D01*
X38070000Y-33085468D01*
X38070002Y-33085468D01*
X38126673Y-33080509D01*
X38296692Y-33065635D01*
X38516496Y-33006739D01*
X38722734Y-32910568D01*
X38909139Y-32780047D01*
X39070047Y-32619139D01*
X39200568Y-32432734D01*
X39227618Y-32374724D01*
X39273790Y-32322285D01*
X39340983Y-32303133D01*
X39407865Y-32323348D01*
X39452382Y-32374725D01*
X39479429Y-32432728D01*
X39479432Y-32432734D01*
X39609954Y-32619141D01*
X39770858Y-32780045D01*
X39770861Y-32780047D01*
X39957266Y-32910568D01*
X40163504Y-33006739D01*
X40383308Y-33065635D01*
X40545230Y-33079801D01*
X40609998Y-33085468D01*
X40610000Y-33085468D01*
X40610002Y-33085468D01*
X40666672Y-33080509D01*
X40836692Y-33065635D01*
X41056496Y-33006739D01*
X41262734Y-32910568D01*
X41449139Y-32780047D01*
X41610047Y-32619139D01*
X41740568Y-32432734D01*
X41767618Y-32374724D01*
X41813790Y-32322285D01*
X41880983Y-32303133D01*
X41947865Y-32323348D01*
X41992382Y-32374725D01*
X42019429Y-32432728D01*
X42019432Y-32432734D01*
X42149954Y-32619141D01*
X42310858Y-32780045D01*
X42310861Y-32780047D01*
X42497266Y-32910568D01*
X42703504Y-33006739D01*
X42923308Y-33065635D01*
X43085230Y-33079801D01*
X43149998Y-33085468D01*
X43150000Y-33085468D01*
X43150002Y-33085468D01*
X43206672Y-33080509D01*
X43376692Y-33065635D01*
X43596496Y-33006739D01*
X43802734Y-32910568D01*
X43989139Y-32780047D01*
X44150047Y-32619139D01*
X44280568Y-32432734D01*
X44307618Y-32374724D01*
X44353790Y-32322285D01*
X44420983Y-32303133D01*
X44487865Y-32323348D01*
X44532382Y-32374725D01*
X44559429Y-32432728D01*
X44559432Y-32432734D01*
X44689954Y-32619141D01*
X44850858Y-32780045D01*
X44850861Y-32780047D01*
X45037266Y-32910568D01*
X45243504Y-33006739D01*
X45463308Y-33065635D01*
X45625230Y-33079801D01*
X45689998Y-33085468D01*
X45690000Y-33085468D01*
X45690002Y-33085468D01*
X45746672Y-33080509D01*
X45916692Y-33065635D01*
X46136496Y-33006739D01*
X46342734Y-32910568D01*
X46529139Y-32780047D01*
X46690047Y-32619139D01*
X46820568Y-32432734D01*
X46916739Y-32226496D01*
X46975635Y-32006692D01*
X46995468Y-31780000D01*
X46975635Y-31553308D01*
X46916739Y-31333504D01*
X46820568Y-31127266D01*
X46690047Y-30940861D01*
X46690045Y-30940858D01*
X46529141Y-30779954D01*
X46342734Y-30649432D01*
X46342732Y-30649431D01*
X46136497Y-30553261D01*
X46136488Y-30553258D01*
X45975052Y-30510002D01*
X49465034Y-30510002D01*
X49484858Y-30736599D01*
X49484860Y-30736610D01*
X49543730Y-30956317D01*
X49543734Y-30956326D01*
X49639865Y-31162481D01*
X49639866Y-31162483D01*
X49690973Y-31235471D01*
X49690973Y-31235472D01*
X50372045Y-30554399D01*
X50384835Y-30635148D01*
X50442359Y-30748045D01*
X50531955Y-30837641D01*
X50644852Y-30895165D01*
X50725599Y-30907953D01*
X50044526Y-31589025D01*
X50044526Y-31589026D01*
X50117512Y-31640131D01*
X50117516Y-31640133D01*
X50323673Y-31736265D01*
X50323682Y-31736269D01*
X50543389Y-31795139D01*
X50543400Y-31795141D01*
X50769998Y-31814966D01*
X50770002Y-31814966D01*
X50996599Y-31795141D01*
X50996610Y-31795139D01*
X51216317Y-31736269D01*
X51216331Y-31736264D01*
X51422478Y-31640136D01*
X51495472Y-31589025D01*
X50814401Y-30907953D01*
X50895148Y-30895165D01*
X51008045Y-30837641D01*
X51097641Y-30748045D01*
X51155165Y-30635148D01*
X51167953Y-30554399D01*
X51849025Y-31235472D01*
X51900133Y-31162482D01*
X51927341Y-31104135D01*
X51973513Y-31051696D01*
X52040707Y-31032543D01*
X52107588Y-31052758D01*
X52152105Y-31104132D01*
X52179432Y-31162734D01*
X52179433Y-31162735D01*
X52309954Y-31349141D01*
X52470858Y-31510045D01*
X52470861Y-31510047D01*
X52657266Y-31640568D01*
X52863504Y-31736739D01*
X53083308Y-31795635D01*
X53245230Y-31809801D01*
X53309998Y-31815468D01*
X53310000Y-31815468D01*
X53310002Y-31815468D01*
X53366673Y-31810509D01*
X53536692Y-31795635D01*
X53756496Y-31736739D01*
X53962734Y-31640568D01*
X54149139Y-31510047D01*
X54310047Y-31349139D01*
X54440568Y-31162734D01*
X54467618Y-31104724D01*
X54513790Y-31052285D01*
X54580983Y-31033133D01*
X54647865Y-31053348D01*
X54692381Y-31104724D01*
X54702892Y-31127265D01*
X54719429Y-31162728D01*
X54719432Y-31162734D01*
X54849954Y-31349141D01*
X55010858Y-31510045D01*
X55010861Y-31510047D01*
X55197266Y-31640568D01*
X55403504Y-31736739D01*
X55623308Y-31795635D01*
X55785230Y-31809801D01*
X55849998Y-31815468D01*
X55850000Y-31815468D01*
X55850002Y-31815468D01*
X55906672Y-31810509D01*
X56076692Y-31795635D01*
X56296496Y-31736739D01*
X56502734Y-31640568D01*
X56689139Y-31510047D01*
X56850047Y-31349139D01*
X56980568Y-31162734D01*
X57007618Y-31104724D01*
X57053790Y-31052285D01*
X57120983Y-31033133D01*
X57187865Y-31053348D01*
X57232381Y-31104724D01*
X57242892Y-31127265D01*
X57259429Y-31162728D01*
X57259432Y-31162734D01*
X57389954Y-31349141D01*
X57550858Y-31510045D01*
X57550861Y-31510047D01*
X57737266Y-31640568D01*
X57943504Y-31736739D01*
X58163308Y-31795635D01*
X58325230Y-31809801D01*
X58389998Y-31815468D01*
X58390000Y-31815468D01*
X58390002Y-31815468D01*
X58446672Y-31810509D01*
X58616692Y-31795635D01*
X58836496Y-31736739D01*
X59042734Y-31640568D01*
X59229139Y-31510047D01*
X59390047Y-31349139D01*
X59520568Y-31162734D01*
X59616739Y-30956496D01*
X59675635Y-30736692D01*
X59695468Y-30510000D01*
X59675635Y-30283308D01*
X59621535Y-30081402D01*
X59616741Y-30063511D01*
X59616738Y-30063502D01*
X59572071Y-29967714D01*
X59520568Y-29857266D01*
X59390047Y-29670861D01*
X59390045Y-29670858D01*
X59229141Y-29509954D01*
X59042734Y-29379432D01*
X59042732Y-29379431D01*
X58836497Y-29283261D01*
X58836488Y-29283258D01*
X58616697Y-29224366D01*
X58616693Y-29224365D01*
X58616692Y-29224365D01*
X58616691Y-29224364D01*
X58616686Y-29224364D01*
X58452502Y-29210000D01*
X62114341Y-29210000D01*
X62134936Y-29445403D01*
X62134938Y-29445413D01*
X62196094Y-29673655D01*
X62196096Y-29673659D01*
X62196097Y-29673663D01*
X62285234Y-29864818D01*
X62295965Y-29887830D01*
X62295967Y-29887834D01*
X62369870Y-29993377D01*
X62431501Y-30081396D01*
X62431506Y-30081402D01*
X62553818Y-30203714D01*
X62587303Y-30265037D01*
X62582319Y-30334729D01*
X62540447Y-30390662D01*
X62509471Y-30407577D01*
X62377912Y-30456646D01*
X62377906Y-30456649D01*
X62262812Y-30542809D01*
X62262809Y-30542812D01*
X62176649Y-30657906D01*
X62176645Y-30657913D01*
X62126403Y-30792620D01*
X62126401Y-30792627D01*
X62120000Y-30852155D01*
X62120000Y-31500000D01*
X63036314Y-31500000D01*
X63010507Y-31540156D01*
X62970000Y-31678111D01*
X62970000Y-31821889D01*
X63010507Y-31959844D01*
X63036314Y-32000000D01*
X62120000Y-32000000D01*
X62120000Y-32647844D01*
X62126401Y-32707372D01*
X62126403Y-32707379D01*
X62176645Y-32842086D01*
X62176649Y-32842093D01*
X62262809Y-32957187D01*
X62262812Y-32957190D01*
X62377906Y-33043350D01*
X62377913Y-33043354D01*
X62512620Y-33093596D01*
X62512627Y-33093598D01*
X62572155Y-33099999D01*
X62572172Y-33100000D01*
X63220000Y-33100000D01*
X63220000Y-32185501D01*
X63327685Y-32234680D01*
X63434237Y-32250000D01*
X63505763Y-32250000D01*
X63612315Y-32234680D01*
X63720000Y-32185501D01*
X63720000Y-33100000D01*
X64367828Y-33100000D01*
X64367844Y-33099999D01*
X64427372Y-33093598D01*
X64427379Y-33093596D01*
X64562086Y-33043354D01*
X64562093Y-33043350D01*
X64677187Y-32957190D01*
X64677190Y-32957187D01*
X64763350Y-32842093D01*
X64763354Y-32842086D01*
X64813596Y-32707379D01*
X64813598Y-32707372D01*
X64819999Y-32647844D01*
X64820000Y-32647827D01*
X64820000Y-32000000D01*
X63903686Y-32000000D01*
X63929493Y-31959844D01*
X63970000Y-31821889D01*
X63970000Y-31678111D01*
X63929493Y-31540156D01*
X63903686Y-31500000D01*
X64820000Y-31500000D01*
X64820000Y-30852172D01*
X64819999Y-30852155D01*
X64813598Y-30792627D01*
X64813596Y-30792620D01*
X64763354Y-30657913D01*
X64763350Y-30657906D01*
X64677190Y-30542812D01*
X64677187Y-30542809D01*
X64562093Y-30456649D01*
X64562088Y-30456646D01*
X64430528Y-30407577D01*
X64374595Y-30365705D01*
X64350178Y-30300241D01*
X64365030Y-30231968D01*
X64386175Y-30203720D01*
X64508495Y-30081401D01*
X64644035Y-29887830D01*
X64743903Y-29673663D01*
X64805063Y-29445408D01*
X64825659Y-29210000D01*
X64805063Y-28974592D01*
X64743903Y-28746337D01*
X64644035Y-28532171D01*
X64635384Y-28519815D01*
X64508494Y-28338597D01*
X64341402Y-28171506D01*
X64341401Y-28171505D01*
X64155405Y-28041269D01*
X64111781Y-27986692D01*
X64104588Y-27917193D01*
X64136110Y-27854839D01*
X64155405Y-27838119D01*
X64341082Y-27708105D01*
X64508105Y-27541082D01*
X64643600Y-27347578D01*
X64743429Y-27133492D01*
X64743432Y-27133486D01*
X64800636Y-26920000D01*
X63903686Y-26920000D01*
X63929493Y-26879844D01*
X63970000Y-26741889D01*
X63970000Y-26598111D01*
X63929493Y-26460156D01*
X63903686Y-26420000D01*
X64800636Y-26420000D01*
X64800635Y-26419999D01*
X64743432Y-26206513D01*
X64743429Y-26206507D01*
X64643600Y-25992422D01*
X64643599Y-25992420D01*
X64508113Y-25798926D01*
X64508108Y-25798920D01*
X64341078Y-25631890D01*
X64155405Y-25501879D01*
X64111780Y-25447302D01*
X64104588Y-25377804D01*
X64136110Y-25315449D01*
X64155406Y-25298730D01*
X64167064Y-25290567D01*
X64341401Y-25168495D01*
X64508495Y-25001401D01*
X64644035Y-24807830D01*
X64743903Y-24593663D01*
X64805063Y-24365408D01*
X64825659Y-24130000D01*
X64822770Y-24096985D01*
X64812753Y-23982489D01*
X64805063Y-23894592D01*
X64743903Y-23666337D01*
X64644035Y-23452171D01*
X64643614Y-23451569D01*
X64508494Y-23258597D01*
X64341402Y-23091506D01*
X64341395Y-23091501D01*
X64147834Y-22955967D01*
X64147830Y-22955965D01*
X64053965Y-22912195D01*
X63933663Y-22856097D01*
X63933659Y-22856096D01*
X63933655Y-22856094D01*
X63705413Y-22794938D01*
X63705403Y-22794936D01*
X63470001Y-22774341D01*
X63469999Y-22774341D01*
X63234596Y-22794936D01*
X63234586Y-22794938D01*
X63006344Y-22856094D01*
X63006335Y-22856098D01*
X62792171Y-22955964D01*
X62792169Y-22955965D01*
X62598597Y-23091505D01*
X62431505Y-23258597D01*
X62295965Y-23452169D01*
X62295964Y-23452171D01*
X62196098Y-23666335D01*
X62196094Y-23666344D01*
X62134938Y-23894586D01*
X62134936Y-23894596D01*
X62114341Y-24129999D01*
X62114341Y-24130000D01*
X62134936Y-24365403D01*
X62134938Y-24365413D01*
X62196094Y-24593655D01*
X62196096Y-24593659D01*
X62196097Y-24593663D01*
X62281828Y-24777513D01*
X62295965Y-24807830D01*
X62295967Y-24807834D01*
X62431501Y-25001395D01*
X62431506Y-25001402D01*
X62598597Y-25168493D01*
X62598603Y-25168498D01*
X62641443Y-25198495D01*
X62772934Y-25290566D01*
X62784594Y-25298730D01*
X62828219Y-25353307D01*
X62835413Y-25422805D01*
X62803890Y-25485160D01*
X62784595Y-25501880D01*
X62598922Y-25631890D01*
X62598920Y-25631891D01*
X62431891Y-25798920D01*
X62431886Y-25798926D01*
X62296400Y-25992420D01*
X62296399Y-25992422D01*
X62196570Y-26206507D01*
X62196567Y-26206513D01*
X62139364Y-26419999D01*
X62139364Y-26420000D01*
X63036314Y-26420000D01*
X63010507Y-26460156D01*
X62970000Y-26598111D01*
X62970000Y-26741889D01*
X63010507Y-26879844D01*
X63036314Y-26920000D01*
X62139364Y-26920000D01*
X62196567Y-27133486D01*
X62196570Y-27133492D01*
X62296399Y-27347578D01*
X62431894Y-27541082D01*
X62598917Y-27708105D01*
X62784595Y-27838119D01*
X62828219Y-27892696D01*
X62835412Y-27962195D01*
X62803890Y-28024549D01*
X62784595Y-28041269D01*
X62598594Y-28171508D01*
X62431505Y-28338597D01*
X62295965Y-28532169D01*
X62295964Y-28532171D01*
X62196098Y-28746335D01*
X62196094Y-28746344D01*
X62134938Y-28974586D01*
X62134936Y-28974596D01*
X62114341Y-29209999D01*
X62114341Y-29210000D01*
X58452502Y-29210000D01*
X58390002Y-29204532D01*
X58389998Y-29204532D01*
X58163313Y-29224364D01*
X58163302Y-29224366D01*
X57943511Y-29283258D01*
X57943502Y-29283261D01*
X57737267Y-29379431D01*
X57737265Y-29379432D01*
X57550858Y-29509954D01*
X57389954Y-29670858D01*
X57259432Y-29857265D01*
X57259431Y-29857267D01*
X57232382Y-29915275D01*
X57186209Y-29967714D01*
X57119016Y-29986866D01*
X57052135Y-29966650D01*
X57007618Y-29915275D01*
X57006881Y-29913695D01*
X56980568Y-29857266D01*
X56850047Y-29670861D01*
X56850045Y-29670858D01*
X56689141Y-29509954D01*
X56502734Y-29379432D01*
X56502732Y-29379431D01*
X56296497Y-29283261D01*
X56296488Y-29283258D01*
X56076697Y-29224366D01*
X56076693Y-29224365D01*
X56076692Y-29224365D01*
X56076691Y-29224364D01*
X56076686Y-29224364D01*
X55850002Y-29204532D01*
X55849998Y-29204532D01*
X55623313Y-29224364D01*
X55623302Y-29224366D01*
X55403511Y-29283258D01*
X55403502Y-29283261D01*
X55197267Y-29379431D01*
X55197265Y-29379432D01*
X55010858Y-29509954D01*
X54849954Y-29670858D01*
X54719432Y-29857265D01*
X54719431Y-29857267D01*
X54692382Y-29915275D01*
X54646209Y-29967714D01*
X54579016Y-29986866D01*
X54512135Y-29966650D01*
X54467618Y-29915275D01*
X54466881Y-29913695D01*
X54440568Y-29857266D01*
X54310047Y-29670861D01*
X54310045Y-29670858D01*
X54149141Y-29509954D01*
X53962734Y-29379432D01*
X53962732Y-29379431D01*
X53756497Y-29283261D01*
X53756488Y-29283258D01*
X53536697Y-29224366D01*
X53536693Y-29224365D01*
X53536692Y-29224365D01*
X53536691Y-29224364D01*
X53536686Y-29224364D01*
X53310002Y-29204532D01*
X53309998Y-29204532D01*
X53083313Y-29224364D01*
X53083302Y-29224366D01*
X52863511Y-29283258D01*
X52863502Y-29283261D01*
X52657267Y-29379431D01*
X52657265Y-29379432D01*
X52470858Y-29509954D01*
X52309954Y-29670858D01*
X52215586Y-29805632D01*
X52179432Y-29857266D01*
X52164990Y-29888238D01*
X52152106Y-29915867D01*
X52105933Y-29968306D01*
X52038739Y-29987457D01*
X51971858Y-29967241D01*
X51927342Y-29915865D01*
X51900135Y-29857520D01*
X51900131Y-29857512D01*
X51849026Y-29784526D01*
X51849025Y-29784526D01*
X51167953Y-30465597D01*
X51155165Y-30384852D01*
X51097641Y-30271955D01*
X51008045Y-30182359D01*
X50895148Y-30124835D01*
X50814400Y-30112046D01*
X51495472Y-29430974D01*
X51495471Y-29430973D01*
X51422483Y-29379866D01*
X51422481Y-29379865D01*
X51216326Y-29283734D01*
X51216317Y-29283730D01*
X50996610Y-29224860D01*
X50996599Y-29224858D01*
X50770002Y-29205034D01*
X50769998Y-29205034D01*
X50543400Y-29224858D01*
X50543389Y-29224860D01*
X50323682Y-29283730D01*
X50323673Y-29283734D01*
X50117513Y-29379868D01*
X50044527Y-29430972D01*
X50044526Y-29430973D01*
X50725600Y-30112046D01*
X50644852Y-30124835D01*
X50531955Y-30182359D01*
X50442359Y-30271955D01*
X50384835Y-30384852D01*
X50372046Y-30465598D01*
X49690973Y-29784526D01*
X49639868Y-29857513D01*
X49543734Y-30063673D01*
X49543730Y-30063682D01*
X49484860Y-30283389D01*
X49484858Y-30283400D01*
X49465034Y-30509997D01*
X49465034Y-30510002D01*
X45975052Y-30510002D01*
X45916697Y-30494366D01*
X45916693Y-30494365D01*
X45916692Y-30494365D01*
X45916691Y-30494364D01*
X45916686Y-30494364D01*
X45690002Y-30474532D01*
X45689998Y-30474532D01*
X45463313Y-30494364D01*
X45463302Y-30494366D01*
X45243511Y-30553258D01*
X45243502Y-30553261D01*
X45037267Y-30649431D01*
X45037265Y-30649432D01*
X44850858Y-30779954D01*
X44689954Y-30940858D01*
X44559432Y-31127265D01*
X44559431Y-31127267D01*
X44532382Y-31185275D01*
X44486209Y-31237714D01*
X44419016Y-31256866D01*
X44352135Y-31236650D01*
X44307618Y-31185275D01*
X44307618Y-31185274D01*
X44280568Y-31127266D01*
X44150047Y-30940861D01*
X44150045Y-30940858D01*
X43989141Y-30779954D01*
X43802734Y-30649432D01*
X43802732Y-30649431D01*
X43596497Y-30553261D01*
X43596488Y-30553258D01*
X43376697Y-30494366D01*
X43376693Y-30494365D01*
X43376692Y-30494365D01*
X43376691Y-30494364D01*
X43376686Y-30494364D01*
X43150002Y-30474532D01*
X43149998Y-30474532D01*
X42923313Y-30494364D01*
X42923302Y-30494366D01*
X42703511Y-30553258D01*
X42703502Y-30553261D01*
X42497267Y-30649431D01*
X42497265Y-30649432D01*
X42310858Y-30779954D01*
X42149954Y-30940858D01*
X42019432Y-31127265D01*
X42019431Y-31127267D01*
X41992382Y-31185275D01*
X41946209Y-31237714D01*
X41879016Y-31256866D01*
X41812135Y-31236650D01*
X41767618Y-31185275D01*
X41767618Y-31185274D01*
X41740568Y-31127266D01*
X41610047Y-30940861D01*
X41610045Y-30940858D01*
X41449141Y-30779954D01*
X41262734Y-30649432D01*
X41262732Y-30649431D01*
X41056497Y-30553261D01*
X41056488Y-30553258D01*
X40836697Y-30494366D01*
X40836693Y-30494365D01*
X40836692Y-30494365D01*
X40836691Y-30494364D01*
X40836686Y-30494364D01*
X40610002Y-30474532D01*
X40609998Y-30474532D01*
X40383313Y-30494364D01*
X40383302Y-30494366D01*
X40163511Y-30553258D01*
X40163502Y-30553261D01*
X39957267Y-30649431D01*
X39957265Y-30649432D01*
X39770858Y-30779954D01*
X39609954Y-30940858D01*
X39479432Y-31127265D01*
X39479431Y-31127267D01*
X39452382Y-31185275D01*
X39406209Y-31237714D01*
X39339016Y-31256866D01*
X39272135Y-31236650D01*
X39227618Y-31185275D01*
X39227618Y-31185274D01*
X39200568Y-31127266D01*
X39070047Y-30940861D01*
X39070045Y-30940858D01*
X38909141Y-30779954D01*
X38722734Y-30649432D01*
X38722732Y-30649431D01*
X38516497Y-30553261D01*
X38516488Y-30553258D01*
X38296697Y-30494366D01*
X38296693Y-30494365D01*
X38296692Y-30494365D01*
X38296691Y-30494364D01*
X38296686Y-30494364D01*
X38070002Y-30474532D01*
X38069998Y-30474532D01*
X37843313Y-30494364D01*
X37843302Y-30494366D01*
X37623511Y-30553258D01*
X37623502Y-30553261D01*
X37417267Y-30649431D01*
X37417265Y-30649432D01*
X37230858Y-30779954D01*
X37069954Y-30940858D01*
X36939432Y-31127265D01*
X36939431Y-31127267D01*
X36912382Y-31185275D01*
X36866209Y-31237714D01*
X36799016Y-31256866D01*
X36732135Y-31236650D01*
X36687618Y-31185275D01*
X36687618Y-31185274D01*
X36660568Y-31127266D01*
X36530047Y-30940861D01*
X36530045Y-30940858D01*
X36369141Y-30779954D01*
X36182734Y-30649432D01*
X36182732Y-30649431D01*
X35976497Y-30553261D01*
X35976488Y-30553258D01*
X35756697Y-30494366D01*
X35756693Y-30494365D01*
X35756692Y-30494365D01*
X35756691Y-30494364D01*
X35756686Y-30494364D01*
X35530002Y-30474532D01*
X35529998Y-30474532D01*
X35303313Y-30494364D01*
X35303302Y-30494366D01*
X35083511Y-30553258D01*
X35083502Y-30553261D01*
X34877267Y-30649431D01*
X34877265Y-30649432D01*
X34690858Y-30779954D01*
X34529954Y-30940858D01*
X34399432Y-31127265D01*
X34399431Y-31127267D01*
X34372382Y-31185275D01*
X34326209Y-31237714D01*
X34259016Y-31256866D01*
X34192135Y-31236650D01*
X34147618Y-31185275D01*
X34147618Y-31185274D01*
X34120568Y-31127266D01*
X33990047Y-30940861D01*
X33990045Y-30940858D01*
X33829141Y-30779954D01*
X33642734Y-30649432D01*
X33642732Y-30649431D01*
X33436497Y-30553261D01*
X33436488Y-30553258D01*
X33216697Y-30494366D01*
X33216693Y-30494365D01*
X33216692Y-30494365D01*
X33216691Y-30494364D01*
X33216686Y-30494364D01*
X32990002Y-30474532D01*
X32989998Y-30474532D01*
X32763313Y-30494364D01*
X32763302Y-30494366D01*
X32543511Y-30553258D01*
X32543502Y-30553261D01*
X32337267Y-30649431D01*
X32337265Y-30649432D01*
X32150858Y-30779954D01*
X31989954Y-30940858D01*
X31859432Y-31127265D01*
X31859430Y-31127268D01*
X31832380Y-31185277D01*
X31786207Y-31237715D01*
X31719013Y-31256866D01*
X31652132Y-31236649D01*
X31607619Y-31185277D01*
X31580568Y-31127266D01*
X31562997Y-31102171D01*
X31450045Y-30940858D01*
X31289141Y-30779954D01*
X31102734Y-30649432D01*
X31102732Y-30649431D01*
X30896497Y-30553261D01*
X30896488Y-30553258D01*
X30676697Y-30494366D01*
X30676693Y-30494365D01*
X30676692Y-30494365D01*
X30676691Y-30494364D01*
X30676686Y-30494364D01*
X30450002Y-30474532D01*
X30449998Y-30474532D01*
X30223313Y-30494364D01*
X30223302Y-30494366D01*
X30003511Y-30553258D01*
X30003502Y-30553261D01*
X29797267Y-30649431D01*
X29797265Y-30649432D01*
X29610858Y-30779954D01*
X29449954Y-30940858D01*
X29319432Y-31127265D01*
X29319431Y-31127267D01*
X29292382Y-31185275D01*
X29246209Y-31237714D01*
X29179016Y-31256866D01*
X29112135Y-31236650D01*
X29067618Y-31185275D01*
X29067618Y-31185274D01*
X29040568Y-31127266D01*
X28910047Y-30940861D01*
X28910045Y-30940858D01*
X28749141Y-30779954D01*
X28562734Y-30649432D01*
X28562732Y-30649431D01*
X28356497Y-30553261D01*
X28356488Y-30553258D01*
X28136697Y-30494366D01*
X28136693Y-30494365D01*
X28136692Y-30494365D01*
X28136691Y-30494364D01*
X28136686Y-30494364D01*
X27910002Y-30474532D01*
X27909998Y-30474532D01*
X27683313Y-30494364D01*
X27683302Y-30494366D01*
X27463511Y-30553258D01*
X27463502Y-30553261D01*
X27257267Y-30649431D01*
X27257265Y-30649432D01*
X27070858Y-30779954D01*
X26909954Y-30940858D01*
X26779432Y-31127265D01*
X26779431Y-31127267D01*
X26683261Y-31333502D01*
X26683258Y-31333511D01*
X26624366Y-31553302D01*
X26624364Y-31553313D01*
X26604532Y-31779998D01*
X26604532Y-31780001D01*
X17835659Y-31780001D01*
X17835659Y-31780000D01*
X17815063Y-31544592D01*
X17753903Y-31316337D01*
X17654035Y-31102171D01*
X17640426Y-31082734D01*
X17518494Y-30908597D01*
X17351402Y-30741506D01*
X17351396Y-30741501D01*
X17165842Y-30611575D01*
X17122217Y-30556998D01*
X17115023Y-30487500D01*
X17146546Y-30425145D01*
X17165842Y-30408425D01*
X17226852Y-30365705D01*
X17351401Y-30278495D01*
X17518495Y-30111401D01*
X17601136Y-29993376D01*
X17655713Y-29949752D01*
X17702711Y-29940500D01*
X18996952Y-29940500D01*
X19000697Y-29940613D01*
X19008042Y-29941057D01*
X19062606Y-29944358D01*
X19100314Y-29937447D01*
X19123621Y-29933177D01*
X19127325Y-29932613D01*
X19145170Y-29930446D01*
X19188872Y-29925140D01*
X19198335Y-29921550D01*
X19219961Y-29915522D01*
X19221309Y-29915275D01*
X19229932Y-29913695D01*
X19286512Y-29888229D01*
X19289942Y-29886809D01*
X19347930Y-29864818D01*
X19356266Y-29859062D01*
X19375821Y-29848034D01*
X19385057Y-29843878D01*
X19433896Y-29805613D01*
X19436876Y-29803421D01*
X19487929Y-29768183D01*
X19529065Y-29721748D01*
X19531599Y-29719056D01*
X21813837Y-27436819D01*
X21875161Y-27403334D01*
X21901519Y-27400500D01*
X25556639Y-27400500D01*
X25623678Y-27420185D01*
X25669433Y-27472989D01*
X25679377Y-27542147D01*
X25650352Y-27605703D01*
X25644320Y-27612181D01*
X24166946Y-29089553D01*
X24105623Y-29123038D01*
X24090073Y-29125400D01*
X23873312Y-29144364D01*
X23873302Y-29144366D01*
X23653511Y-29203258D01*
X23653502Y-29203261D01*
X23447267Y-29299431D01*
X23447265Y-29299432D01*
X23260858Y-29429954D01*
X23099954Y-29590858D01*
X22969432Y-29777265D01*
X22969431Y-29777267D01*
X22873261Y-29983502D01*
X22873258Y-29983511D01*
X22814366Y-30203302D01*
X22814364Y-30203313D01*
X22794532Y-30429998D01*
X22794532Y-30430001D01*
X22814364Y-30656686D01*
X22814366Y-30656697D01*
X22873258Y-30876488D01*
X22873261Y-30876497D01*
X22969431Y-31082732D01*
X22969432Y-31082734D01*
X23099954Y-31269141D01*
X23260858Y-31430045D01*
X23260861Y-31430047D01*
X23447266Y-31560568D01*
X23653504Y-31656739D01*
X23873308Y-31715635D01*
X24035230Y-31729801D01*
X24099998Y-31735468D01*
X24100000Y-31735468D01*
X24100002Y-31735468D01*
X24156673Y-31730509D01*
X24326692Y-31715635D01*
X24546496Y-31656739D01*
X24752734Y-31560568D01*
X24939139Y-31430047D01*
X25100047Y-31269139D01*
X25230568Y-31082734D01*
X25326739Y-30876496D01*
X25385635Y-30656692D01*
X25404599Y-30439922D01*
X25430051Y-30374856D01*
X25440438Y-30363059D01*
X26896679Y-28906819D01*
X26958003Y-28873334D01*
X26984361Y-28870500D01*
X44339373Y-28870500D01*
X44358772Y-28872027D01*
X44372612Y-28874219D01*
X44441959Y-28870584D01*
X44445203Y-28870500D01*
X44467191Y-28870500D01*
X44467192Y-28870500D01*
X44483988Y-28868734D01*
X44489064Y-28868201D01*
X44492284Y-28867947D01*
X44561646Y-28864313D01*
X44575187Y-28860683D01*
X44594313Y-28857138D01*
X44608256Y-28855674D01*
X44674306Y-28834212D01*
X44677368Y-28833304D01*
X44744488Y-28815320D01*
X44756976Y-28808956D01*
X44774950Y-28801510D01*
X44788284Y-28797179D01*
X44848476Y-28762425D01*
X44851222Y-28760934D01*
X44913149Y-28729383D01*
X44924031Y-28720569D01*
X44940083Y-28709537D01*
X44952216Y-28702533D01*
X45003847Y-28656043D01*
X45006260Y-28653982D01*
X45023380Y-28640119D01*
X45038929Y-28624568D01*
X45041270Y-28622347D01*
X45092888Y-28575871D01*
X45101130Y-28564525D01*
X45113760Y-28549737D01*
X46269737Y-27393760D01*
X46284525Y-27381130D01*
X46295871Y-27372888D01*
X46342347Y-27321270D01*
X46344570Y-27318928D01*
X46360119Y-27303380D01*
X46373982Y-27286260D01*
X46376049Y-27283841D01*
X46422533Y-27232216D01*
X46429538Y-27220080D01*
X46440570Y-27204031D01*
X46449381Y-27193151D01*
X46449383Y-27193149D01*
X46449382Y-27193149D01*
X46480934Y-27131222D01*
X46482425Y-27128476D01*
X46517179Y-27068284D01*
X46521509Y-27054956D01*
X46528960Y-27036969D01*
X46535319Y-27024490D01*
X46535320Y-27024488D01*
X46542682Y-26997011D01*
X46553297Y-26957390D01*
X46554201Y-26954337D01*
X46575674Y-26888256D01*
X46577139Y-26874307D01*
X46580684Y-26855183D01*
X46584312Y-26841646D01*
X46587947Y-26772284D01*
X46588200Y-26769071D01*
X46590500Y-26747192D01*
X46590500Y-26725196D01*
X46590585Y-26721950D01*
X46591735Y-26699999D01*
X46594219Y-26652612D01*
X46592027Y-26638772D01*
X46590500Y-26619373D01*
X46590500Y-25542790D01*
X46610185Y-25475751D01*
X46662989Y-25429996D01*
X46671146Y-25426616D01*
X46732331Y-25403796D01*
X46847546Y-25317546D01*
X46933796Y-25202331D01*
X46984091Y-25067483D01*
X46990500Y-25007873D01*
X46990499Y-24184359D01*
X47010183Y-24117321D01*
X47026813Y-24096684D01*
X47707679Y-23415819D01*
X47769003Y-23382334D01*
X47795361Y-23379500D01*
X49504369Y-23379500D01*
X49571408Y-23399185D01*
X49617163Y-23451989D01*
X49627107Y-23521147D01*
X49616751Y-23555905D01*
X49543262Y-23713502D01*
X49543258Y-23713511D01*
X49484366Y-23933302D01*
X49484364Y-23933313D01*
X49464532Y-24159998D01*
X49464532Y-24160001D01*
X49484364Y-24386686D01*
X49484366Y-24386697D01*
X49543258Y-24606488D01*
X49543261Y-24606497D01*
X49639431Y-24812732D01*
X49639432Y-24812734D01*
X49769954Y-24999141D01*
X49930858Y-25160045D01*
X49930861Y-25160047D01*
X50117266Y-25290568D01*
X50175865Y-25317893D01*
X50228305Y-25364065D01*
X50247457Y-25431258D01*
X50227242Y-25498139D01*
X50175867Y-25542657D01*
X50117511Y-25569869D01*
X50044527Y-25620972D01*
X50044526Y-25620973D01*
X50725600Y-26302046D01*
X50644852Y-26314835D01*
X50531955Y-26372359D01*
X50442359Y-26461955D01*
X50384835Y-26574852D01*
X50372046Y-26655598D01*
X49690973Y-25974526D01*
X49639868Y-26047513D01*
X49543734Y-26253673D01*
X49543730Y-26253682D01*
X49484860Y-26473389D01*
X49484858Y-26473400D01*
X49465034Y-26699997D01*
X49465034Y-26700002D01*
X49484858Y-26926599D01*
X49484860Y-26926610D01*
X49543730Y-27146317D01*
X49543734Y-27146326D01*
X49639865Y-27352481D01*
X49639866Y-27352483D01*
X49690973Y-27425471D01*
X49690973Y-27425472D01*
X50372045Y-26744399D01*
X50384835Y-26825148D01*
X50442359Y-26938045D01*
X50531955Y-27027641D01*
X50644852Y-27085165D01*
X50725599Y-27097953D01*
X50044526Y-27779025D01*
X50044526Y-27779026D01*
X50117512Y-27830131D01*
X50117516Y-27830133D01*
X50323673Y-27926265D01*
X50323682Y-27926269D01*
X50543389Y-27985139D01*
X50543400Y-27985141D01*
X50769998Y-28004966D01*
X50770002Y-28004966D01*
X50996599Y-27985141D01*
X50996610Y-27985139D01*
X51216317Y-27926269D01*
X51216331Y-27926264D01*
X51422478Y-27830136D01*
X51495472Y-27779025D01*
X50814401Y-27097953D01*
X50895148Y-27085165D01*
X51008045Y-27027641D01*
X51097641Y-26938045D01*
X51155165Y-26825148D01*
X51167953Y-26744399D01*
X51849025Y-27425472D01*
X51900136Y-27352478D01*
X51996264Y-27146331D01*
X51996269Y-27146317D01*
X52055139Y-26926610D01*
X52055141Y-26926599D01*
X52074966Y-26700002D01*
X52074966Y-26699997D01*
X52055141Y-26473400D01*
X52055139Y-26473389D01*
X51996269Y-26253682D01*
X51996265Y-26253673D01*
X51900133Y-26047516D01*
X51900131Y-26047512D01*
X51849026Y-25974526D01*
X51849025Y-25974526D01*
X51167953Y-26655597D01*
X51155165Y-26574852D01*
X51097641Y-26461955D01*
X51008045Y-26372359D01*
X50895148Y-26314835D01*
X50814400Y-26302046D01*
X51495472Y-25620974D01*
X51495471Y-25620973D01*
X51422483Y-25569866D01*
X51422481Y-25569865D01*
X51364133Y-25542657D01*
X51311694Y-25496484D01*
X51292542Y-25429291D01*
X51312758Y-25362410D01*
X51364129Y-25317895D01*
X51422734Y-25290568D01*
X51609139Y-25160047D01*
X51770047Y-24999139D01*
X51900568Y-24812734D01*
X51996739Y-24606496D01*
X52055635Y-24386692D01*
X52075468Y-24160000D01*
X52074143Y-24144860D01*
X52069801Y-24095230D01*
X52055635Y-23933308D01*
X52001734Y-23732147D01*
X51996741Y-23713511D01*
X51996740Y-23713510D01*
X51996739Y-23713504D01*
X51923249Y-23555905D01*
X51912757Y-23486827D01*
X51941277Y-23423043D01*
X51999753Y-23384804D01*
X52035631Y-23379500D01*
X55294639Y-23379500D01*
X55361678Y-23399185D01*
X55382320Y-23415819D01*
X55934320Y-23967819D01*
X55967805Y-24029142D01*
X55962821Y-24098834D01*
X55920949Y-24154767D01*
X55855485Y-24179184D01*
X55846639Y-24179500D01*
X55277129Y-24179500D01*
X55277123Y-24179501D01*
X55217516Y-24185908D01*
X55082671Y-24236202D01*
X55082664Y-24236206D01*
X54967455Y-24322452D01*
X54967452Y-24322455D01*
X54881206Y-24437664D01*
X54881202Y-24437671D01*
X54830908Y-24572517D01*
X54824501Y-24632116D01*
X54824500Y-24632135D01*
X54824500Y-26227870D01*
X54824501Y-26227876D01*
X54830908Y-26287483D01*
X54881202Y-26422328D01*
X54881206Y-26422335D01*
X54967452Y-26537544D01*
X54967455Y-26537547D01*
X55082664Y-26623793D01*
X55082671Y-26623797D01*
X55217517Y-26674091D01*
X55217516Y-26674091D01*
X55224444Y-26674835D01*
X55277127Y-26680500D01*
X56422872Y-26680499D01*
X56482483Y-26674091D01*
X56617331Y-26623796D01*
X56617335Y-26623792D01*
X56625118Y-26619544D01*
X56626252Y-26621621D01*
X56679715Y-26601671D01*
X56724576Y-26606694D01*
X56725656Y-26607021D01*
X56725659Y-26607023D01*
X56918967Y-26665662D01*
X57120000Y-26685462D01*
X57321033Y-26665662D01*
X57514341Y-26607023D01*
X57692494Y-26511798D01*
X57692498Y-26511794D01*
X57696546Y-26509631D01*
X57764949Y-26495389D01*
X57813454Y-26509631D01*
X57817502Y-26511794D01*
X57817506Y-26511798D01*
X57995659Y-26607023D01*
X58188967Y-26665662D01*
X58390000Y-26685462D01*
X58591033Y-26665662D01*
X58784341Y-26607023D01*
X58962494Y-26511798D01*
X59118647Y-26383647D01*
X59246798Y-26227494D01*
X59317018Y-26096122D01*
X59342021Y-26049345D01*
X59342021Y-26049344D01*
X59342023Y-26049341D01*
X59400662Y-25856033D01*
X59415500Y-25705380D01*
X59415500Y-25154620D01*
X59400662Y-25003967D01*
X59342023Y-24810659D01*
X59342021Y-24810656D01*
X59342021Y-24810654D01*
X59246801Y-24632511D01*
X59246799Y-24632509D01*
X59246798Y-24632506D01*
X59207824Y-24585016D01*
X59118647Y-24476352D01*
X58962495Y-24348203D01*
X58962488Y-24348198D01*
X58784345Y-24252978D01*
X58591031Y-24194337D01*
X58411962Y-24176701D01*
X58390000Y-24174538D01*
X58389999Y-24174538D01*
X58188969Y-24194337D01*
X58183177Y-24196094D01*
X58180491Y-24196909D01*
X58110625Y-24197530D01*
X58051513Y-24160280D01*
X58021924Y-24096985D01*
X58020500Y-24078247D01*
X58020500Y-23960626D01*
X58022027Y-23941225D01*
X58024219Y-23927388D01*
X58020585Y-23858047D01*
X58020500Y-23854802D01*
X58020500Y-23832813D01*
X58020500Y-23832808D01*
X58018199Y-23810921D01*
X58017946Y-23807711D01*
X58014312Y-23738354D01*
X58014311Y-23738348D01*
X58010687Y-23724825D01*
X58007139Y-23705684D01*
X58006157Y-23696344D01*
X58005674Y-23691744D01*
X57984214Y-23625699D01*
X57983291Y-23622585D01*
X57979969Y-23610185D01*
X57965320Y-23555512D01*
X57958954Y-23543019D01*
X57951508Y-23525042D01*
X57947178Y-23511714D01*
X57947175Y-23511707D01*
X57912800Y-23452171D01*
X57912443Y-23451552D01*
X57910920Y-23448747D01*
X57879383Y-23386851D01*
X57879382Y-23386849D01*
X57870560Y-23375955D01*
X57859538Y-23359918D01*
X57852532Y-23347783D01*
X57852531Y-23347781D01*
X57806060Y-23296170D01*
X57803952Y-23293702D01*
X57790118Y-23276619D01*
X57774577Y-23261078D01*
X57772341Y-23258722D01*
X57725872Y-23207113D01*
X57725871Y-23207112D01*
X57714525Y-23198869D01*
X57699734Y-23186235D01*
X56412764Y-21899265D01*
X56400126Y-21884468D01*
X56391887Y-21873128D01*
X56340277Y-21826657D01*
X56337922Y-21824423D01*
X56322382Y-21808882D01*
X56305295Y-21795043D01*
X56302831Y-21792939D01*
X56251220Y-21746470D01*
X56251213Y-21746465D01*
X56239070Y-21739454D01*
X56223043Y-21728438D01*
X56212153Y-21719620D01*
X56212151Y-21719619D01*
X56212149Y-21719617D01*
X56193259Y-21709992D01*
X56150266Y-21688085D01*
X56147414Y-21686537D01*
X56108888Y-21664294D01*
X56087284Y-21651821D01*
X56087283Y-21651820D01*
X56087282Y-21651820D01*
X56073949Y-21647488D01*
X56055978Y-21640043D01*
X56043498Y-21633684D01*
X56043486Y-21633679D01*
X55976409Y-21615705D01*
X55973309Y-21614787D01*
X55907256Y-21593326D01*
X55907251Y-21593325D01*
X55907249Y-21593325D01*
X55893314Y-21591860D01*
X55874189Y-21588315D01*
X55860653Y-21584688D01*
X55860643Y-21584686D01*
X55791290Y-21581051D01*
X55788059Y-21580797D01*
X55773537Y-21579271D01*
X55766192Y-21578500D01*
X55766189Y-21578500D01*
X55744203Y-21578500D01*
X55740959Y-21578415D01*
X55671612Y-21574781D01*
X55671611Y-21574781D01*
X55657772Y-21576973D01*
X55638373Y-21578500D01*
X51676152Y-21578500D01*
X51609113Y-21558815D01*
X51563358Y-21506011D01*
X51553414Y-21436853D01*
X51582439Y-21373297D01*
X51605031Y-21352924D01*
X51609140Y-21350046D01*
X51770045Y-21189141D01*
X51770045Y-21189140D01*
X51770047Y-21189139D01*
X51900568Y-21002734D01*
X51996739Y-20796496D01*
X52055635Y-20576692D01*
X52075468Y-20350000D01*
X52055635Y-20123308D01*
X51996739Y-19903504D01*
X51900568Y-19697266D01*
X51770047Y-19510861D01*
X51770045Y-19510858D01*
X51609141Y-19349954D01*
X51422734Y-19219432D01*
X51422728Y-19219429D01*
X51364725Y-19192382D01*
X51312285Y-19146210D01*
X51293413Y-19080001D01*
X53369838Y-19080001D01*
X53388450Y-19292741D01*
X53388452Y-19292752D01*
X53443721Y-19499022D01*
X53443723Y-19499026D01*
X53443724Y-19499030D01*
X53449240Y-19510858D01*
X53533977Y-19692578D01*
X53533978Y-19692580D01*
X53533979Y-19692581D01*
X53540403Y-19701755D01*
X53656472Y-19867521D01*
X53807478Y-20018527D01*
X53807481Y-20018529D01*
X53982419Y-20141021D01*
X53982421Y-20141022D01*
X53982420Y-20141022D01*
X54046936Y-20171106D01*
X54175970Y-20231276D01*
X54382253Y-20286549D01*
X54534215Y-20299844D01*
X54594998Y-20305162D01*
X54595000Y-20305162D01*
X54595002Y-20305162D01*
X54648186Y-20300508D01*
X54807747Y-20286549D01*
X55014030Y-20231276D01*
X55207581Y-20141021D01*
X55382519Y-20018529D01*
X55533529Y-19867519D01*
X55656021Y-19692581D01*
X55746276Y-19499030D01*
X55746280Y-19499013D01*
X55748130Y-19493936D01*
X55750253Y-19494709D01*
X55781576Y-19443305D01*
X55844419Y-19412766D01*
X55913796Y-19421050D01*
X55967680Y-19465528D01*
X55980827Y-19494315D01*
X55981870Y-19493936D01*
X55983722Y-19499022D01*
X55983724Y-19499030D01*
X55989240Y-19510858D01*
X56073977Y-19692578D01*
X56073978Y-19692580D01*
X56073979Y-19692581D01*
X56080403Y-19701755D01*
X56196472Y-19867521D01*
X56347478Y-20018527D01*
X56347481Y-20018529D01*
X56522419Y-20141021D01*
X56522421Y-20141022D01*
X56522420Y-20141022D01*
X56586936Y-20171106D01*
X56715970Y-20231276D01*
X56922253Y-20286549D01*
X57074215Y-20299844D01*
X57134998Y-20305162D01*
X57135000Y-20305162D01*
X57135002Y-20305162D01*
X57188186Y-20300508D01*
X57347747Y-20286549D01*
X57554030Y-20231276D01*
X57747581Y-20141021D01*
X57922519Y-20018529D01*
X58073529Y-19867519D01*
X58196021Y-19692581D01*
X58286276Y-19499030D01*
X58286280Y-19499013D01*
X58288130Y-19493936D01*
X58289981Y-19494609D01*
X58321847Y-19442328D01*
X58384694Y-19411797D01*
X58454069Y-19420091D01*
X58507948Y-19464575D01*
X58521430Y-19494095D01*
X58522342Y-19493764D01*
X58524197Y-19498859D01*
X58614412Y-19692328D01*
X58614413Y-19692330D01*
X58653415Y-19748030D01*
X58653416Y-19748031D01*
X59277046Y-19124400D01*
X59289835Y-19205148D01*
X59347359Y-19318045D01*
X59436955Y-19407641D01*
X59549852Y-19465165D01*
X59630599Y-19477953D01*
X59006967Y-20101583D01*
X59062670Y-20140586D01*
X59256140Y-20230802D01*
X59256146Y-20230805D01*
X59462337Y-20286054D01*
X59462345Y-20286055D01*
X59674998Y-20304660D01*
X59675002Y-20304660D01*
X59887654Y-20286055D01*
X59887662Y-20286054D01*
X60093853Y-20230805D01*
X60093859Y-20230802D01*
X60287330Y-20140586D01*
X60287336Y-20140582D01*
X60343031Y-20101584D01*
X59719401Y-19477953D01*
X59800148Y-19465165D01*
X59913045Y-19407641D01*
X60002641Y-19318045D01*
X60060165Y-19205148D01*
X60072953Y-19124400D01*
X60696584Y-19748031D01*
X60735582Y-19692336D01*
X60735586Y-19692330D01*
X60825802Y-19498859D01*
X60825805Y-19498853D01*
X60881054Y-19292662D01*
X60881055Y-19292654D01*
X60899660Y-19080002D01*
X60899660Y-19079997D01*
X60881055Y-18867345D01*
X60881054Y-18867337D01*
X60825805Y-18661146D01*
X60825802Y-18661140D01*
X60735586Y-18467670D01*
X60696583Y-18411967D01*
X60072953Y-19035598D01*
X60060165Y-18954852D01*
X60002641Y-18841955D01*
X59913045Y-18752359D01*
X59800148Y-18694835D01*
X59719401Y-18682046D01*
X60343031Y-18058416D01*
X60343030Y-18058415D01*
X60287330Y-18019413D01*
X60287328Y-18019412D01*
X60093859Y-17929197D01*
X60093853Y-17929194D01*
X59887662Y-17873945D01*
X59887654Y-17873944D01*
X59675002Y-17855340D01*
X59674998Y-17855340D01*
X59462345Y-17873944D01*
X59462337Y-17873945D01*
X59256146Y-17929194D01*
X59256140Y-17929197D01*
X59062667Y-18019414D01*
X59006967Y-18058414D01*
X59630599Y-18682046D01*
X59549852Y-18694835D01*
X59436955Y-18752359D01*
X59347359Y-18841955D01*
X59289835Y-18954852D01*
X59277046Y-19035599D01*
X58653414Y-18411967D01*
X58614414Y-18467667D01*
X58524197Y-18661140D01*
X58522342Y-18666236D01*
X58520445Y-18665545D01*
X58488656Y-18717684D01*
X58425805Y-18748205D01*
X58356431Y-18739901D01*
X58302559Y-18695408D01*
X58289012Y-18665742D01*
X58288130Y-18666064D01*
X58286279Y-18660983D01*
X58286276Y-18660970D01*
X58196021Y-18467419D01*
X58073529Y-18292481D01*
X58073527Y-18292478D01*
X57922521Y-18141472D01*
X57747578Y-18018977D01*
X57747579Y-18018977D01*
X57618547Y-17958809D01*
X57554030Y-17928724D01*
X57554026Y-17928723D01*
X57554022Y-17928721D01*
X57347752Y-17873452D01*
X57347748Y-17873451D01*
X57347747Y-17873451D01*
X57347746Y-17873450D01*
X57347741Y-17873450D01*
X57135002Y-17854838D01*
X57134998Y-17854838D01*
X56922258Y-17873450D01*
X56922247Y-17873452D01*
X56715977Y-17928721D01*
X56715968Y-17928725D01*
X56522421Y-18018977D01*
X56347478Y-18141472D01*
X56196472Y-18292478D01*
X56073977Y-18467421D01*
X55983725Y-18660968D01*
X55981870Y-18666064D01*
X55979749Y-18665292D01*
X55948406Y-18716710D01*
X55885558Y-18747237D01*
X55816183Y-18738939D01*
X55762307Y-18694452D01*
X55749169Y-18665685D01*
X55748130Y-18666064D01*
X55746279Y-18660983D01*
X55746276Y-18660970D01*
X55656021Y-18467419D01*
X55533529Y-18292481D01*
X55533527Y-18292478D01*
X55382521Y-18141472D01*
X55207578Y-18018977D01*
X55207579Y-18018977D01*
X55078547Y-17958809D01*
X55014030Y-17928724D01*
X55014026Y-17928723D01*
X55014022Y-17928721D01*
X54807752Y-17873452D01*
X54807748Y-17873451D01*
X54807747Y-17873451D01*
X54807746Y-17873450D01*
X54807741Y-17873450D01*
X54595002Y-17854838D01*
X54594998Y-17854838D01*
X54382258Y-17873450D01*
X54382247Y-17873452D01*
X54175977Y-17928721D01*
X54175968Y-17928725D01*
X53982421Y-18018977D01*
X53807478Y-18141472D01*
X53656472Y-18292478D01*
X53533977Y-18467421D01*
X53443725Y-18660968D01*
X53443721Y-18660977D01*
X53388452Y-18867247D01*
X53388450Y-18867258D01*
X53369838Y-19079998D01*
X53369838Y-19080001D01*
X51293413Y-19080001D01*
X51293133Y-19079017D01*
X51313348Y-19012135D01*
X51364725Y-18967618D01*
X51422734Y-18940568D01*
X51609139Y-18810047D01*
X51770047Y-18649139D01*
X51900568Y-18462734D01*
X51996739Y-18256496D01*
X52055635Y-18036692D01*
X52075468Y-17810000D01*
X52055635Y-17583308D01*
X51996739Y-17363504D01*
X51900568Y-17157266D01*
X51791945Y-17002135D01*
X51770045Y-16970858D01*
X51609141Y-16809954D01*
X51422734Y-16679432D01*
X51422732Y-16679431D01*
X51216497Y-16583261D01*
X51216488Y-16583258D01*
X50996697Y-16524366D01*
X50996687Y-16524364D01*
X50779925Y-16505400D01*
X50714857Y-16479947D01*
X50703052Y-16469553D01*
X48923764Y-14690265D01*
X48911126Y-14675468D01*
X48902887Y-14664128D01*
X48894581Y-14656649D01*
X48857933Y-14597162D01*
X48859264Y-14527305D01*
X48898151Y-14469257D01*
X48962248Y-14441448D01*
X48977554Y-14440500D01*
X63032439Y-14440500D01*
X63099478Y-14460185D01*
X63145233Y-14512989D01*
X63156439Y-14564500D01*
X63156439Y-15113548D01*
X64072753Y-15113548D01*
X64046946Y-15153704D01*
X64006439Y-15291659D01*
X64006439Y-15435437D01*
X64046946Y-15573392D01*
X64072753Y-15613548D01*
X63156439Y-15613548D01*
X63156439Y-16261392D01*
X63162840Y-16320920D01*
X63162842Y-16320927D01*
X63213084Y-16455634D01*
X63213088Y-16455641D01*
X63299248Y-16570735D01*
X63299251Y-16570738D01*
X63414345Y-16656898D01*
X63414352Y-16656902D01*
X63549059Y-16707144D01*
X63549066Y-16707146D01*
X63608594Y-16713547D01*
X63608611Y-16713548D01*
X64256438Y-16713548D01*
X64256438Y-15799049D01*
X64364124Y-15848228D01*
X64470676Y-15863548D01*
X64542202Y-15863548D01*
X64648754Y-15848228D01*
X64756438Y-15799049D01*
X64756438Y-16713547D01*
X64756439Y-16713548D01*
X65315500Y-16713548D01*
X65382539Y-16733233D01*
X65428294Y-16786037D01*
X65439500Y-16837548D01*
X65439500Y-39033248D01*
X65419815Y-39100287D01*
X65367011Y-39146042D01*
X65315500Y-39157248D01*
X64756439Y-39157248D01*
X64756439Y-40071746D01*
X64648754Y-40022568D01*
X64542202Y-40007248D01*
X64470676Y-40007248D01*
X64364124Y-40022568D01*
X64256438Y-40071746D01*
X64256439Y-39157248D01*
X63608594Y-39157248D01*
X63549066Y-39163649D01*
X63549059Y-39163651D01*
X63414352Y-39213893D01*
X63414345Y-39213897D01*
X63299251Y-39300057D01*
X63299248Y-39300060D01*
X63213088Y-39415154D01*
X63213084Y-39415161D01*
X63162842Y-39549868D01*
X63162840Y-39549875D01*
X63156439Y-39609403D01*
X63156439Y-39609420D01*
X63156438Y-40257247D01*
X63156439Y-40257248D01*
X64072753Y-40257248D01*
X64046946Y-40297404D01*
X64006439Y-40435359D01*
X64006439Y-40579137D01*
X64046946Y-40717092D01*
X64072753Y-40757248D01*
X63156439Y-40757248D01*
X63156439Y-41315500D01*
X63136754Y-41382539D01*
X63083950Y-41428294D01*
X63032439Y-41439500D01*
X16845146Y-41439500D01*
X16778107Y-41419815D01*
X16732352Y-41367011D01*
X16721146Y-41315500D01*
X16721146Y-40757248D01*
X15804832Y-40757248D01*
X15830639Y-40717092D01*
X15871146Y-40579137D01*
X15871146Y-40435359D01*
X15830639Y-40297404D01*
X15804832Y-40257248D01*
X16721145Y-40257248D01*
X16721146Y-39609420D01*
X16721145Y-39609403D01*
X16714744Y-39549875D01*
X16714742Y-39549868D01*
X16664500Y-39415161D01*
X16664496Y-39415154D01*
X16578336Y-39300060D01*
X16578333Y-39300057D01*
X16463239Y-39213897D01*
X16463232Y-39213893D01*
X16328525Y-39163651D01*
X16328518Y-39163649D01*
X16268990Y-39157248D01*
X15621146Y-39157248D01*
X15621146Y-40071746D01*
X15513461Y-40022568D01*
X15406909Y-40007248D01*
X15335383Y-40007248D01*
X15228831Y-40022568D01*
X15121146Y-40071746D01*
X15121146Y-39157248D01*
X14564500Y-39157248D01*
X14497461Y-39137563D01*
X14451706Y-39084759D01*
X14440500Y-39033248D01*
X14440500Y-16837548D01*
X14460185Y-16770509D01*
X14512989Y-16724754D01*
X14564500Y-16713548D01*
X15121146Y-16713548D01*
X15121146Y-15799049D01*
X15228831Y-15848228D01*
X15335383Y-15863548D01*
X15406909Y-15863548D01*
X15513461Y-15848228D01*
X15621146Y-15799049D01*
X15621146Y-16713548D01*
X16268974Y-16713548D01*
X16268990Y-16713547D01*
X16328518Y-16707146D01*
X16328525Y-16707144D01*
X16463232Y-16656902D01*
X16463239Y-16656898D01*
X16578333Y-16570738D01*
X16578336Y-16570735D01*
X16664496Y-16455641D01*
X16664500Y-16455634D01*
X16714742Y-16320927D01*
X16714744Y-16320920D01*
X16721145Y-16261392D01*
X16721146Y-16261375D01*
X16721146Y-15613548D01*
X15804832Y-15613548D01*
X15830639Y-15573392D01*
X15871146Y-15435437D01*
X15871146Y-15291659D01*
X15830639Y-15153704D01*
X15804832Y-15113548D01*
X16721145Y-15113548D01*
X16721146Y-14564500D01*
X16740831Y-14497461D01*
X16793635Y-14451706D01*
X16845146Y-14440500D01*
X25892446Y-14440500D01*
X25959485Y-14460185D01*
G37*
%TD.AperFunction*%
%TA.AperFunction,Conductor*%
G36*
X26622176Y-23610185D02*
G01*
X26667931Y-23662989D01*
X26677875Y-23732147D01*
X26674912Y-23746593D01*
X26631127Y-23909999D01*
X26631128Y-23910000D01*
X27594314Y-23910000D01*
X27582359Y-23921955D01*
X27524835Y-24034852D01*
X27505014Y-24160000D01*
X27524835Y-24285148D01*
X27582359Y-24398045D01*
X27594314Y-24410000D01*
X26631128Y-24410000D01*
X26683730Y-24606317D01*
X26683734Y-24606326D01*
X26779865Y-24812482D01*
X26910342Y-24998820D01*
X27071179Y-25159657D01*
X27257517Y-25290134D01*
X27463673Y-25386265D01*
X27463682Y-25386269D01*
X27659999Y-25438872D01*
X27659999Y-25438871D01*
X27659999Y-24475685D01*
X27671955Y-24487641D01*
X27784852Y-24545165D01*
X27878519Y-24560000D01*
X27941481Y-24560000D01*
X28035148Y-24545165D01*
X28148045Y-24487641D01*
X28160000Y-24475686D01*
X28160000Y-25407980D01*
X28140315Y-25475019D01*
X28123681Y-25495661D01*
X27656162Y-25963181D01*
X27594839Y-25996666D01*
X27568481Y-25999500D01*
X25454863Y-25999500D01*
X25387824Y-25979815D01*
X25342069Y-25927011D01*
X25332125Y-25857853D01*
X25335088Y-25843407D01*
X25385139Y-25656610D01*
X25385141Y-25656599D01*
X25404966Y-25430002D01*
X25404966Y-25429996D01*
X25385141Y-25203400D01*
X25385139Y-25203389D01*
X25326269Y-24983682D01*
X25326265Y-24983673D01*
X25230133Y-24777516D01*
X25230131Y-24777512D01*
X25179025Y-24704526D01*
X24497953Y-25385598D01*
X24485165Y-25304852D01*
X24427641Y-25191955D01*
X24338045Y-25102359D01*
X24225148Y-25044835D01*
X24144400Y-25032046D01*
X24825472Y-24350974D01*
X24825471Y-24350973D01*
X24752483Y-24299866D01*
X24752481Y-24299865D01*
X24546326Y-24203734D01*
X24546317Y-24203730D01*
X24326610Y-24144860D01*
X24326599Y-24144858D01*
X24100002Y-24125034D01*
X24099998Y-24125034D01*
X23873400Y-24144858D01*
X23873389Y-24144860D01*
X23653682Y-24203730D01*
X23653673Y-24203734D01*
X23447513Y-24299868D01*
X23374527Y-24350972D01*
X23374526Y-24350973D01*
X24055600Y-25032046D01*
X23974852Y-25044835D01*
X23861955Y-25102359D01*
X23772359Y-25191955D01*
X23714835Y-25304852D01*
X23702046Y-25385600D01*
X23020973Y-24704527D01*
X22969868Y-24777513D01*
X22873734Y-24983673D01*
X22873730Y-24983682D01*
X22814860Y-25203389D01*
X22814858Y-25203400D01*
X22795034Y-25429996D01*
X22795034Y-25430002D01*
X22814858Y-25656599D01*
X22814860Y-25656610D01*
X22864912Y-25843407D01*
X22863249Y-25913257D01*
X22824086Y-25971119D01*
X22759858Y-25998623D01*
X22745137Y-25999500D01*
X21583036Y-25999500D01*
X21579292Y-25999387D01*
X21517397Y-25995643D01*
X21517390Y-25995643D01*
X21456402Y-26006819D01*
X21452701Y-26007382D01*
X21391125Y-26014860D01*
X21381642Y-26018456D01*
X21360038Y-26024478D01*
X21358535Y-26024754D01*
X21350065Y-26026306D01*
X21350063Y-26026307D01*
X21293527Y-26051752D01*
X21290069Y-26053184D01*
X21232069Y-26075182D01*
X21223724Y-26080942D01*
X21204183Y-26091964D01*
X21194944Y-26096122D01*
X21194939Y-26096125D01*
X21146121Y-26134370D01*
X21143106Y-26136589D01*
X21092072Y-26171816D01*
X21092065Y-26171822D01*
X21050942Y-26218240D01*
X21048375Y-26220966D01*
X18766162Y-28503181D01*
X18704839Y-28536666D01*
X18678481Y-28539500D01*
X17702711Y-28539500D01*
X17635672Y-28519815D01*
X17601136Y-28486623D01*
X17518494Y-28368597D01*
X17351402Y-28201506D01*
X17351396Y-28201501D01*
X17165842Y-28071575D01*
X17122217Y-28016998D01*
X17115023Y-27947500D01*
X17146546Y-27885145D01*
X17165842Y-27868425D01*
X17220531Y-27830131D01*
X17351401Y-27738495D01*
X17518495Y-27571401D01*
X17654035Y-27377830D01*
X17753903Y-27163663D01*
X17815063Y-26935408D01*
X17835659Y-26700000D01*
X17815063Y-26464592D01*
X17810558Y-26447779D01*
X17812219Y-26377932D01*
X17842649Y-26328006D01*
X20543837Y-23626819D01*
X20605161Y-23593334D01*
X20631519Y-23590500D01*
X26555137Y-23590500D01*
X26622176Y-23610185D01*
G37*
%TD.AperFunction*%
%TD*%
M02*
