%TF.GenerationSoftware,KiCad,Pcbnew,7.0.6*%
%TF.CreationDate,2023-08-20T13:22:53+02:00*%
%TF.ProjectId,atari_2600_av_mod,61746172-695f-4323-9630-305f61765f6d,1*%
%TF.SameCoordinates,Original*%
%TF.FileFunction,Copper,L2,Bot*%
%TF.FilePolarity,Positive*%
%FSLAX46Y46*%
G04 Gerber Fmt 4.6, Leading zero omitted, Abs format (unit mm)*
G04 Created by KiCad (PCBNEW 7.0.6) date 2023-08-20 13:22:53*
%MOMM*%
%LPD*%
G01*
G04 APERTURE LIST*
%TA.AperFunction,ComponentPad*%
%ADD10C,1.600000*%
%TD*%
%TA.AperFunction,ComponentPad*%
%ADD11O,1.600000X1.600000*%
%TD*%
%TA.AperFunction,ComponentPad*%
%ADD12R,1.600000X1.600000*%
%TD*%
%TA.AperFunction,ComponentPad*%
%ADD13R,1.700000X1.700000*%
%TD*%
%TA.AperFunction,ComponentPad*%
%ADD14O,1.700000X1.700000*%
%TD*%
%TA.AperFunction,ComponentPad*%
%ADD15R,1.050000X1.500000*%
%TD*%
%TA.AperFunction,ComponentPad*%
%ADD16O,1.050000X1.500000*%
%TD*%
%TA.AperFunction,ComponentPad*%
%ADD17C,1.440000*%
%TD*%
%TA.AperFunction,Conductor*%
%ADD18C,0.400000*%
%TD*%
%TA.AperFunction,Conductor*%
%ADD19C,0.800000*%
%TD*%
G04 APERTURE END LIST*
D10*
%TO.P,R4,1*%
%TO.N,Net-(R4-Pad1)*%
X35530000Y-35590000D03*
D11*
%TO.P,R4,2*%
%TO.N,Net-(R1-Pad2)*%
X35530000Y-38130000D03*
%TD*%
D12*
%TO.P,U1,1,VCC*%
%TO.N,/+5V*%
X45690000Y-24160000D03*
D11*
%TO.P,U1,2*%
%TO.N,Net-(R1-Pad2)*%
X43150000Y-24160000D03*
%TO.P,U1,3*%
%TO.N,Net-(J1-Pin_3)*%
X40610000Y-24160000D03*
%TO.P,U1,4*%
%TO.N,Net-(R1-Pad1)*%
X38070000Y-24160000D03*
%TO.P,U1,5*%
%TO.N,Net-(J1-Pin_4)*%
X35530000Y-24160000D03*
%TO.P,U1,6*%
%TO.N,Net-(R2-Pad1)*%
X32990000Y-24160000D03*
%TO.P,U1,7*%
%TO.N,Net-(J1-Pin_5)*%
X30450000Y-24160000D03*
%TO.P,U1,8,VSS*%
%TO.N,/GND*%
X27910000Y-24160000D03*
%TO.P,U1,9*%
%TO.N,Net-(J1-Pin_6)*%
X27910000Y-31780000D03*
%TO.P,U1,10*%
%TO.N,Net-(R3-Pad1)*%
X30450000Y-31780000D03*
%TO.P,U1,11*%
%TO.N,Net-(J1-Pin_7)*%
X32990000Y-31780000D03*
%TO.P,U1,12*%
%TO.N,Net-(R4-Pad1)*%
X35530000Y-31780000D03*
%TO.P,U1,13*%
%TO.N,N/C*%
X38070000Y-31780000D03*
%TO.P,U1,14*%
%TO.N,unconnected-(U1-Pad14)*%
X40610000Y-31780000D03*
%TO.P,U1,15*%
%TO.N,unconnected-(U1-Pad15)*%
X43150000Y-31780000D03*
%TO.P,U1,16*%
%TO.N,N/C*%
X45690000Y-31780000D03*
%TD*%
D10*
%TO.P,R5,1*%
%TO.N,Net-(R1-Pad2)*%
X50770000Y-20350000D03*
D11*
%TO.P,R5,2*%
%TO.N,/+5V*%
X50770000Y-17810000D03*
%TD*%
D10*
%TO.P,R1,1*%
%TO.N,Net-(R1-Pad1)*%
X38070000Y-20350000D03*
D11*
%TO.P,R1,2*%
%TO.N,Net-(R1-Pad2)*%
X38070000Y-17810000D03*
%TD*%
D10*
%TO.P,C2,1*%
%TO.N,/+5V*%
X24100000Y-30430000D03*
%TO.P,C2,2*%
%TO.N,/GND*%
X24100000Y-25430000D03*
%TD*%
%TO.P,R7,1*%
%TO.N,/GND*%
X50770000Y-30510000D03*
D11*
%TO.P,R7,2*%
%TO.N,Net-(Q1-E)*%
X53310000Y-30510000D03*
%TD*%
D10*
%TO.P,R8,1*%
%TO.N,Net-(J2-Pin_4)*%
X58390000Y-30510000D03*
D11*
%TO.P,R8,2*%
%TO.N,Net-(Q1-E)*%
X55850000Y-30510000D03*
%TD*%
D13*
%TO.P,J2,1,Pin_1*%
%TO.N,/GND*%
X63470000Y-31750000D03*
D14*
%TO.P,J2,2,Pin_2*%
%TO.N,Net-(J2-Pin_2)*%
X63470000Y-29210000D03*
%TO.P,J2,3,Pin_3*%
%TO.N,/GND*%
X63470000Y-26670000D03*
%TO.P,J2,4,Pin_4*%
%TO.N,Net-(J2-Pin_4)*%
X63470000Y-24130000D03*
%TD*%
D12*
%TO.P,C1,1*%
%TO.N,/+5V*%
X24100000Y-17850000D03*
D10*
%TO.P,C1,2*%
%TO.N,/GND*%
X24100000Y-20350000D03*
%TD*%
D13*
%TO.P,J1,1,Pin_1*%
%TO.N,/+5V*%
X16480000Y-19080000D03*
D14*
%TO.P,J1,2,Pin_2*%
%TO.N,/GND*%
X16480000Y-21620000D03*
%TO.P,J1,3,Pin_3*%
%TO.N,Net-(J1-Pin_3)*%
X16480000Y-24160000D03*
%TO.P,J1,4,Pin_4*%
%TO.N,Net-(J1-Pin_4)*%
X16480000Y-26700000D03*
%TO.P,J1,5,Pin_5*%
%TO.N,Net-(J1-Pin_5)*%
X16480000Y-29240000D03*
%TO.P,J1,6,Pin_6*%
%TO.N,Net-(J1-Pin_6)*%
X16480000Y-31780000D03*
%TO.P,J1,7,Pin_7*%
%TO.N,Net-(J1-Pin_7)*%
X16480000Y-34320000D03*
%TO.P,J1,8,Pin_8*%
%TO.N,Net-(J1-Pin_8)*%
X16480000Y-36860000D03*
%TD*%
D13*
%TO.P,J3,1,Pin_1*%
%TO.N,/GND*%
X15371146Y-15363548D03*
%TD*%
D10*
%TO.P,R3,1*%
%TO.N,Net-(R3-Pad1)*%
X30450000Y-35590000D03*
D11*
%TO.P,R3,2*%
%TO.N,Net-(R1-Pad2)*%
X30450000Y-38130000D03*
%TD*%
D13*
%TO.P,J6,1,Pin_1*%
%TO.N,/GND*%
X64506439Y-40507248D03*
%TD*%
D10*
%TO.P,R6,1*%
%TO.N,/GND*%
X50770000Y-26700000D03*
D11*
%TO.P,R6,2*%
%TO.N,Net-(R1-Pad2)*%
X50770000Y-24160000D03*
%TD*%
D15*
%TO.P,Q1,1,E*%
%TO.N,Net-(Q1-E)*%
X55850000Y-25430000D03*
D16*
%TO.P,Q1,2,C*%
%TO.N,/+5V*%
X57120000Y-25430000D03*
%TO.P,Q1,3,B*%
%TO.N,Net-(Q1-B)*%
X58390000Y-25430000D03*
%TD*%
D13*
%TO.P,J5,1,Pin_1*%
%TO.N,/GND*%
X15371146Y-40507248D03*
%TD*%
D12*
%TO.P,C3,1*%
%TO.N,Net-(J1-Pin_8)*%
X55890000Y-36860000D03*
D10*
%TO.P,C3,2*%
%TO.N,Net-(J2-Pin_2)*%
X58390000Y-36860000D03*
%TD*%
D13*
%TO.P,J4,1,Pin_1*%
%TO.N,/GND*%
X64506439Y-15363548D03*
%TD*%
D10*
%TO.P,R2,1*%
%TO.N,Net-(R2-Pad1)*%
X32990000Y-20350000D03*
D11*
%TO.P,R2,2*%
%TO.N,Net-(R1-Pad2)*%
X32990000Y-17810000D03*
%TD*%
D17*
%TO.P,RV1,1,1*%
%TO.N,Net-(R1-Pad2)*%
X54595000Y-19080000D03*
%TO.P,RV1,2,2*%
%TO.N,Net-(Q1-B)*%
X57135000Y-19080000D03*
%TO.P,RV1,3,3*%
%TO.N,/GND*%
X59675000Y-19080000D03*
%TD*%
D18*
%TO.N,Net-(J1-Pin_7)*%
X26640000Y-34320000D02*
X16480000Y-34320000D01*
X31720000Y-36860000D02*
X29180000Y-36860000D01*
X29180000Y-36860000D02*
X26640000Y-34320000D01*
X32990000Y-35590000D02*
X31720000Y-36860000D01*
X32990000Y-31780000D02*
X32990000Y-35590000D01*
%TO.N,Net-(J2-Pin_4)*%
X62230000Y-24130000D02*
X60706000Y-25654000D01*
X63470000Y-24130000D02*
X62230000Y-24130000D01*
X60706000Y-25654000D02*
X60706000Y-28194000D01*
X60706000Y-28194000D02*
X58390000Y-30510000D01*
D19*
%TO.N,/GND*%
X64920000Y-30300000D02*
X63470000Y-31750000D01*
X63470000Y-26670000D02*
X64920000Y-28120000D01*
X64920000Y-28120000D02*
X64920000Y-30300000D01*
X64920000Y-23306767D02*
X64920000Y-25220000D01*
X60693233Y-19080000D02*
X64920000Y-23306767D01*
X64920000Y-25220000D02*
X63470000Y-26670000D01*
X59675000Y-19080000D02*
X60693233Y-19080000D01*
D18*
%TO.N,Net-(J2-Pin_2)*%
X62230000Y-29210000D02*
X60960000Y-30480000D01*
X60960000Y-35560000D02*
X59660000Y-36860000D01*
X60960000Y-30480000D02*
X60960000Y-35560000D01*
X63470000Y-29210000D02*
X62230000Y-29210000D01*
X59660000Y-36860000D02*
X58390000Y-36860000D01*
D19*
%TO.N,/+5V*%
X50770000Y-17810000D02*
X49500000Y-17810000D01*
X49500000Y-17810000D02*
X48230000Y-19080000D01*
X46960000Y-24160000D02*
X45690000Y-24160000D01*
X17710000Y-17850000D02*
X16480000Y-19080000D01*
X48230000Y-22890000D02*
X46960000Y-24160000D01*
X24100000Y-17850000D02*
X17710000Y-17850000D01*
X48230000Y-19080000D02*
X48230000Y-22890000D01*
%TO.N,/GND*%
X59675000Y-17825000D02*
X59675000Y-19080000D01*
X24100000Y-20350000D02*
X24100000Y-25430000D01*
X24100000Y-20350000D02*
X22830000Y-21620000D01*
X50770000Y-26700000D02*
X50770000Y-30510000D01*
X27910000Y-24160000D02*
X25370000Y-24160000D01*
X26640000Y-20350000D02*
X31720000Y-15270000D01*
X24100000Y-20350000D02*
X26640000Y-20350000D01*
X31720000Y-15270000D02*
X57120000Y-15270000D01*
X22830000Y-21620000D02*
X16480000Y-21620000D01*
X57120000Y-15270000D02*
X59675000Y-17825000D01*
X25370000Y-24160000D02*
X24100000Y-25430000D01*
D18*
%TO.N,Net-(Q1-E)*%
X55850000Y-30510000D02*
X53310000Y-30510000D01*
X55850000Y-25430000D02*
X55850000Y-30510000D01*
%TO.N,Net-(Q1-B)*%
X58390000Y-20335000D02*
X58390000Y-25430000D01*
X57135000Y-19080000D02*
X58390000Y-20335000D01*
%TO.N,Net-(R1-Pad1)*%
X38070000Y-20350000D02*
X38070000Y-24160000D01*
%TO.N,Net-(R1-Pad2)*%
X43150000Y-24160000D02*
X43150000Y-19080000D01*
X52040000Y-19080000D02*
X50770000Y-20350000D01*
X41880000Y-17810000D02*
X38070000Y-17810000D01*
X47572744Y-33707256D02*
X47572744Y-29852744D01*
X43150000Y-38130000D02*
X47572744Y-33707256D01*
X43150000Y-25430000D02*
X43150000Y-24160000D01*
X54595000Y-19080000D02*
X52040000Y-19080000D01*
X47572744Y-29852744D02*
X43150000Y-25430000D01*
X35530000Y-38130000D02*
X43150000Y-38130000D01*
X32990000Y-17810000D02*
X38070000Y-17810000D01*
X43150000Y-19080000D02*
X41880000Y-17810000D01*
X30450000Y-38130000D02*
X35530000Y-38130000D01*
X50770000Y-20350000D02*
X50770000Y-24160000D01*
%TO.N,Net-(R2-Pad1)*%
X32990000Y-20350000D02*
X32990000Y-24160000D01*
%TO.N,Net-(R3-Pad1)*%
X30450000Y-35590000D02*
X30450000Y-31780000D01*
%TO.N,Net-(R4-Pad1)*%
X35530000Y-35590000D02*
X35530000Y-31780000D01*
%TO.N,Net-(J1-Pin_8)*%
X52040000Y-40670000D02*
X55850000Y-36860000D01*
X16480000Y-36860000D02*
X20290000Y-40670000D01*
X20290000Y-40670000D02*
X52040000Y-40670000D01*
%TO.N,Net-(J1-Pin_3)*%
X21560000Y-26700000D02*
X19020000Y-24160000D01*
X19020000Y-24160000D02*
X16480000Y-24160000D01*
X40610000Y-24160000D02*
X38070000Y-26700000D01*
X38070000Y-26700000D02*
X21560000Y-26700000D01*
%TO.N,Net-(J1-Pin_6)*%
X16480000Y-31780000D02*
X27910000Y-31780000D01*
%TD*%
%TA.AperFunction,Conductor*%
%TO.N,/GND*%
G36*
X63099478Y-14460185D02*
G01*
X63145233Y-14512989D01*
X63156439Y-14564500D01*
X63156439Y-15113548D01*
X64072753Y-15113548D01*
X64046946Y-15153704D01*
X64006439Y-15291659D01*
X64006439Y-15435437D01*
X64046946Y-15573392D01*
X64072753Y-15613548D01*
X63156439Y-15613548D01*
X63156439Y-16261392D01*
X63162840Y-16320920D01*
X63162842Y-16320927D01*
X63213084Y-16455634D01*
X63213088Y-16455641D01*
X63299248Y-16570735D01*
X63299251Y-16570738D01*
X63414345Y-16656898D01*
X63414352Y-16656902D01*
X63549059Y-16707144D01*
X63549066Y-16707146D01*
X63608594Y-16713547D01*
X63608611Y-16713548D01*
X64256438Y-16713548D01*
X64256438Y-15799049D01*
X64364124Y-15848228D01*
X64470676Y-15863548D01*
X64542202Y-15863548D01*
X64648754Y-15848228D01*
X64756438Y-15799049D01*
X64756438Y-16713547D01*
X64756439Y-16713548D01*
X65315500Y-16713548D01*
X65382539Y-16733233D01*
X65428294Y-16786037D01*
X65439500Y-16837548D01*
X65439500Y-39033248D01*
X65419815Y-39100287D01*
X65367011Y-39146042D01*
X65315500Y-39157248D01*
X64756439Y-39157248D01*
X64756439Y-40071746D01*
X64648754Y-40022568D01*
X64542202Y-40007248D01*
X64470676Y-40007248D01*
X64364124Y-40022568D01*
X64256438Y-40071746D01*
X64256439Y-39157248D01*
X63608594Y-39157248D01*
X63549066Y-39163649D01*
X63549059Y-39163651D01*
X63414352Y-39213893D01*
X63414345Y-39213897D01*
X63299251Y-39300057D01*
X63299248Y-39300060D01*
X63213088Y-39415154D01*
X63213084Y-39415161D01*
X63162842Y-39549868D01*
X63162840Y-39549875D01*
X63156439Y-39609403D01*
X63156439Y-39609420D01*
X63156438Y-40257247D01*
X63156439Y-40257248D01*
X64072753Y-40257248D01*
X64046946Y-40297404D01*
X64006439Y-40435359D01*
X64006439Y-40579137D01*
X64046946Y-40717092D01*
X64072753Y-40757248D01*
X63156439Y-40757248D01*
X63156439Y-41315500D01*
X63136754Y-41382539D01*
X63083950Y-41428294D01*
X63032439Y-41439500D01*
X52556251Y-41439500D01*
X52489212Y-41419815D01*
X52443457Y-41367011D01*
X52433513Y-41297853D01*
X52462538Y-41234297D01*
X52485811Y-41213450D01*
X52489429Y-41210951D01*
X52507929Y-41198183D01*
X52549065Y-41151748D01*
X52551599Y-41149056D01*
X55503838Y-38196818D01*
X55565161Y-38163333D01*
X55591519Y-38160499D01*
X56737871Y-38160499D01*
X56737872Y-38160499D01*
X56797483Y-38154091D01*
X56932331Y-38103796D01*
X57047546Y-38017546D01*
X57133796Y-37902331D01*
X57184091Y-37767483D01*
X57184092Y-37767472D01*
X57185365Y-37762088D01*
X57219933Y-37701369D01*
X57281841Y-37668978D01*
X57351433Y-37675199D01*
X57393725Y-37702912D01*
X57550858Y-37860045D01*
X57550861Y-37860047D01*
X57737266Y-37990568D01*
X57943504Y-38086739D01*
X58163308Y-38145635D01*
X58325230Y-38159801D01*
X58389998Y-38165468D01*
X58390000Y-38165468D01*
X58390002Y-38165468D01*
X58446807Y-38160498D01*
X58616692Y-38145635D01*
X58836496Y-38086739D01*
X59042734Y-37990568D01*
X59229139Y-37860047D01*
X59390047Y-37699139D01*
X59450096Y-37613377D01*
X59504675Y-37569752D01*
X59551673Y-37560500D01*
X59636952Y-37560500D01*
X59640697Y-37560613D01*
X59648042Y-37561057D01*
X59702606Y-37564358D01*
X59740314Y-37557447D01*
X59763621Y-37553177D01*
X59767325Y-37552613D01*
X59785170Y-37550446D01*
X59828872Y-37545140D01*
X59838335Y-37541550D01*
X59859961Y-37535522D01*
X59860893Y-37535351D01*
X59869932Y-37533695D01*
X59926512Y-37508229D01*
X59929942Y-37506809D01*
X59987930Y-37484818D01*
X59996266Y-37479062D01*
X60015821Y-37468034D01*
X60025057Y-37463878D01*
X60073896Y-37425613D01*
X60076876Y-37423421D01*
X60127929Y-37388183D01*
X60169065Y-37341748D01*
X60171599Y-37339056D01*
X61439056Y-36071599D01*
X61441748Y-36069065D01*
X61488183Y-36027929D01*
X61523417Y-35976883D01*
X61525620Y-35973887D01*
X61563878Y-35925056D01*
X61568037Y-35915813D01*
X61579061Y-35896268D01*
X61584818Y-35887930D01*
X61606810Y-35829939D01*
X61608232Y-35826503D01*
X61633695Y-35769931D01*
X61635522Y-35759959D01*
X61641546Y-35738347D01*
X61645140Y-35728872D01*
X61650797Y-35682273D01*
X61652613Y-35667324D01*
X61653177Y-35663619D01*
X61658740Y-35633261D01*
X61664358Y-35602606D01*
X61660611Y-35540667D01*
X61660499Y-35536985D01*
X61660499Y-30821517D01*
X61680184Y-30754479D01*
X61696813Y-30733842D01*
X62302700Y-30127955D01*
X62364021Y-30094472D01*
X62433713Y-30099456D01*
X62478060Y-30127955D01*
X62553819Y-30203715D01*
X62587303Y-30265036D01*
X62582319Y-30334728D01*
X62540448Y-30390662D01*
X62509471Y-30407577D01*
X62377912Y-30456646D01*
X62377906Y-30456649D01*
X62262812Y-30542809D01*
X62262809Y-30542812D01*
X62176649Y-30657906D01*
X62176645Y-30657913D01*
X62126403Y-30792620D01*
X62126401Y-30792627D01*
X62120000Y-30852155D01*
X62120000Y-31500000D01*
X63036314Y-31500000D01*
X63010507Y-31540156D01*
X62970000Y-31678111D01*
X62970000Y-31821889D01*
X63010507Y-31959844D01*
X63036314Y-32000000D01*
X62120000Y-32000000D01*
X62120000Y-32647844D01*
X62126401Y-32707372D01*
X62126403Y-32707379D01*
X62176645Y-32842086D01*
X62176649Y-32842093D01*
X62262809Y-32957187D01*
X62262812Y-32957190D01*
X62377906Y-33043350D01*
X62377913Y-33043354D01*
X62512620Y-33093596D01*
X62512627Y-33093598D01*
X62572155Y-33099999D01*
X62572172Y-33100000D01*
X63220000Y-33100000D01*
X63220000Y-32185501D01*
X63327685Y-32234680D01*
X63434237Y-32250000D01*
X63505763Y-32250000D01*
X63612315Y-32234680D01*
X63720000Y-32185501D01*
X63720000Y-33100000D01*
X64367828Y-33100000D01*
X64367844Y-33099999D01*
X64427372Y-33093598D01*
X64427379Y-33093596D01*
X64562086Y-33043354D01*
X64562093Y-33043350D01*
X64677187Y-32957190D01*
X64677190Y-32957187D01*
X64763350Y-32842093D01*
X64763354Y-32842086D01*
X64813596Y-32707379D01*
X64813598Y-32707372D01*
X64819999Y-32647844D01*
X64820000Y-32647827D01*
X64820000Y-32000000D01*
X63903686Y-32000000D01*
X63929493Y-31959844D01*
X63970000Y-31821889D01*
X63970000Y-31678111D01*
X63929493Y-31540156D01*
X63903686Y-31500000D01*
X64820000Y-31500000D01*
X64820000Y-30852172D01*
X64819999Y-30852155D01*
X64813598Y-30792627D01*
X64813596Y-30792620D01*
X64763354Y-30657913D01*
X64763350Y-30657906D01*
X64677190Y-30542812D01*
X64677187Y-30542809D01*
X64562093Y-30456649D01*
X64562088Y-30456646D01*
X64430528Y-30407577D01*
X64374595Y-30365705D01*
X64350178Y-30300241D01*
X64365030Y-30231968D01*
X64386175Y-30203720D01*
X64508495Y-30081401D01*
X64644035Y-29887830D01*
X64743903Y-29673663D01*
X64805063Y-29445408D01*
X64825659Y-29210000D01*
X64805063Y-28974592D01*
X64743903Y-28746337D01*
X64644035Y-28532171D01*
X64636865Y-28521930D01*
X64508494Y-28338597D01*
X64341402Y-28171506D01*
X64341401Y-28171505D01*
X64155405Y-28041269D01*
X64111781Y-27986692D01*
X64104588Y-27917193D01*
X64136110Y-27854839D01*
X64155405Y-27838119D01*
X64341082Y-27708105D01*
X64508105Y-27541082D01*
X64643600Y-27347578D01*
X64743429Y-27133492D01*
X64743432Y-27133486D01*
X64800636Y-26920000D01*
X63903686Y-26920000D01*
X63929493Y-26879844D01*
X63970000Y-26741889D01*
X63970000Y-26598111D01*
X63929493Y-26460156D01*
X63903686Y-26420000D01*
X64800636Y-26420000D01*
X64800635Y-26419999D01*
X64743432Y-26206513D01*
X64743429Y-26206507D01*
X64643600Y-25992422D01*
X64643599Y-25992420D01*
X64508113Y-25798926D01*
X64508108Y-25798920D01*
X64341078Y-25631890D01*
X64155405Y-25501879D01*
X64111780Y-25447302D01*
X64104588Y-25377804D01*
X64136110Y-25315449D01*
X64155406Y-25298730D01*
X64167064Y-25290567D01*
X64341401Y-25168495D01*
X64508495Y-25001401D01*
X64644035Y-24807830D01*
X64743903Y-24593663D01*
X64805063Y-24365408D01*
X64825659Y-24130000D01*
X64805063Y-23894592D01*
X64756589Y-23713682D01*
X64743905Y-23666344D01*
X64743904Y-23666343D01*
X64743903Y-23666337D01*
X64644035Y-23452171D01*
X64635384Y-23439815D01*
X64508494Y-23258597D01*
X64341402Y-23091506D01*
X64341395Y-23091501D01*
X64147834Y-22955967D01*
X64147830Y-22955965D01*
X64106499Y-22936692D01*
X63933663Y-22856097D01*
X63933659Y-22856096D01*
X63933655Y-22856094D01*
X63705413Y-22794938D01*
X63705403Y-22794936D01*
X63470001Y-22774341D01*
X63469999Y-22774341D01*
X63234596Y-22794936D01*
X63234586Y-22794938D01*
X63006344Y-22856094D01*
X63006335Y-22856098D01*
X62792171Y-22955964D01*
X62792169Y-22955965D01*
X62598597Y-23091505D01*
X62431508Y-23258594D01*
X62349173Y-23376181D01*
X62294596Y-23419806D01*
X62240112Y-23428831D01*
X62187398Y-23425642D01*
X62187390Y-23425643D01*
X62126402Y-23436819D01*
X62122701Y-23437382D01*
X62061125Y-23444860D01*
X62051642Y-23448456D01*
X62030038Y-23454478D01*
X62028535Y-23454754D01*
X62020065Y-23456306D01*
X62020063Y-23456307D01*
X61963527Y-23481752D01*
X61960069Y-23483184D01*
X61902069Y-23505182D01*
X61893724Y-23510942D01*
X61874183Y-23521964D01*
X61864941Y-23526123D01*
X61816129Y-23564364D01*
X61813114Y-23566583D01*
X61762072Y-23601816D01*
X61762065Y-23601822D01*
X61720935Y-23648248D01*
X61718368Y-23650974D01*
X60226966Y-25142375D01*
X60224240Y-25144942D01*
X60177818Y-25186068D01*
X60142586Y-25237109D01*
X60140368Y-25240124D01*
X60102124Y-25288939D01*
X60102119Y-25288948D01*
X60097960Y-25298188D01*
X60086942Y-25317723D01*
X60081187Y-25326061D01*
X60081183Y-25326067D01*
X60081182Y-25326070D01*
X60081180Y-25326074D01*
X60081179Y-25326077D01*
X60059189Y-25384055D01*
X60057757Y-25387513D01*
X60032305Y-25444068D01*
X60030477Y-25454042D01*
X60024453Y-25475653D01*
X60020860Y-25485127D01*
X60020859Y-25485128D01*
X60013384Y-25546685D01*
X60012821Y-25550386D01*
X60001642Y-25611390D01*
X60001642Y-25611395D01*
X60005387Y-25673302D01*
X60005500Y-25677047D01*
X60005500Y-27852480D01*
X59985815Y-27919519D01*
X59969181Y-27940161D01*
X58720369Y-29188972D01*
X58659046Y-29222457D01*
X58621881Y-29224819D01*
X58616680Y-29224364D01*
X58597171Y-29222657D01*
X58390002Y-29204532D01*
X58389998Y-29204532D01*
X58163313Y-29224364D01*
X58163302Y-29224366D01*
X57943511Y-29283258D01*
X57943502Y-29283261D01*
X57737267Y-29379431D01*
X57737265Y-29379432D01*
X57550858Y-29509954D01*
X57389954Y-29670858D01*
X57259432Y-29857265D01*
X57259431Y-29857267D01*
X57232382Y-29915275D01*
X57186209Y-29967714D01*
X57119016Y-29986866D01*
X57052135Y-29966650D01*
X57007618Y-29915275D01*
X56980683Y-29857513D01*
X56980568Y-29857266D01*
X56873015Y-29703663D01*
X56850048Y-29670862D01*
X56770044Y-29590858D01*
X56689139Y-29509953D01*
X56639804Y-29475408D01*
X56603376Y-29449901D01*
X56559751Y-29395324D01*
X56550500Y-29348326D01*
X56550500Y-26733861D01*
X56570185Y-26666822D01*
X56610406Y-26629372D01*
X56610218Y-26629121D01*
X56612563Y-26627364D01*
X56615072Y-26625029D01*
X56617327Y-26623797D01*
X56617331Y-26623796D01*
X56617333Y-26623794D01*
X56625115Y-26619545D01*
X56626249Y-26621622D01*
X56679715Y-26601671D01*
X56724576Y-26606694D01*
X56725656Y-26607021D01*
X56725659Y-26607023D01*
X56918967Y-26665662D01*
X57120000Y-26685462D01*
X57321033Y-26665662D01*
X57514341Y-26607023D01*
X57692494Y-26511798D01*
X57692498Y-26511794D01*
X57696546Y-26509631D01*
X57764949Y-26495389D01*
X57813454Y-26509631D01*
X57817502Y-26511794D01*
X57817506Y-26511798D01*
X57995659Y-26607023D01*
X58188967Y-26665662D01*
X58390000Y-26685462D01*
X58591033Y-26665662D01*
X58784341Y-26607023D01*
X58962494Y-26511798D01*
X59118647Y-26383647D01*
X59246798Y-26227494D01*
X59342023Y-26049341D01*
X59400662Y-25856033D01*
X59415500Y-25705380D01*
X59415500Y-25154620D01*
X59400662Y-25003967D01*
X59342023Y-24810659D01*
X59342021Y-24810656D01*
X59342021Y-24810654D01*
X59246801Y-24632511D01*
X59246797Y-24632504D01*
X59118647Y-24476353D01*
X59091334Y-24412043D01*
X59090500Y-24397688D01*
X59090500Y-20358049D01*
X59090613Y-20354309D01*
X59091454Y-20340393D01*
X59115146Y-20274662D01*
X59170613Y-20232175D01*
X59240245Y-20226421D01*
X59250902Y-20229440D01*
X59250913Y-20229403D01*
X59462337Y-20286054D01*
X59462345Y-20286055D01*
X59674998Y-20304660D01*
X59675002Y-20304660D01*
X59887654Y-20286055D01*
X59887662Y-20286054D01*
X60093853Y-20230805D01*
X60093859Y-20230802D01*
X60287330Y-20140586D01*
X60287336Y-20140582D01*
X60343031Y-20101584D01*
X59719400Y-19477953D01*
X59800148Y-19465165D01*
X59913045Y-19407641D01*
X60002641Y-19318045D01*
X60060165Y-19205148D01*
X60072953Y-19124400D01*
X60696584Y-19748031D01*
X60735582Y-19692336D01*
X60735586Y-19692330D01*
X60825802Y-19498859D01*
X60825805Y-19498853D01*
X60881054Y-19292662D01*
X60881055Y-19292654D01*
X60899660Y-19080002D01*
X60899660Y-19079997D01*
X60881055Y-18867345D01*
X60881054Y-18867337D01*
X60825805Y-18661146D01*
X60825802Y-18661140D01*
X60735586Y-18467670D01*
X60696583Y-18411967D01*
X60072953Y-19035598D01*
X60060165Y-18954852D01*
X60002641Y-18841955D01*
X59913045Y-18752359D01*
X59800148Y-18694835D01*
X59719401Y-18682046D01*
X60343031Y-18058416D01*
X60343030Y-18058415D01*
X60287330Y-18019413D01*
X60287328Y-18019412D01*
X60093859Y-17929197D01*
X60093853Y-17929194D01*
X59887662Y-17873945D01*
X59887654Y-17873944D01*
X59675002Y-17855340D01*
X59674998Y-17855340D01*
X59462345Y-17873944D01*
X59462337Y-17873945D01*
X59256146Y-17929194D01*
X59256140Y-17929197D01*
X59062667Y-18019414D01*
X59006967Y-18058414D01*
X59630599Y-18682046D01*
X59549852Y-18694835D01*
X59436955Y-18752359D01*
X59347359Y-18841955D01*
X59289835Y-18954852D01*
X59277046Y-19035599D01*
X58653414Y-18411967D01*
X58614414Y-18467667D01*
X58524197Y-18661140D01*
X58522342Y-18666236D01*
X58520445Y-18665545D01*
X58488656Y-18717684D01*
X58425805Y-18748205D01*
X58356431Y-18739901D01*
X58302559Y-18695408D01*
X58289012Y-18665742D01*
X58288130Y-18666064D01*
X58286279Y-18660983D01*
X58286276Y-18660970D01*
X58196021Y-18467419D01*
X58073529Y-18292481D01*
X58073527Y-18292478D01*
X57922521Y-18141472D01*
X57747578Y-18018977D01*
X57747579Y-18018977D01*
X57618547Y-17958809D01*
X57554030Y-17928724D01*
X57554026Y-17928723D01*
X57554022Y-17928721D01*
X57347752Y-17873452D01*
X57347748Y-17873451D01*
X57347747Y-17873451D01*
X57347746Y-17873450D01*
X57347741Y-17873450D01*
X57135002Y-17854838D01*
X57134998Y-17854838D01*
X56922258Y-17873450D01*
X56922247Y-17873452D01*
X56715977Y-17928721D01*
X56715968Y-17928725D01*
X56522421Y-18018977D01*
X56347478Y-18141472D01*
X56196472Y-18292478D01*
X56073977Y-18467421D01*
X55983725Y-18660968D01*
X55981870Y-18666064D01*
X55979749Y-18665292D01*
X55948406Y-18716710D01*
X55885558Y-18747237D01*
X55816183Y-18738939D01*
X55762307Y-18694452D01*
X55749169Y-18665685D01*
X55748130Y-18666064D01*
X55746279Y-18660983D01*
X55746276Y-18660970D01*
X55656021Y-18467419D01*
X55533529Y-18292481D01*
X55533527Y-18292478D01*
X55382521Y-18141472D01*
X55207578Y-18018977D01*
X55207579Y-18018977D01*
X55078547Y-17958809D01*
X55014030Y-17928724D01*
X55014026Y-17928723D01*
X55014022Y-17928721D01*
X54807752Y-17873452D01*
X54807748Y-17873451D01*
X54807747Y-17873451D01*
X54807746Y-17873450D01*
X54807741Y-17873450D01*
X54595002Y-17854838D01*
X54594998Y-17854838D01*
X54382258Y-17873450D01*
X54382247Y-17873452D01*
X54175977Y-17928721D01*
X54175968Y-17928725D01*
X53982421Y-18018977D01*
X53807478Y-18141472D01*
X53656474Y-18292476D01*
X53632564Y-18326624D01*
X53577987Y-18370248D01*
X53530989Y-18379500D01*
X52125380Y-18379500D01*
X52058341Y-18359815D01*
X52012586Y-18307011D01*
X52002642Y-18237853D01*
X52005605Y-18223407D01*
X52027559Y-18141472D01*
X52055635Y-18036692D01*
X52075468Y-17810000D01*
X52055635Y-17583308D01*
X51996739Y-17363504D01*
X51900568Y-17157266D01*
X51778421Y-16982820D01*
X51770045Y-16970858D01*
X51609141Y-16809954D01*
X51422734Y-16679432D01*
X51422732Y-16679431D01*
X51216497Y-16583261D01*
X51216488Y-16583258D01*
X50996697Y-16524366D01*
X50996693Y-16524365D01*
X50996692Y-16524365D01*
X50996691Y-16524364D01*
X50996686Y-16524364D01*
X50770002Y-16504532D01*
X50769998Y-16504532D01*
X50543313Y-16524364D01*
X50543302Y-16524366D01*
X50323511Y-16583258D01*
X50323502Y-16583261D01*
X50117267Y-16679431D01*
X50117265Y-16679432D01*
X49930862Y-16809951D01*
X49903266Y-16837548D01*
X49867631Y-16873182D01*
X49806311Y-16906666D01*
X49779952Y-16909500D01*
X49580627Y-16909500D01*
X49561228Y-16907973D01*
X49547389Y-16905781D01*
X49547388Y-16905781D01*
X49478046Y-16909415D01*
X49474803Y-16909500D01*
X49452808Y-16909500D01*
X49437403Y-16911118D01*
X49430933Y-16911798D01*
X49427702Y-16912052D01*
X49358356Y-16915687D01*
X49344809Y-16919317D01*
X49325686Y-16922860D01*
X49311745Y-16924325D01*
X49311743Y-16924325D01*
X49245702Y-16945784D01*
X49242590Y-16946705D01*
X49175517Y-16964677D01*
X49175503Y-16964683D01*
X49163022Y-16971043D01*
X49145049Y-16978488D01*
X49131715Y-16982820D01*
X49071592Y-17017533D01*
X49068740Y-17019082D01*
X49006853Y-17050616D01*
X49006837Y-17050626D01*
X48995948Y-17059444D01*
X48979923Y-17070458D01*
X48967785Y-17077466D01*
X48967781Y-17077469D01*
X48916172Y-17123936D01*
X48913710Y-17126039D01*
X48896627Y-17139875D01*
X48896610Y-17139890D01*
X48881065Y-17155435D01*
X48878713Y-17157666D01*
X48827114Y-17204126D01*
X48818869Y-17215474D01*
X48806236Y-17230263D01*
X47650263Y-18386236D01*
X47635474Y-18398869D01*
X47624126Y-18407114D01*
X47577666Y-18458713D01*
X47575435Y-18461065D01*
X47559890Y-18476610D01*
X47559875Y-18476627D01*
X47546039Y-18493710D01*
X47543936Y-18496172D01*
X47497469Y-18547781D01*
X47497466Y-18547785D01*
X47490458Y-18559923D01*
X47479444Y-18575948D01*
X47470626Y-18586837D01*
X47470616Y-18586853D01*
X47439082Y-18648740D01*
X47437533Y-18651592D01*
X47402821Y-18711713D01*
X47398487Y-18725053D01*
X47391045Y-18743018D01*
X47385790Y-18753334D01*
X47384680Y-18755512D01*
X47366706Y-18822584D01*
X47365785Y-18825692D01*
X47344326Y-18891742D01*
X47344325Y-18891745D01*
X47342860Y-18905686D01*
X47339315Y-18924812D01*
X47335686Y-18938352D01*
X47332051Y-19007710D01*
X47331797Y-19010941D01*
X47329500Y-19032810D01*
X47329500Y-19054797D01*
X47329415Y-19058042D01*
X47325781Y-19127387D01*
X47327973Y-19141225D01*
X47329500Y-19160626D01*
X47329500Y-22465638D01*
X47309815Y-22532677D01*
X47293181Y-22553319D01*
X46921520Y-22924979D01*
X46860197Y-22958464D01*
X46790505Y-22953480D01*
X46759531Y-22936566D01*
X46732331Y-22916204D01*
X46732328Y-22916203D01*
X46732327Y-22916202D01*
X46597482Y-22865908D01*
X46597483Y-22865908D01*
X46537883Y-22859501D01*
X46537881Y-22859500D01*
X46537873Y-22859500D01*
X46537864Y-22859500D01*
X44842129Y-22859500D01*
X44842123Y-22859501D01*
X44782516Y-22865908D01*
X44647671Y-22916202D01*
X44647664Y-22916206D01*
X44532455Y-23002452D01*
X44532452Y-23002455D01*
X44446206Y-23117664D01*
X44446202Y-23117671D01*
X44395908Y-23252516D01*
X44392137Y-23287596D01*
X44365398Y-23352146D01*
X44308006Y-23391994D01*
X44238180Y-23394487D01*
X44178092Y-23358834D01*
X44167273Y-23345462D01*
X44150048Y-23320862D01*
X44074142Y-23244956D01*
X43989139Y-23159953D01*
X43989135Y-23159950D01*
X43989134Y-23159949D01*
X43903376Y-23099901D01*
X43859751Y-23045324D01*
X43850499Y-22998330D01*
X43850499Y-19103037D01*
X43850612Y-19099292D01*
X43850968Y-19093398D01*
X43854357Y-19037394D01*
X43843177Y-18976386D01*
X43842615Y-18972689D01*
X43835140Y-18911129D01*
X43835139Y-18911125D01*
X43831546Y-18901651D01*
X43825519Y-18880029D01*
X43823694Y-18870070D01*
X43823694Y-18870068D01*
X43798241Y-18813514D01*
X43796807Y-18810052D01*
X43781688Y-18770185D01*
X43774818Y-18752070D01*
X43769058Y-18743726D01*
X43758035Y-18724180D01*
X43753878Y-18714943D01*
X43715617Y-18666107D01*
X43713417Y-18663117D01*
X43696786Y-18639021D01*
X43678185Y-18612073D01*
X43678183Y-18612071D01*
X43631750Y-18570935D01*
X43629056Y-18568399D01*
X42391598Y-17330941D01*
X42389064Y-17328250D01*
X42347929Y-17281817D01*
X42347928Y-17281816D01*
X42347924Y-17281812D01*
X42296896Y-17246591D01*
X42293887Y-17244377D01*
X42245060Y-17206124D01*
X42245055Y-17206120D01*
X42235813Y-17201961D01*
X42216266Y-17190936D01*
X42207931Y-17185183D01*
X42207932Y-17185183D01*
X42207930Y-17185182D01*
X42149941Y-17163189D01*
X42146490Y-17161759D01*
X42089930Y-17136304D01*
X42079946Y-17134474D01*
X42058343Y-17128451D01*
X42048874Y-17124860D01*
X42048870Y-17124859D01*
X41987313Y-17117384D01*
X41983612Y-17116821D01*
X41922608Y-17105642D01*
X41922603Y-17105642D01*
X41860697Y-17109387D01*
X41856952Y-17109500D01*
X39231673Y-17109500D01*
X39164634Y-17089815D01*
X39130098Y-17056623D01*
X39070045Y-16970858D01*
X38909141Y-16809954D01*
X38722734Y-16679432D01*
X38722732Y-16679431D01*
X38516497Y-16583261D01*
X38516488Y-16583258D01*
X38296697Y-16524366D01*
X38296693Y-16524365D01*
X38296692Y-16524365D01*
X38296691Y-16524364D01*
X38296686Y-16524364D01*
X38070002Y-16504532D01*
X38069998Y-16504532D01*
X37843313Y-16524364D01*
X37843302Y-16524366D01*
X37623511Y-16583258D01*
X37623502Y-16583261D01*
X37417267Y-16679431D01*
X37417265Y-16679432D01*
X37230858Y-16809954D01*
X37069954Y-16970858D01*
X37009902Y-17056623D01*
X36955325Y-17100248D01*
X36908327Y-17109500D01*
X34151673Y-17109500D01*
X34084634Y-17089815D01*
X34050098Y-17056623D01*
X33990045Y-16970858D01*
X33829141Y-16809954D01*
X33642734Y-16679432D01*
X33642732Y-16679431D01*
X33436497Y-16583261D01*
X33436488Y-16583258D01*
X33216697Y-16524366D01*
X33216693Y-16524365D01*
X33216692Y-16524365D01*
X33216691Y-16524364D01*
X33216686Y-16524364D01*
X32990002Y-16504532D01*
X32989998Y-16504532D01*
X32763313Y-16524364D01*
X32763302Y-16524366D01*
X32543511Y-16583258D01*
X32543502Y-16583261D01*
X32337267Y-16679431D01*
X32337265Y-16679432D01*
X32150858Y-16809954D01*
X31989954Y-16970858D01*
X31859432Y-17157265D01*
X31859431Y-17157267D01*
X31763261Y-17363502D01*
X31763258Y-17363511D01*
X31704366Y-17583302D01*
X31704364Y-17583313D01*
X31684532Y-17809998D01*
X31684532Y-17810001D01*
X31704364Y-18036686D01*
X31704366Y-18036697D01*
X31763258Y-18256488D01*
X31763261Y-18256497D01*
X31859431Y-18462732D01*
X31859432Y-18462734D01*
X31989954Y-18649141D01*
X32150858Y-18810045D01*
X32168766Y-18822584D01*
X32337266Y-18940568D01*
X32395275Y-18967618D01*
X32447714Y-19013791D01*
X32466866Y-19080984D01*
X32446650Y-19147865D01*
X32395275Y-19192382D01*
X32337267Y-19219431D01*
X32337265Y-19219432D01*
X32150858Y-19349954D01*
X31989954Y-19510858D01*
X31910364Y-19624527D01*
X31862713Y-19692581D01*
X31859435Y-19697262D01*
X31859431Y-19697267D01*
X31763261Y-19903502D01*
X31763258Y-19903511D01*
X31704366Y-20123302D01*
X31704364Y-20123313D01*
X31684532Y-20349998D01*
X31684532Y-20350001D01*
X31704364Y-20576686D01*
X31704366Y-20576697D01*
X31763258Y-20796488D01*
X31763261Y-20796497D01*
X31859431Y-21002732D01*
X31859432Y-21002734D01*
X31989954Y-21189141D01*
X32150857Y-21350044D01*
X32150860Y-21350046D01*
X32150861Y-21350047D01*
X32236623Y-21410097D01*
X32280248Y-21464673D01*
X32289500Y-21511672D01*
X32289500Y-22998326D01*
X32269815Y-23065365D01*
X32236624Y-23099901D01*
X32150863Y-23159951D01*
X31989951Y-23320862D01*
X31859432Y-23507265D01*
X31859430Y-23507268D01*
X31832380Y-23565277D01*
X31786207Y-23617715D01*
X31719013Y-23636866D01*
X31652132Y-23616649D01*
X31607619Y-23565277D01*
X31580568Y-23507266D01*
X31562997Y-23482171D01*
X31450045Y-23320858D01*
X31289141Y-23159954D01*
X31102734Y-23029432D01*
X31102732Y-23029431D01*
X30896497Y-22933261D01*
X30896488Y-22933258D01*
X30676697Y-22874366D01*
X30676693Y-22874365D01*
X30676692Y-22874365D01*
X30676691Y-22874364D01*
X30676686Y-22874364D01*
X30450002Y-22854532D01*
X30449998Y-22854532D01*
X30223313Y-22874364D01*
X30223302Y-22874366D01*
X30003511Y-22933258D01*
X30003502Y-22933261D01*
X29797267Y-23029431D01*
X29797265Y-23029432D01*
X29610858Y-23159954D01*
X29449954Y-23320858D01*
X29329155Y-23493380D01*
X29319432Y-23507266D01*
X29292270Y-23565516D01*
X29292106Y-23565867D01*
X29245933Y-23618306D01*
X29178739Y-23637457D01*
X29111858Y-23617241D01*
X29067342Y-23565865D01*
X29040135Y-23507520D01*
X29040134Y-23507518D01*
X28909657Y-23321179D01*
X28748820Y-23160342D01*
X28562482Y-23029865D01*
X28356328Y-22933734D01*
X28160000Y-22881127D01*
X28160000Y-23844314D01*
X28148045Y-23832359D01*
X28035148Y-23774835D01*
X27941481Y-23760000D01*
X27878519Y-23760000D01*
X27784852Y-23774835D01*
X27671955Y-23832359D01*
X27660000Y-23844313D01*
X27660000Y-22881127D01*
X27463671Y-22933734D01*
X27257517Y-23029865D01*
X27071179Y-23160342D01*
X26910342Y-23321179D01*
X26779865Y-23507517D01*
X26683734Y-23713673D01*
X26683730Y-23713682D01*
X26631127Y-23909999D01*
X26631128Y-23910000D01*
X27594314Y-23910000D01*
X27582359Y-23921955D01*
X27524835Y-24034852D01*
X27505014Y-24160000D01*
X27524835Y-24285148D01*
X27582359Y-24398045D01*
X27594314Y-24410000D01*
X26631128Y-24410000D01*
X26683730Y-24606317D01*
X26683734Y-24606326D01*
X26779865Y-24812482D01*
X26910342Y-24998820D01*
X27071179Y-25159657D01*
X27257517Y-25290134D01*
X27463673Y-25386265D01*
X27463682Y-25386269D01*
X27659999Y-25438872D01*
X27659999Y-25438871D01*
X27659999Y-24475685D01*
X27671955Y-24487641D01*
X27784852Y-24545165D01*
X27878519Y-24560000D01*
X27941481Y-24560000D01*
X28035148Y-24545165D01*
X28148045Y-24487641D01*
X28160000Y-24475686D01*
X28160000Y-25438872D01*
X28356317Y-25386269D01*
X28356326Y-25386265D01*
X28562482Y-25290134D01*
X28748820Y-25159657D01*
X28909657Y-24998820D01*
X29040132Y-24812484D01*
X29067341Y-24754134D01*
X29113513Y-24701695D01*
X29180707Y-24682542D01*
X29247588Y-24702757D01*
X29292105Y-24754132D01*
X29314088Y-24801275D01*
X29319431Y-24812732D01*
X29319432Y-24812734D01*
X29449954Y-24999141D01*
X29610858Y-25160045D01*
X29610861Y-25160047D01*
X29797266Y-25290568D01*
X30003504Y-25386739D01*
X30003509Y-25386740D01*
X30003511Y-25386741D01*
X30056415Y-25400916D01*
X30223308Y-25445635D01*
X30385230Y-25459801D01*
X30449998Y-25465468D01*
X30450000Y-25465468D01*
X30450002Y-25465468D01*
X30506807Y-25460498D01*
X30676692Y-25445635D01*
X30896496Y-25386739D01*
X31102734Y-25290568D01*
X31289139Y-25160047D01*
X31450047Y-24999139D01*
X31580568Y-24812734D01*
X31607619Y-24754721D01*
X31653788Y-24702286D01*
X31720981Y-24683133D01*
X31787862Y-24703348D01*
X31832380Y-24754722D01*
X31859432Y-24812734D01*
X31877004Y-24837830D01*
X31989954Y-24999141D01*
X32150858Y-25160045D01*
X32150861Y-25160047D01*
X32337266Y-25290568D01*
X32543504Y-25386739D01*
X32543509Y-25386740D01*
X32543511Y-25386741D01*
X32596415Y-25400916D01*
X32763308Y-25445635D01*
X32925230Y-25459801D01*
X32989998Y-25465468D01*
X32990000Y-25465468D01*
X32990002Y-25465468D01*
X33046807Y-25460498D01*
X33216692Y-25445635D01*
X33436496Y-25386739D01*
X33642734Y-25290568D01*
X33829139Y-25160047D01*
X33990047Y-24999139D01*
X34120568Y-24812734D01*
X34147618Y-24754724D01*
X34193790Y-24702285D01*
X34260983Y-24683133D01*
X34327865Y-24703348D01*
X34372381Y-24754724D01*
X34386517Y-24785038D01*
X34399429Y-24812728D01*
X34399432Y-24812734D01*
X34529954Y-24999141D01*
X34690858Y-25160045D01*
X34690861Y-25160047D01*
X34877266Y-25290568D01*
X35083504Y-25386739D01*
X35083509Y-25386740D01*
X35083511Y-25386741D01*
X35136415Y-25400916D01*
X35303308Y-25445635D01*
X35465230Y-25459801D01*
X35529998Y-25465468D01*
X35530000Y-25465468D01*
X35530002Y-25465468D01*
X35586807Y-25460498D01*
X35756692Y-25445635D01*
X35976496Y-25386739D01*
X36182734Y-25290568D01*
X36369139Y-25160047D01*
X36530047Y-24999139D01*
X36660568Y-24812734D01*
X36687618Y-24754724D01*
X36733790Y-24702285D01*
X36800983Y-24683133D01*
X36867865Y-24703348D01*
X36912381Y-24754724D01*
X36926517Y-24785038D01*
X36939429Y-24812728D01*
X36939432Y-24812734D01*
X37069954Y-24999141D01*
X37230858Y-25160045D01*
X37230861Y-25160047D01*
X37417266Y-25290568D01*
X37623504Y-25386739D01*
X37623509Y-25386740D01*
X37623511Y-25386741D01*
X37676415Y-25400916D01*
X37843308Y-25445635D01*
X38029348Y-25461911D01*
X38094416Y-25487363D01*
X38135395Y-25543954D01*
X38139273Y-25613716D01*
X38106222Y-25673120D01*
X38023460Y-25755881D01*
X37816160Y-25963182D01*
X37754840Y-25996666D01*
X37728481Y-25999500D01*
X25454863Y-25999500D01*
X25387824Y-25979815D01*
X25342069Y-25927011D01*
X25332125Y-25857853D01*
X25335088Y-25843407D01*
X25385139Y-25656610D01*
X25385141Y-25656599D01*
X25404966Y-25430002D01*
X25404966Y-25429997D01*
X25385141Y-25203400D01*
X25385139Y-25203389D01*
X25326269Y-24983682D01*
X25326265Y-24983673D01*
X25230133Y-24777516D01*
X25230131Y-24777512D01*
X25179025Y-24704526D01*
X24497953Y-25385598D01*
X24485165Y-25304852D01*
X24427641Y-25191955D01*
X24338045Y-25102359D01*
X24225148Y-25044835D01*
X24144400Y-25032046D01*
X24825472Y-24350974D01*
X24825471Y-24350973D01*
X24752483Y-24299866D01*
X24752481Y-24299865D01*
X24546326Y-24203734D01*
X24546317Y-24203730D01*
X24326610Y-24144860D01*
X24326599Y-24144858D01*
X24100002Y-24125034D01*
X24099998Y-24125034D01*
X23873400Y-24144858D01*
X23873389Y-24144860D01*
X23653682Y-24203730D01*
X23653673Y-24203734D01*
X23447513Y-24299868D01*
X23374527Y-24350972D01*
X23374526Y-24350973D01*
X24055600Y-25032046D01*
X23974852Y-25044835D01*
X23861955Y-25102359D01*
X23772359Y-25191955D01*
X23714835Y-25304852D01*
X23702046Y-25385600D01*
X23020973Y-24704527D01*
X22969868Y-24777513D01*
X22873734Y-24983673D01*
X22873730Y-24983682D01*
X22814860Y-25203389D01*
X22814858Y-25203400D01*
X22795034Y-25429997D01*
X22795034Y-25430002D01*
X22814858Y-25656599D01*
X22814860Y-25656610D01*
X22864912Y-25843407D01*
X22863249Y-25913257D01*
X22824086Y-25971119D01*
X22759858Y-25998623D01*
X22745137Y-25999500D01*
X21901519Y-25999500D01*
X21834480Y-25979815D01*
X21813838Y-25963181D01*
X20680776Y-24830119D01*
X19531598Y-23680941D01*
X19529064Y-23678250D01*
X19487929Y-23631817D01*
X19487928Y-23631816D01*
X19487924Y-23631812D01*
X19436896Y-23596591D01*
X19433887Y-23594377D01*
X19385060Y-23556124D01*
X19385055Y-23556120D01*
X19375813Y-23551961D01*
X19356266Y-23540936D01*
X19347931Y-23535183D01*
X19347932Y-23535183D01*
X19347930Y-23535182D01*
X19289941Y-23513189D01*
X19286490Y-23511759D01*
X19229930Y-23486304D01*
X19219946Y-23484474D01*
X19198343Y-23478451D01*
X19188874Y-23474860D01*
X19188870Y-23474859D01*
X19127313Y-23467384D01*
X19123612Y-23466821D01*
X19062608Y-23455642D01*
X19062603Y-23455642D01*
X19000697Y-23459387D01*
X18996952Y-23459500D01*
X17702711Y-23459500D01*
X17635672Y-23439815D01*
X17601136Y-23406623D01*
X17597636Y-23401625D01*
X17539366Y-23318406D01*
X17518494Y-23288597D01*
X17351402Y-23121506D01*
X17351401Y-23121505D01*
X17165405Y-22991269D01*
X17121781Y-22936692D01*
X17114588Y-22867193D01*
X17146110Y-22804839D01*
X17165405Y-22788119D01*
X17351082Y-22658105D01*
X17518105Y-22491082D01*
X17653600Y-22297578D01*
X17753429Y-22083492D01*
X17753432Y-22083486D01*
X17810636Y-21870000D01*
X16913686Y-21870000D01*
X16939493Y-21829844D01*
X16980000Y-21691889D01*
X16980000Y-21548111D01*
X16939493Y-21410156D01*
X16913686Y-21370000D01*
X17810636Y-21370000D01*
X17810635Y-21369999D01*
X17753432Y-21156513D01*
X17753429Y-21156507D01*
X17653600Y-20942422D01*
X17653599Y-20942420D01*
X17518113Y-20748926D01*
X17518108Y-20748920D01*
X17396053Y-20626865D01*
X17362568Y-20565542D01*
X17367552Y-20495850D01*
X17409424Y-20439917D01*
X17440400Y-20423002D01*
X17572331Y-20373796D01*
X17687546Y-20287546D01*
X17773796Y-20172331D01*
X17824091Y-20037483D01*
X17830500Y-19977873D01*
X17830499Y-19054361D01*
X17850183Y-18987323D01*
X17866818Y-18966681D01*
X18046681Y-18786819D01*
X18108004Y-18753334D01*
X18134362Y-18750500D01*
X22717209Y-18750500D01*
X22784248Y-18770185D01*
X22830003Y-18822989D01*
X22833391Y-18831167D01*
X22856202Y-18892328D01*
X22856206Y-18892335D01*
X22942452Y-19007544D01*
X22942455Y-19007547D01*
X23057664Y-19093793D01*
X23057671Y-19093797D01*
X23082448Y-19103038D01*
X23192517Y-19144091D01*
X23252127Y-19150500D01*
X23252153Y-19150499D01*
X23255453Y-19150678D01*
X23255372Y-19152183D01*
X23316672Y-19170112D01*
X23362483Y-19222867D01*
X23370016Y-19266463D01*
X24055600Y-19952046D01*
X23974852Y-19964835D01*
X23861955Y-20022359D01*
X23772359Y-20111955D01*
X23714835Y-20224852D01*
X23702046Y-20305599D01*
X23020973Y-19624526D01*
X23020972Y-19624527D01*
X22969868Y-19697513D01*
X22873734Y-19903673D01*
X22873730Y-19903682D01*
X22814860Y-20123389D01*
X22814858Y-20123400D01*
X22795034Y-20349997D01*
X22795034Y-20350002D01*
X22814858Y-20576599D01*
X22814860Y-20576610D01*
X22873730Y-20796317D01*
X22873734Y-20796326D01*
X22969865Y-21002481D01*
X22969866Y-21002483D01*
X23020973Y-21075471D01*
X23020974Y-21075472D01*
X23702046Y-20394399D01*
X23714835Y-20475148D01*
X23772359Y-20588045D01*
X23861955Y-20677641D01*
X23974852Y-20735165D01*
X24055599Y-20747953D01*
X23374526Y-21429025D01*
X23374526Y-21429026D01*
X23447512Y-21480131D01*
X23447516Y-21480133D01*
X23653673Y-21576265D01*
X23653682Y-21576269D01*
X23873389Y-21635139D01*
X23873400Y-21635141D01*
X24099998Y-21654966D01*
X24100002Y-21654966D01*
X24326599Y-21635141D01*
X24326610Y-21635139D01*
X24546317Y-21576269D01*
X24546331Y-21576264D01*
X24752478Y-21480136D01*
X24825472Y-21429025D01*
X24144401Y-20747953D01*
X24225148Y-20735165D01*
X24338045Y-20677641D01*
X24427641Y-20588045D01*
X24485165Y-20475148D01*
X24497953Y-20394400D01*
X25179025Y-21075472D01*
X25230136Y-21002478D01*
X25326264Y-20796331D01*
X25326269Y-20796317D01*
X25385139Y-20576610D01*
X25385141Y-20576599D01*
X25404966Y-20350002D01*
X25404966Y-20349997D01*
X25385141Y-20123400D01*
X25385139Y-20123389D01*
X25326269Y-19903682D01*
X25326265Y-19903673D01*
X25230133Y-19697516D01*
X25230131Y-19697512D01*
X25179026Y-19624526D01*
X25179025Y-19624526D01*
X24497953Y-20305598D01*
X24485165Y-20224852D01*
X24427641Y-20111955D01*
X24338045Y-20022359D01*
X24225148Y-19964835D01*
X24144400Y-19952046D01*
X24830646Y-19265799D01*
X24840492Y-19216807D01*
X24889107Y-19166624D01*
X24944633Y-19151981D01*
X24944576Y-19150900D01*
X24944571Y-19150854D01*
X24944573Y-19150853D01*
X24944564Y-19150676D01*
X24947857Y-19150499D01*
X24947872Y-19150499D01*
X25007483Y-19144091D01*
X25142331Y-19093796D01*
X25257546Y-19007546D01*
X25343796Y-18892331D01*
X25394091Y-18757483D01*
X25400500Y-18697873D01*
X25400499Y-17002128D01*
X25394091Y-16942517D01*
X25387306Y-16924326D01*
X25343797Y-16807671D01*
X25343793Y-16807664D01*
X25257547Y-16692455D01*
X25257544Y-16692452D01*
X25142335Y-16606206D01*
X25142328Y-16606202D01*
X25007482Y-16555908D01*
X25007483Y-16555908D01*
X24947883Y-16549501D01*
X24947881Y-16549500D01*
X24947873Y-16549500D01*
X24947864Y-16549500D01*
X23252129Y-16549500D01*
X23252123Y-16549501D01*
X23192516Y-16555908D01*
X23057671Y-16606202D01*
X23057664Y-16606206D01*
X22942455Y-16692452D01*
X22942452Y-16692455D01*
X22856206Y-16807664D01*
X22856202Y-16807671D01*
X22833391Y-16868833D01*
X22791520Y-16924767D01*
X22726056Y-16949184D01*
X22717209Y-16949500D01*
X17790627Y-16949500D01*
X17771228Y-16947973D01*
X17757388Y-16945781D01*
X17688041Y-16949415D01*
X17684798Y-16949500D01*
X17662808Y-16949500D01*
X17656559Y-16950156D01*
X17640941Y-16951797D01*
X17637710Y-16952051D01*
X17568358Y-16955686D01*
X17568353Y-16955687D01*
X17554803Y-16959317D01*
X17535691Y-16962859D01*
X17521749Y-16964325D01*
X17521737Y-16964327D01*
X17469469Y-16981310D01*
X17455687Y-16985788D01*
X17452607Y-16986701D01*
X17415695Y-16996591D01*
X17385514Y-17004679D01*
X17373020Y-17011045D01*
X17355053Y-17018487D01*
X17341714Y-17022821D01*
X17281591Y-17057533D01*
X17278740Y-17059081D01*
X17216850Y-17090617D01*
X17205951Y-17099442D01*
X17189931Y-17110452D01*
X17177787Y-17117464D01*
X17177783Y-17117467D01*
X17126190Y-17163921D01*
X17123726Y-17166026D01*
X17106620Y-17179879D01*
X17091056Y-17195443D01*
X17088719Y-17197660D01*
X17079320Y-17206124D01*
X17037113Y-17244127D01*
X17037105Y-17244136D01*
X17028872Y-17255468D01*
X17016238Y-17270260D01*
X16593317Y-17693181D01*
X16531994Y-17726666D01*
X16505636Y-17729500D01*
X15582129Y-17729500D01*
X15582123Y-17729501D01*
X15522516Y-17735908D01*
X15387671Y-17786202D01*
X15387664Y-17786206D01*
X15272455Y-17872452D01*
X15272452Y-17872455D01*
X15186206Y-17987664D01*
X15186202Y-17987671D01*
X15135908Y-18122517D01*
X15129501Y-18182116D01*
X15129500Y-18182135D01*
X15129500Y-19977870D01*
X15129501Y-19977876D01*
X15135908Y-20037483D01*
X15186202Y-20172328D01*
X15186206Y-20172335D01*
X15272452Y-20287544D01*
X15272455Y-20287547D01*
X15387664Y-20373793D01*
X15387671Y-20373797D01*
X15387674Y-20373798D01*
X15519598Y-20423002D01*
X15575531Y-20464873D01*
X15599949Y-20530337D01*
X15585098Y-20598610D01*
X15563947Y-20626865D01*
X15441886Y-20748926D01*
X15306400Y-20942420D01*
X15306399Y-20942422D01*
X15206570Y-21156507D01*
X15206567Y-21156513D01*
X15149364Y-21369999D01*
X15149364Y-21370000D01*
X16046314Y-21370000D01*
X16020507Y-21410156D01*
X15980000Y-21548111D01*
X15980000Y-21691889D01*
X16020507Y-21829844D01*
X16046314Y-21870000D01*
X15149364Y-21870000D01*
X15206567Y-22083486D01*
X15206570Y-22083492D01*
X15306399Y-22297578D01*
X15441894Y-22491082D01*
X15608917Y-22658105D01*
X15794595Y-22788119D01*
X15838219Y-22842696D01*
X15845412Y-22912195D01*
X15813890Y-22974549D01*
X15794595Y-22991269D01*
X15608594Y-23121508D01*
X15441505Y-23288597D01*
X15305965Y-23482169D01*
X15305964Y-23482171D01*
X15206098Y-23696335D01*
X15206094Y-23696344D01*
X15144938Y-23924586D01*
X15144936Y-23924596D01*
X15124341Y-24159999D01*
X15124341Y-24160000D01*
X15144936Y-24395403D01*
X15144938Y-24395413D01*
X15206094Y-24623655D01*
X15206096Y-24623659D01*
X15206097Y-24623663D01*
X15267213Y-24754726D01*
X15305965Y-24837830D01*
X15305967Y-24837834D01*
X15386625Y-24953024D01*
X15436122Y-25023714D01*
X15441501Y-25031395D01*
X15441506Y-25031402D01*
X15608597Y-25198493D01*
X15608603Y-25198498D01*
X15794158Y-25328425D01*
X15837783Y-25383002D01*
X15844977Y-25452500D01*
X15813454Y-25514855D01*
X15794158Y-25531575D01*
X15608597Y-25661505D01*
X15441505Y-25828597D01*
X15305965Y-26022169D01*
X15305964Y-26022171D01*
X15206098Y-26236335D01*
X15206094Y-26236344D01*
X15144938Y-26464586D01*
X15144936Y-26464596D01*
X15124341Y-26699999D01*
X15124341Y-26700000D01*
X15144936Y-26935403D01*
X15144938Y-26935413D01*
X15206094Y-27163655D01*
X15206096Y-27163659D01*
X15206097Y-27163663D01*
X15304035Y-27373692D01*
X15305965Y-27377830D01*
X15305967Y-27377834D01*
X15441501Y-27571395D01*
X15441506Y-27571402D01*
X15608597Y-27738493D01*
X15608603Y-27738498D01*
X15794158Y-27868425D01*
X15837783Y-27923002D01*
X15844977Y-27992500D01*
X15813454Y-28054855D01*
X15794158Y-28071575D01*
X15608597Y-28201505D01*
X15441505Y-28368597D01*
X15305965Y-28562169D01*
X15305964Y-28562171D01*
X15206098Y-28776335D01*
X15206094Y-28776344D01*
X15144938Y-29004586D01*
X15144936Y-29004596D01*
X15124341Y-29239999D01*
X15124341Y-29240000D01*
X15144936Y-29475403D01*
X15144938Y-29475413D01*
X15206094Y-29703655D01*
X15206096Y-29703659D01*
X15206097Y-29703663D01*
X15277724Y-29857267D01*
X15305965Y-29917830D01*
X15305967Y-29917834D01*
X15441501Y-30111395D01*
X15441506Y-30111402D01*
X15608597Y-30278493D01*
X15608603Y-30278498D01*
X15794158Y-30408425D01*
X15837783Y-30463002D01*
X15844977Y-30532500D01*
X15813454Y-30594855D01*
X15794158Y-30611575D01*
X15608597Y-30741505D01*
X15441505Y-30908597D01*
X15305965Y-31102169D01*
X15305964Y-31102171D01*
X15206098Y-31316335D01*
X15206094Y-31316344D01*
X15144938Y-31544586D01*
X15144936Y-31544596D01*
X15124341Y-31779999D01*
X15124341Y-31780000D01*
X15144936Y-32015403D01*
X15144938Y-32015413D01*
X15206094Y-32243655D01*
X15206096Y-32243659D01*
X15206097Y-32243663D01*
X15267213Y-32374726D01*
X15305965Y-32457830D01*
X15305967Y-32457834D01*
X15414281Y-32612521D01*
X15439014Y-32647844D01*
X15441501Y-32651395D01*
X15441506Y-32651402D01*
X15608597Y-32818493D01*
X15608603Y-32818498D01*
X15794158Y-32948425D01*
X15837783Y-33003002D01*
X15844977Y-33072500D01*
X15813454Y-33134855D01*
X15794158Y-33151575D01*
X15608597Y-33281505D01*
X15441505Y-33448597D01*
X15305965Y-33642169D01*
X15305964Y-33642171D01*
X15206098Y-33856335D01*
X15206094Y-33856344D01*
X15144938Y-34084586D01*
X15144936Y-34084596D01*
X15124341Y-34319999D01*
X15124341Y-34320000D01*
X15144936Y-34555403D01*
X15144938Y-34555413D01*
X15206094Y-34783655D01*
X15206096Y-34783659D01*
X15206097Y-34783663D01*
X15277724Y-34937267D01*
X15305965Y-34997830D01*
X15305967Y-34997834D01*
X15441501Y-35191395D01*
X15441506Y-35191402D01*
X15608597Y-35358493D01*
X15608603Y-35358498D01*
X15794158Y-35488425D01*
X15837783Y-35543002D01*
X15844977Y-35612500D01*
X15813454Y-35674855D01*
X15794158Y-35691575D01*
X15608597Y-35821505D01*
X15441505Y-35988597D01*
X15305965Y-36182169D01*
X15305964Y-36182171D01*
X15206098Y-36396335D01*
X15206094Y-36396344D01*
X15144938Y-36624586D01*
X15144936Y-36624596D01*
X15124341Y-36859999D01*
X15124341Y-36860000D01*
X15144936Y-37095403D01*
X15144938Y-37095413D01*
X15206094Y-37323655D01*
X15206096Y-37323659D01*
X15206097Y-37323663D01*
X15255450Y-37429500D01*
X15305965Y-37537830D01*
X15305967Y-37537834D01*
X15386143Y-37652336D01*
X15441505Y-37731401D01*
X15608599Y-37898495D01*
X15615473Y-37903308D01*
X15802165Y-38034032D01*
X15802167Y-38034033D01*
X15802170Y-38034035D01*
X16016337Y-38133903D01*
X16244592Y-38195063D01*
X16432918Y-38211539D01*
X16479999Y-38215659D01*
X16480000Y-38215659D01*
X16480001Y-38215659D01*
X16519234Y-38212226D01*
X16715408Y-38195063D01*
X16732216Y-38190559D01*
X16802064Y-38192218D01*
X16851993Y-38222651D01*
X19778399Y-41149056D01*
X19780935Y-41151750D01*
X19822071Y-41198183D01*
X19844189Y-41213450D01*
X19888179Y-41267733D01*
X19895839Y-41337182D01*
X19864735Y-41399747D01*
X19804744Y-41435564D01*
X19773749Y-41439500D01*
X16845146Y-41439500D01*
X16778107Y-41419815D01*
X16732352Y-41367011D01*
X16721146Y-41315500D01*
X16721146Y-40757248D01*
X15804832Y-40757248D01*
X15830639Y-40717092D01*
X15871146Y-40579137D01*
X15871146Y-40435359D01*
X15830639Y-40297404D01*
X15804832Y-40257248D01*
X16721145Y-40257248D01*
X16721146Y-39609420D01*
X16721145Y-39609403D01*
X16714744Y-39549875D01*
X16714742Y-39549868D01*
X16664500Y-39415161D01*
X16664496Y-39415154D01*
X16578336Y-39300060D01*
X16578333Y-39300057D01*
X16463239Y-39213897D01*
X16463232Y-39213893D01*
X16328525Y-39163651D01*
X16328518Y-39163649D01*
X16268990Y-39157248D01*
X15621146Y-39157248D01*
X15621146Y-40071746D01*
X15513461Y-40022568D01*
X15406909Y-40007248D01*
X15335383Y-40007248D01*
X15228831Y-40022568D01*
X15121146Y-40071746D01*
X15121146Y-39157248D01*
X14564500Y-39157248D01*
X14497461Y-39137563D01*
X14451706Y-39084759D01*
X14440500Y-39033248D01*
X14440500Y-16837548D01*
X14460185Y-16770509D01*
X14512989Y-16724754D01*
X14564500Y-16713548D01*
X15121146Y-16713548D01*
X15121146Y-15799049D01*
X15228831Y-15848228D01*
X15335383Y-15863548D01*
X15406909Y-15863548D01*
X15513461Y-15848228D01*
X15621146Y-15799049D01*
X15621146Y-16713548D01*
X16268974Y-16713548D01*
X16268990Y-16713547D01*
X16328518Y-16707146D01*
X16328525Y-16707144D01*
X16463232Y-16656902D01*
X16463239Y-16656898D01*
X16578333Y-16570738D01*
X16578336Y-16570735D01*
X16664496Y-16455641D01*
X16664500Y-16455634D01*
X16714742Y-16320927D01*
X16714744Y-16320920D01*
X16721145Y-16261392D01*
X16721146Y-16261375D01*
X16721146Y-15613548D01*
X15804832Y-15613548D01*
X15830639Y-15573392D01*
X15871146Y-15435437D01*
X15871146Y-15291659D01*
X15830639Y-15153704D01*
X15804832Y-15113548D01*
X16721145Y-15113548D01*
X16721146Y-14564500D01*
X16740831Y-14497461D01*
X16793635Y-14451706D01*
X16845146Y-14440500D01*
X63032439Y-14440500D01*
X63099478Y-14460185D01*
G37*
%TD.AperFunction*%
%TA.AperFunction,Conductor*%
G36*
X49895940Y-18790072D02*
G01*
X49925981Y-18807576D01*
X49926426Y-18806942D01*
X50030807Y-18880029D01*
X50117266Y-18940568D01*
X50175275Y-18967618D01*
X50227714Y-19013791D01*
X50246866Y-19080984D01*
X50226650Y-19147865D01*
X50175275Y-19192382D01*
X50117267Y-19219431D01*
X50117265Y-19219432D01*
X49930858Y-19349954D01*
X49769954Y-19510858D01*
X49690364Y-19624527D01*
X49642713Y-19692581D01*
X49639435Y-19697262D01*
X49639431Y-19697267D01*
X49543261Y-19903502D01*
X49543258Y-19903511D01*
X49484366Y-20123302D01*
X49484364Y-20123313D01*
X49464532Y-20349998D01*
X49464532Y-20350001D01*
X49484364Y-20576686D01*
X49484366Y-20576697D01*
X49543258Y-20796488D01*
X49543261Y-20796497D01*
X49639431Y-21002732D01*
X49639432Y-21002734D01*
X49769954Y-21189141D01*
X49930857Y-21350044D01*
X49930860Y-21350046D01*
X49930861Y-21350047D01*
X50016623Y-21410097D01*
X50060248Y-21464673D01*
X50069500Y-21511672D01*
X50069500Y-22998326D01*
X50049815Y-23065365D01*
X50016624Y-23099901D01*
X49930863Y-23159951D01*
X49769951Y-23320862D01*
X49639432Y-23507265D01*
X49639431Y-23507267D01*
X49543261Y-23713502D01*
X49543258Y-23713511D01*
X49484366Y-23933302D01*
X49484364Y-23933313D01*
X49464532Y-24159998D01*
X49464532Y-24160001D01*
X49484364Y-24386686D01*
X49484366Y-24386697D01*
X49543258Y-24606488D01*
X49543261Y-24606497D01*
X49639431Y-24812732D01*
X49639432Y-24812734D01*
X49769954Y-24999141D01*
X49930858Y-25160045D01*
X49930861Y-25160047D01*
X50117266Y-25290568D01*
X50175865Y-25317893D01*
X50228305Y-25364065D01*
X50247457Y-25431258D01*
X50227242Y-25498139D01*
X50175867Y-25542657D01*
X50117511Y-25569869D01*
X50044527Y-25620972D01*
X50044526Y-25620973D01*
X50725600Y-26302046D01*
X50644852Y-26314835D01*
X50531955Y-26372359D01*
X50442359Y-26461955D01*
X50384835Y-26574852D01*
X50372046Y-26655598D01*
X49690973Y-25974526D01*
X49639868Y-26047513D01*
X49543734Y-26253673D01*
X49543730Y-26253682D01*
X49484860Y-26473389D01*
X49484858Y-26473400D01*
X49465034Y-26699997D01*
X49465034Y-26700002D01*
X49484858Y-26926599D01*
X49484860Y-26926610D01*
X49543730Y-27146317D01*
X49543734Y-27146326D01*
X49639865Y-27352481D01*
X49639866Y-27352483D01*
X49690973Y-27425471D01*
X49690973Y-27425472D01*
X50372045Y-26744399D01*
X50384835Y-26825148D01*
X50442359Y-26938045D01*
X50531955Y-27027641D01*
X50644852Y-27085165D01*
X50725599Y-27097953D01*
X50044526Y-27779025D01*
X50044526Y-27779026D01*
X50117512Y-27830131D01*
X50117516Y-27830133D01*
X50323673Y-27926265D01*
X50323682Y-27926269D01*
X50543389Y-27985139D01*
X50543400Y-27985141D01*
X50769998Y-28004966D01*
X50770002Y-28004966D01*
X50996599Y-27985141D01*
X50996610Y-27985139D01*
X51216317Y-27926269D01*
X51216331Y-27926264D01*
X51422478Y-27830136D01*
X51495472Y-27779025D01*
X50814401Y-27097953D01*
X50895148Y-27085165D01*
X51008045Y-27027641D01*
X51097641Y-26938045D01*
X51155165Y-26825148D01*
X51167953Y-26744399D01*
X51849025Y-27425472D01*
X51900136Y-27352478D01*
X51996264Y-27146331D01*
X51996269Y-27146317D01*
X52055139Y-26926610D01*
X52055141Y-26926599D01*
X52074966Y-26700002D01*
X52074966Y-26699997D01*
X52055141Y-26473400D01*
X52055139Y-26473389D01*
X51996269Y-26253682D01*
X51996265Y-26253673D01*
X51900133Y-26047516D01*
X51900131Y-26047512D01*
X51849026Y-25974526D01*
X51849025Y-25974526D01*
X51167953Y-26655597D01*
X51155165Y-26574852D01*
X51097641Y-26461955D01*
X51008045Y-26372359D01*
X50895148Y-26314835D01*
X50814400Y-26302046D01*
X51495472Y-25620974D01*
X51495471Y-25620973D01*
X51422483Y-25569866D01*
X51422481Y-25569865D01*
X51364133Y-25542657D01*
X51311694Y-25496484D01*
X51292542Y-25429291D01*
X51312758Y-25362410D01*
X51364129Y-25317895D01*
X51422734Y-25290568D01*
X51609139Y-25160047D01*
X51770047Y-24999139D01*
X51900568Y-24812734D01*
X51996739Y-24606496D01*
X52055635Y-24386692D01*
X52075468Y-24160000D01*
X52074143Y-24144860D01*
X52055635Y-23933313D01*
X52055635Y-23933308D01*
X51996739Y-23713504D01*
X51900568Y-23507266D01*
X51787273Y-23345462D01*
X51770048Y-23320862D01*
X51694142Y-23244956D01*
X51609139Y-23159953D01*
X51523376Y-23099901D01*
X51479751Y-23045324D01*
X51470500Y-22998326D01*
X51470500Y-21511672D01*
X51490185Y-21444633D01*
X51523375Y-21410098D01*
X51609139Y-21350047D01*
X51770047Y-21189139D01*
X51900568Y-21002734D01*
X51996739Y-20796496D01*
X52055635Y-20576692D01*
X52075468Y-20350000D01*
X52074627Y-20340393D01*
X52069917Y-20286549D01*
X52055635Y-20123308D01*
X52055633Y-20123303D01*
X52055180Y-20118117D01*
X52068946Y-20049617D01*
X52091020Y-20019635D01*
X52293839Y-19816816D01*
X52355162Y-19783334D01*
X52381519Y-19780500D01*
X53530989Y-19780500D01*
X53598028Y-19800185D01*
X53632563Y-19833375D01*
X53656157Y-19867071D01*
X53656474Y-19867523D01*
X53807478Y-20018527D01*
X53807481Y-20018529D01*
X53982419Y-20141021D01*
X53982421Y-20141022D01*
X53982420Y-20141022D01*
X54036261Y-20166128D01*
X54175970Y-20231276D01*
X54382253Y-20286549D01*
X54534215Y-20299844D01*
X54594998Y-20305162D01*
X54595000Y-20305162D01*
X54595002Y-20305162D01*
X54648186Y-20300508D01*
X54807747Y-20286549D01*
X55014030Y-20231276D01*
X55207581Y-20141021D01*
X55382519Y-20018529D01*
X55533529Y-19867519D01*
X55656021Y-19692581D01*
X55746276Y-19499030D01*
X55746280Y-19499013D01*
X55748130Y-19493936D01*
X55750253Y-19494709D01*
X55781576Y-19443305D01*
X55844419Y-19412766D01*
X55913796Y-19421050D01*
X55967680Y-19465528D01*
X55980827Y-19494315D01*
X55981870Y-19493936D01*
X55983722Y-19499023D01*
X55983724Y-19499030D01*
X55989240Y-19510858D01*
X56073977Y-19692578D01*
X56073978Y-19692580D01*
X56073979Y-19692581D01*
X56098574Y-19727707D01*
X56196472Y-19867521D01*
X56347478Y-20018527D01*
X56347481Y-20018529D01*
X56522419Y-20141021D01*
X56522421Y-20141022D01*
X56522420Y-20141022D01*
X56576261Y-20166128D01*
X56715970Y-20231276D01*
X56922253Y-20286549D01*
X57074215Y-20299844D01*
X57134998Y-20305162D01*
X57135000Y-20305162D01*
X57135001Y-20305162D01*
X57154968Y-20303414D01*
X57293038Y-20291335D01*
X57361536Y-20305101D01*
X57391525Y-20327182D01*
X57653181Y-20588838D01*
X57686666Y-20650161D01*
X57689500Y-20676519D01*
X57689500Y-24139950D01*
X57669815Y-24206989D01*
X57617011Y-24252744D01*
X57547853Y-24262688D01*
X57518061Y-24254517D01*
X57514348Y-24252979D01*
X57321031Y-24194337D01*
X57120000Y-24174538D01*
X56918968Y-24194337D01*
X56780959Y-24236202D01*
X56725659Y-24252977D01*
X56725658Y-24252977D01*
X56724575Y-24253306D01*
X56654708Y-24253929D01*
X56625618Y-24239529D01*
X56625114Y-24240454D01*
X56617328Y-24236202D01*
X56482482Y-24185908D01*
X56482483Y-24185908D01*
X56422883Y-24179501D01*
X56422881Y-24179500D01*
X56422873Y-24179500D01*
X56422864Y-24179500D01*
X55277129Y-24179500D01*
X55277123Y-24179501D01*
X55217516Y-24185908D01*
X55082671Y-24236202D01*
X55082664Y-24236206D01*
X54967455Y-24322452D01*
X54967452Y-24322455D01*
X54881206Y-24437664D01*
X54881202Y-24437671D01*
X54830908Y-24572517D01*
X54824501Y-24632116D01*
X54824500Y-24632135D01*
X54824500Y-26227870D01*
X54824501Y-26227876D01*
X54830908Y-26287483D01*
X54881202Y-26422328D01*
X54881206Y-26422335D01*
X54967452Y-26537544D01*
X54967455Y-26537547D01*
X55082663Y-26623792D01*
X55082665Y-26623793D01*
X55082669Y-26623796D01*
X55082673Y-26623797D01*
X55084924Y-26625027D01*
X55086746Y-26626849D01*
X55089769Y-26629112D01*
X55089443Y-26629546D01*
X55134331Y-26674431D01*
X55149500Y-26733861D01*
X55149500Y-29348326D01*
X55129815Y-29415365D01*
X55096624Y-29449901D01*
X55010863Y-29509951D01*
X54849951Y-29670862D01*
X54789902Y-29756623D01*
X54735325Y-29800248D01*
X54688327Y-29809500D01*
X54471673Y-29809500D01*
X54404634Y-29789815D01*
X54370098Y-29756623D01*
X54310045Y-29670858D01*
X54149141Y-29509954D01*
X53962734Y-29379432D01*
X53962732Y-29379431D01*
X53756497Y-29283261D01*
X53756488Y-29283258D01*
X53536697Y-29224366D01*
X53536693Y-29224365D01*
X53536692Y-29224365D01*
X53536691Y-29224364D01*
X53536686Y-29224364D01*
X53310002Y-29204532D01*
X53309998Y-29204532D01*
X53083313Y-29224364D01*
X53083302Y-29224366D01*
X52863511Y-29283258D01*
X52863502Y-29283261D01*
X52657267Y-29379431D01*
X52657265Y-29379432D01*
X52470858Y-29509954D01*
X52309954Y-29670858D01*
X52179433Y-29857264D01*
X52152106Y-29915867D01*
X52105933Y-29968306D01*
X52038739Y-29987457D01*
X51971858Y-29967241D01*
X51927342Y-29915865D01*
X51900135Y-29857520D01*
X51900131Y-29857512D01*
X51849026Y-29784526D01*
X51849025Y-29784526D01*
X51167953Y-30465597D01*
X51155165Y-30384852D01*
X51097641Y-30271955D01*
X51008045Y-30182359D01*
X50895148Y-30124835D01*
X50814400Y-30112046D01*
X51495472Y-29430974D01*
X51495471Y-29430973D01*
X51422483Y-29379866D01*
X51422481Y-29379865D01*
X51216326Y-29283734D01*
X51216317Y-29283730D01*
X50996610Y-29224860D01*
X50996599Y-29224858D01*
X50770002Y-29205034D01*
X50769998Y-29205034D01*
X50543400Y-29224858D01*
X50543389Y-29224860D01*
X50323682Y-29283730D01*
X50323673Y-29283734D01*
X50117513Y-29379868D01*
X50044527Y-29430972D01*
X50044526Y-29430973D01*
X50725600Y-30112046D01*
X50644852Y-30124835D01*
X50531955Y-30182359D01*
X50442359Y-30271955D01*
X50384835Y-30384852D01*
X50372046Y-30465598D01*
X49690973Y-29784526D01*
X49639868Y-29857513D01*
X49543734Y-30063673D01*
X49543730Y-30063682D01*
X49484860Y-30283389D01*
X49484858Y-30283400D01*
X49465034Y-30509997D01*
X49465034Y-30510002D01*
X49484858Y-30736599D01*
X49484860Y-30736610D01*
X49543730Y-30956317D01*
X49543734Y-30956326D01*
X49639865Y-31162481D01*
X49639866Y-31162483D01*
X49690973Y-31235471D01*
X49690973Y-31235472D01*
X50372045Y-30554399D01*
X50384835Y-30635148D01*
X50442359Y-30748045D01*
X50531955Y-30837641D01*
X50644852Y-30895165D01*
X50725599Y-30907953D01*
X50044526Y-31589025D01*
X50044526Y-31589026D01*
X50117512Y-31640131D01*
X50117516Y-31640133D01*
X50323673Y-31736265D01*
X50323682Y-31736269D01*
X50543389Y-31795139D01*
X50543400Y-31795141D01*
X50769998Y-31814966D01*
X50770002Y-31814966D01*
X50996599Y-31795141D01*
X50996610Y-31795139D01*
X51216317Y-31736269D01*
X51216331Y-31736264D01*
X51422478Y-31640136D01*
X51495472Y-31589025D01*
X50814401Y-30907953D01*
X50895148Y-30895165D01*
X51008045Y-30837641D01*
X51097641Y-30748045D01*
X51155165Y-30635148D01*
X51167953Y-30554399D01*
X51849025Y-31235472D01*
X51900133Y-31162482D01*
X51927341Y-31104135D01*
X51973513Y-31051696D01*
X52040707Y-31032543D01*
X52107588Y-31052758D01*
X52152105Y-31104132D01*
X52179432Y-31162734D01*
X52179433Y-31162735D01*
X52309954Y-31349141D01*
X52470858Y-31510045D01*
X52470861Y-31510047D01*
X52657266Y-31640568D01*
X52863504Y-31736739D01*
X53083308Y-31795635D01*
X53245230Y-31809801D01*
X53309998Y-31815468D01*
X53310000Y-31815468D01*
X53310002Y-31815468D01*
X53366673Y-31810509D01*
X53536692Y-31795635D01*
X53756496Y-31736739D01*
X53962734Y-31640568D01*
X54149139Y-31510047D01*
X54310047Y-31349139D01*
X54370096Y-31263377D01*
X54424675Y-31219752D01*
X54471673Y-31210500D01*
X54688327Y-31210500D01*
X54755366Y-31230185D01*
X54789902Y-31263377D01*
X54849954Y-31349141D01*
X55010858Y-31510045D01*
X55010861Y-31510047D01*
X55197266Y-31640568D01*
X55403504Y-31736739D01*
X55623308Y-31795635D01*
X55785230Y-31809801D01*
X55849998Y-31815468D01*
X55850000Y-31815468D01*
X55850002Y-31815468D01*
X55906672Y-31810509D01*
X56076692Y-31795635D01*
X56296496Y-31736739D01*
X56502734Y-31640568D01*
X56689139Y-31510047D01*
X56850047Y-31349139D01*
X56980568Y-31162734D01*
X57007618Y-31104724D01*
X57053790Y-31052285D01*
X57120983Y-31033133D01*
X57187865Y-31053348D01*
X57232381Y-31104724D01*
X57242892Y-31127265D01*
X57259429Y-31162728D01*
X57259432Y-31162734D01*
X57389954Y-31349141D01*
X57550858Y-31510045D01*
X57550861Y-31510047D01*
X57737266Y-31640568D01*
X57943504Y-31736739D01*
X58163308Y-31795635D01*
X58325230Y-31809801D01*
X58389998Y-31815468D01*
X58390000Y-31815468D01*
X58390002Y-31815468D01*
X58446672Y-31810509D01*
X58616692Y-31795635D01*
X58836496Y-31736739D01*
X59042734Y-31640568D01*
X59229139Y-31510047D01*
X59390047Y-31349139D01*
X59520568Y-31162734D01*
X59616739Y-30956496D01*
X59675635Y-30736692D01*
X59695468Y-30510000D01*
X59675635Y-30283308D01*
X59675633Y-30283303D01*
X59675180Y-30278117D01*
X59688946Y-30209617D01*
X59711024Y-30179631D01*
X61185048Y-28705606D01*
X61187740Y-28703072D01*
X61234183Y-28661929D01*
X61269427Y-28610867D01*
X61271634Y-28607869D01*
X61273003Y-28606122D01*
X61309878Y-28559056D01*
X61314037Y-28549813D01*
X61325061Y-28530268D01*
X61330818Y-28521930D01*
X61352810Y-28463939D01*
X61354232Y-28460503D01*
X61379695Y-28403931D01*
X61381522Y-28393959D01*
X61387546Y-28372347D01*
X61391140Y-28362872D01*
X61398613Y-28301324D01*
X61399177Y-28297619D01*
X61402535Y-28279289D01*
X61410358Y-28236606D01*
X61406613Y-28174696D01*
X61406500Y-28170951D01*
X61406500Y-25995517D01*
X61426185Y-25928478D01*
X61442815Y-25907840D01*
X62302700Y-25047954D01*
X62364021Y-25014471D01*
X62433712Y-25019455D01*
X62478060Y-25047956D01*
X62598597Y-25168493D01*
X62598603Y-25168498D01*
X62641443Y-25198495D01*
X62772934Y-25290566D01*
X62784594Y-25298730D01*
X62828219Y-25353307D01*
X62835413Y-25422805D01*
X62803890Y-25485160D01*
X62784595Y-25501880D01*
X62598922Y-25631890D01*
X62598920Y-25631891D01*
X62431891Y-25798920D01*
X62431886Y-25798926D01*
X62296400Y-25992420D01*
X62296399Y-25992422D01*
X62196570Y-26206507D01*
X62196567Y-26206513D01*
X62139364Y-26419999D01*
X62139364Y-26420000D01*
X63036314Y-26420000D01*
X63010507Y-26460156D01*
X62970000Y-26598111D01*
X62970000Y-26741889D01*
X63010507Y-26879844D01*
X63036314Y-26920000D01*
X62139364Y-26920000D01*
X62196567Y-27133486D01*
X62196570Y-27133492D01*
X62296399Y-27347578D01*
X62431894Y-27541082D01*
X62598917Y-27708105D01*
X62784595Y-27838119D01*
X62828219Y-27892696D01*
X62835412Y-27962195D01*
X62803890Y-28024549D01*
X62784595Y-28041269D01*
X62598594Y-28171508D01*
X62431508Y-28338594D01*
X62349173Y-28456181D01*
X62294596Y-28499806D01*
X62240112Y-28508831D01*
X62187398Y-28505642D01*
X62187390Y-28505643D01*
X62126402Y-28516819D01*
X62122701Y-28517382D01*
X62061125Y-28524860D01*
X62051642Y-28528456D01*
X62030038Y-28534478D01*
X62028535Y-28534754D01*
X62020065Y-28536306D01*
X61963522Y-28561754D01*
X61960063Y-28563187D01*
X61923867Y-28576915D01*
X61902070Y-28585182D01*
X61902068Y-28585183D01*
X61902066Y-28585184D01*
X61902061Y-28585186D01*
X61893722Y-28590942D01*
X61874190Y-28601959D01*
X61864946Y-28606120D01*
X61864944Y-28606121D01*
X61864943Y-28606122D01*
X61858861Y-28610887D01*
X61816124Y-28644368D01*
X61813109Y-28646586D01*
X61762068Y-28681818D01*
X61720942Y-28728240D01*
X61718375Y-28730966D01*
X60480966Y-29968375D01*
X60478240Y-29970942D01*
X60431818Y-30012068D01*
X60396586Y-30063109D01*
X60394368Y-30066124D01*
X60356124Y-30114939D01*
X60356119Y-30114948D01*
X60351960Y-30124188D01*
X60340942Y-30143723D01*
X60335187Y-30152061D01*
X60335183Y-30152067D01*
X60335182Y-30152070D01*
X60335180Y-30152074D01*
X60335179Y-30152077D01*
X60313189Y-30210055D01*
X60311757Y-30213513D01*
X60306607Y-30224957D01*
X60286305Y-30270068D01*
X60284761Y-30278495D01*
X60284477Y-30280042D01*
X60278453Y-30301653D01*
X60274860Y-30311127D01*
X60274859Y-30311128D01*
X60267384Y-30372685D01*
X60266821Y-30376386D01*
X60255642Y-30437390D01*
X60255642Y-30437395D01*
X60259387Y-30499302D01*
X60259500Y-30503047D01*
X60259500Y-35218480D01*
X60239815Y-35285519D01*
X60223181Y-35306161D01*
X59536945Y-35992396D01*
X59475622Y-36025881D01*
X59405930Y-36020897D01*
X59361583Y-35992396D01*
X59229141Y-35859954D01*
X59042734Y-35729432D01*
X59042732Y-35729431D01*
X58836497Y-35633261D01*
X58836488Y-35633258D01*
X58616697Y-35574366D01*
X58616693Y-35574365D01*
X58616692Y-35574365D01*
X58616691Y-35574364D01*
X58616686Y-35574364D01*
X58390002Y-35554532D01*
X58389998Y-35554532D01*
X58163313Y-35574364D01*
X58163302Y-35574366D01*
X57943511Y-35633258D01*
X57943502Y-35633261D01*
X57737267Y-35729431D01*
X57737265Y-35729432D01*
X57550862Y-35859951D01*
X57393726Y-36017087D01*
X57332403Y-36050571D01*
X57262711Y-36045587D01*
X57206778Y-36003715D01*
X57185369Y-35957923D01*
X57184091Y-35952518D01*
X57181592Y-35945819D01*
X57133796Y-35817669D01*
X57133795Y-35817668D01*
X57133793Y-35817664D01*
X57047547Y-35702455D01*
X57047544Y-35702452D01*
X56932335Y-35616206D01*
X56932328Y-35616202D01*
X56797482Y-35565908D01*
X56797483Y-35565908D01*
X56737883Y-35559501D01*
X56737881Y-35559500D01*
X56737873Y-35559500D01*
X56737864Y-35559500D01*
X55042129Y-35559500D01*
X55042123Y-35559501D01*
X54982516Y-35565908D01*
X54847671Y-35616202D01*
X54847664Y-35616206D01*
X54732455Y-35702452D01*
X54732452Y-35702455D01*
X54646206Y-35817664D01*
X54646202Y-35817671D01*
X54595908Y-35952517D01*
X54589501Y-36012116D01*
X54589500Y-36012135D01*
X54589500Y-37078480D01*
X54569815Y-37145519D01*
X54553181Y-37166161D01*
X51786162Y-39933181D01*
X51724839Y-39966666D01*
X51698481Y-39969500D01*
X20631519Y-39969500D01*
X20564480Y-39949815D01*
X20543838Y-39933181D01*
X17842651Y-37231994D01*
X17809166Y-37170671D01*
X17810558Y-37112217D01*
X17815063Y-37095408D01*
X17835659Y-36860000D01*
X17815063Y-36624592D01*
X17753903Y-36396337D01*
X17654035Y-36182171D01*
X17596703Y-36100291D01*
X17518494Y-35988597D01*
X17351402Y-35821506D01*
X17351396Y-35821501D01*
X17165842Y-35691575D01*
X17122217Y-35636998D01*
X17115023Y-35567500D01*
X17146546Y-35505145D01*
X17165842Y-35488425D01*
X17344520Y-35363313D01*
X17351401Y-35358495D01*
X17518495Y-35191401D01*
X17601136Y-35073376D01*
X17655713Y-35029752D01*
X17702711Y-35020500D01*
X26298481Y-35020500D01*
X26365520Y-35040185D01*
X26386162Y-35056819D01*
X28668399Y-37339056D01*
X28670935Y-37341750D01*
X28712071Y-37388183D01*
X28743410Y-37409815D01*
X28763110Y-37423413D01*
X28766127Y-37425633D01*
X28814938Y-37463874D01*
X28814943Y-37463877D01*
X28824174Y-37468031D01*
X28843727Y-37479059D01*
X28852070Y-37484818D01*
X28910044Y-37506804D01*
X28910057Y-37506809D01*
X28913508Y-37508238D01*
X28923498Y-37512734D01*
X28970063Y-37533692D01*
X28970064Y-37533692D01*
X28970068Y-37533694D01*
X28980030Y-37535519D01*
X29001651Y-37541546D01*
X29001667Y-37541552D01*
X29011128Y-37545140D01*
X29027871Y-37547173D01*
X29072689Y-37552615D01*
X29076386Y-37553177D01*
X29112187Y-37559737D01*
X29117460Y-37560704D01*
X29179853Y-37592150D01*
X29215341Y-37652336D01*
X29214884Y-37714766D01*
X29164366Y-37903302D01*
X29164364Y-37903313D01*
X29144532Y-38129998D01*
X29144532Y-38130001D01*
X29164364Y-38356686D01*
X29164366Y-38356697D01*
X29223258Y-38576488D01*
X29223261Y-38576497D01*
X29319431Y-38782732D01*
X29319432Y-38782734D01*
X29449954Y-38969141D01*
X29610858Y-39130045D01*
X29610861Y-39130047D01*
X29797266Y-39260568D01*
X30003504Y-39356739D01*
X30223308Y-39415635D01*
X30385230Y-39429801D01*
X30449998Y-39435468D01*
X30450000Y-39435468D01*
X30450002Y-39435468D01*
X30506672Y-39430509D01*
X30676692Y-39415635D01*
X30896496Y-39356739D01*
X31102734Y-39260568D01*
X31289139Y-39130047D01*
X31450047Y-38969139D01*
X31510096Y-38883377D01*
X31564675Y-38839752D01*
X31611673Y-38830500D01*
X34368327Y-38830500D01*
X34435366Y-38850185D01*
X34469902Y-38883377D01*
X34529954Y-38969141D01*
X34690858Y-39130045D01*
X34690861Y-39130047D01*
X34877266Y-39260568D01*
X35083504Y-39356739D01*
X35303308Y-39415635D01*
X35465230Y-39429801D01*
X35529998Y-39435468D01*
X35530000Y-39435468D01*
X35530002Y-39435468D01*
X35586672Y-39430509D01*
X35756692Y-39415635D01*
X35976496Y-39356739D01*
X36182734Y-39260568D01*
X36369139Y-39130047D01*
X36530047Y-38969139D01*
X36590096Y-38883377D01*
X36644675Y-38839752D01*
X36691673Y-38830500D01*
X43126952Y-38830500D01*
X43130697Y-38830613D01*
X43138042Y-38831057D01*
X43192606Y-38834358D01*
X43230314Y-38827447D01*
X43253621Y-38823177D01*
X43257325Y-38822613D01*
X43275170Y-38820446D01*
X43318872Y-38815140D01*
X43328335Y-38811550D01*
X43349961Y-38805522D01*
X43350893Y-38805351D01*
X43359932Y-38803695D01*
X43416512Y-38778229D01*
X43419942Y-38776809D01*
X43477930Y-38754818D01*
X43486266Y-38749062D01*
X43505821Y-38738034D01*
X43515057Y-38733878D01*
X43563896Y-38695613D01*
X43566876Y-38693421D01*
X43617929Y-38658183D01*
X43659065Y-38611748D01*
X43661599Y-38609056D01*
X48051792Y-34218862D01*
X48054484Y-34216328D01*
X48100927Y-34175185D01*
X48136171Y-34124123D01*
X48138378Y-34121125D01*
X48176622Y-34072312D01*
X48180781Y-34063069D01*
X48191805Y-34043524D01*
X48197562Y-34035186D01*
X48219554Y-33977195D01*
X48220976Y-33973759D01*
X48246439Y-33917187D01*
X48248266Y-33907215D01*
X48254290Y-33885603D01*
X48257884Y-33876128D01*
X48265357Y-33814580D01*
X48265921Y-33810875D01*
X48269414Y-33791812D01*
X48277102Y-33749862D01*
X48273357Y-33687952D01*
X48273244Y-33684207D01*
X48273244Y-29875791D01*
X48273357Y-29872046D01*
X48277102Y-29810138D01*
X48265919Y-29749115D01*
X48265357Y-29745418D01*
X48260287Y-29703664D01*
X48257884Y-29683872D01*
X48254292Y-29674400D01*
X48248265Y-29652778D01*
X48246439Y-29642815D01*
X48246439Y-29642813D01*
X48220968Y-29586220D01*
X48219561Y-29582823D01*
X48197562Y-29524814D01*
X48197560Y-29524812D01*
X48197560Y-29524810D01*
X48191806Y-29516475D01*
X48180778Y-29496921D01*
X48176625Y-29487693D01*
X48176622Y-29487689D01*
X48176622Y-29487688D01*
X48138370Y-29438864D01*
X48136160Y-29435859D01*
X48122014Y-29415365D01*
X48100927Y-29384815D01*
X48054486Y-29343672D01*
X48051792Y-29341136D01*
X44017600Y-25306943D01*
X43984117Y-25245623D01*
X43989101Y-25175931D01*
X44017600Y-25131585D01*
X44150047Y-24999139D01*
X44167271Y-24974539D01*
X44221848Y-24930913D01*
X44291346Y-24923718D01*
X44353701Y-24955239D01*
X44389116Y-25015468D01*
X44392138Y-25032406D01*
X44395908Y-25067483D01*
X44446202Y-25202328D01*
X44446206Y-25202335D01*
X44532452Y-25317544D01*
X44532455Y-25317547D01*
X44647664Y-25403793D01*
X44647671Y-25403797D01*
X44782517Y-25454091D01*
X44782516Y-25454091D01*
X44789444Y-25454835D01*
X44842127Y-25460500D01*
X46537872Y-25460499D01*
X46597483Y-25454091D01*
X46732331Y-25403796D01*
X46847546Y-25317546D01*
X46933796Y-25202331D01*
X46933797Y-25202327D01*
X46933800Y-25202323D01*
X46958322Y-25136573D01*
X47000192Y-25080639D01*
X47065656Y-25056221D01*
X47068004Y-25056075D01*
X47101646Y-25054313D01*
X47115187Y-25050683D01*
X47134313Y-25047138D01*
X47148256Y-25045674D01*
X47214306Y-25024212D01*
X47217368Y-25023304D01*
X47284488Y-25005320D01*
X47296976Y-24998956D01*
X47314950Y-24991510D01*
X47328284Y-24987179D01*
X47388476Y-24952425D01*
X47391222Y-24950934D01*
X47453149Y-24919383D01*
X47464031Y-24910569D01*
X47480083Y-24899537D01*
X47492216Y-24892533D01*
X47543847Y-24846043D01*
X47546260Y-24843982D01*
X47563380Y-24830119D01*
X47578929Y-24814568D01*
X47581270Y-24812347D01*
X47632888Y-24765871D01*
X47641130Y-24754525D01*
X47653760Y-24739737D01*
X48809737Y-23583760D01*
X48824525Y-23571130D01*
X48835871Y-23562888D01*
X48882347Y-23511270D01*
X48884570Y-23508928D01*
X48888316Y-23505182D01*
X48900119Y-23493380D01*
X48913982Y-23476260D01*
X48916049Y-23473841D01*
X48921863Y-23467384D01*
X48962533Y-23422216D01*
X48969538Y-23410080D01*
X48980570Y-23394031D01*
X48989381Y-23383151D01*
X48989383Y-23383149D01*
X48992933Y-23376181D01*
X49020934Y-23321222D01*
X49022425Y-23318476D01*
X49057179Y-23258284D01*
X49061509Y-23244956D01*
X49068960Y-23226969D01*
X49075319Y-23214490D01*
X49075320Y-23214488D01*
X49089931Y-23159954D01*
X49093297Y-23147390D01*
X49094201Y-23144337D01*
X49115674Y-23078256D01*
X49117139Y-23064307D01*
X49120684Y-23045183D01*
X49124312Y-23031646D01*
X49127947Y-22962284D01*
X49128200Y-22959071D01*
X49128264Y-22958464D01*
X49130500Y-22937192D01*
X49130500Y-22915196D01*
X49130585Y-22911950D01*
X49132200Y-22881127D01*
X49134219Y-22842612D01*
X49132027Y-22828772D01*
X49130500Y-22809373D01*
X49130500Y-19504360D01*
X49150185Y-19437321D01*
X49166815Y-19416683D01*
X49764925Y-18818572D01*
X49826248Y-18785088D01*
X49895940Y-18790072D01*
G37*
%TD.AperFunction*%
%TD*%
M02*
