%TF.GenerationSoftware,KiCad,Pcbnew,7.0.6*%
%TF.CreationDate,2023-08-20T13:22:58+02:00*%
%TF.ProjectId,atari_2600_av_mod,61746172-695f-4323-9630-305f61765f6d,1*%
%TF.SameCoordinates,Original*%
%TF.FileFunction,Drillmap*%
%TF.FilePolarity,Positive*%
%FSLAX45Y45*%
G04 Gerber Fmt 4.5, Leading zero omitted, Abs format (unit mm)*
G04 Created by KiCad (PCBNEW 7.0.6) date 2023-08-20 13:22:58*
%MOMM*%
%LPD*%
G01*
G04 APERTURE LIST*
%ADD10C,0.050000*%
%ADD11C,0.200000*%
G04 APERTURE END LIST*
D10*
X1394000Y-1394000D02*
X6594000Y-1394000D01*
X6594000Y-4194000D01*
X1394000Y-4194000D01*
X1394000Y-1394000D01*
D11*
X1652277Y-4507984D02*
X1652277Y-4307984D01*
X1652277Y-4307984D02*
X1699896Y-4307984D01*
X1699896Y-4307984D02*
X1728467Y-4317508D01*
X1728467Y-4317508D02*
X1747515Y-4336555D01*
X1747515Y-4336555D02*
X1757039Y-4355603D01*
X1757039Y-4355603D02*
X1766562Y-4393698D01*
X1766562Y-4393698D02*
X1766562Y-4422270D01*
X1766562Y-4422270D02*
X1757039Y-4460365D01*
X1757039Y-4460365D02*
X1747515Y-4479412D01*
X1747515Y-4479412D02*
X1728467Y-4498460D01*
X1728467Y-4498460D02*
X1699896Y-4507984D01*
X1699896Y-4507984D02*
X1652277Y-4507984D01*
X1852277Y-4507984D02*
X1852277Y-4374650D01*
X1852277Y-4412746D02*
X1861801Y-4393698D01*
X1861801Y-4393698D02*
X1871324Y-4384174D01*
X1871324Y-4384174D02*
X1890372Y-4374650D01*
X1890372Y-4374650D02*
X1909420Y-4374650D01*
X1976086Y-4507984D02*
X1976086Y-4374650D01*
X1976086Y-4307984D02*
X1966562Y-4317508D01*
X1966562Y-4317508D02*
X1976086Y-4327031D01*
X1976086Y-4327031D02*
X1985610Y-4317508D01*
X1985610Y-4317508D02*
X1976086Y-4307984D01*
X1976086Y-4307984D02*
X1976086Y-4327031D01*
X2099896Y-4507984D02*
X2080848Y-4498460D01*
X2080848Y-4498460D02*
X2071324Y-4479412D01*
X2071324Y-4479412D02*
X2071324Y-4307984D01*
X2204658Y-4507984D02*
X2185610Y-4498460D01*
X2185610Y-4498460D02*
X2176086Y-4479412D01*
X2176086Y-4479412D02*
X2176086Y-4307984D01*
X2433229Y-4507984D02*
X2433229Y-4307984D01*
X2433229Y-4307984D02*
X2499896Y-4450841D01*
X2499896Y-4450841D02*
X2566563Y-4307984D01*
X2566563Y-4307984D02*
X2566563Y-4507984D01*
X2747515Y-4507984D02*
X2747515Y-4403222D01*
X2747515Y-4403222D02*
X2737991Y-4384174D01*
X2737991Y-4384174D02*
X2718944Y-4374650D01*
X2718944Y-4374650D02*
X2680848Y-4374650D01*
X2680848Y-4374650D02*
X2661801Y-4384174D01*
X2747515Y-4498460D02*
X2728467Y-4507984D01*
X2728467Y-4507984D02*
X2680848Y-4507984D01*
X2680848Y-4507984D02*
X2661801Y-4498460D01*
X2661801Y-4498460D02*
X2652277Y-4479412D01*
X2652277Y-4479412D02*
X2652277Y-4460365D01*
X2652277Y-4460365D02*
X2661801Y-4441317D01*
X2661801Y-4441317D02*
X2680848Y-4431793D01*
X2680848Y-4431793D02*
X2728467Y-4431793D01*
X2728467Y-4431793D02*
X2747515Y-4422270D01*
X2842753Y-4374650D02*
X2842753Y-4574650D01*
X2842753Y-4384174D02*
X2861801Y-4374650D01*
X2861801Y-4374650D02*
X2899896Y-4374650D01*
X2899896Y-4374650D02*
X2918943Y-4384174D01*
X2918943Y-4384174D02*
X2928467Y-4393698D01*
X2928467Y-4393698D02*
X2937991Y-4412746D01*
X2937991Y-4412746D02*
X2937991Y-4469889D01*
X2937991Y-4469889D02*
X2928467Y-4488936D01*
X2928467Y-4488936D02*
X2918943Y-4498460D01*
X2918943Y-4498460D02*
X2899896Y-4507984D01*
X2899896Y-4507984D02*
X2861801Y-4507984D01*
X2861801Y-4507984D02*
X2842753Y-4498460D01*
X3023705Y-4488936D02*
X3033229Y-4498460D01*
X3033229Y-4498460D02*
X3023705Y-4507984D01*
X3023705Y-4507984D02*
X3014182Y-4498460D01*
X3014182Y-4498460D02*
X3023705Y-4488936D01*
X3023705Y-4488936D02*
X3023705Y-4507984D01*
X3023705Y-4384174D02*
X3033229Y-4393698D01*
X3033229Y-4393698D02*
X3023705Y-4403222D01*
X3023705Y-4403222D02*
X3014182Y-4393698D01*
X3014182Y-4393698D02*
X3023705Y-4384174D01*
X3023705Y-4384174D02*
X3023705Y-4403222D01*
M02*
